<?xml version="1.0" encoding="UTF-8" standalone="no"?>
<!-- Created with Inkscape (http://www.inkscape.org/) -->

<svg
   xmlns:dc="http://purl.org/dc/elements/1.1/"
   xmlns:cc="http://creativecommons.org/ns#"
   xmlns:rdf="http://www.w3.org/1999/02/22-rdf-syntax-ns#"
   xmlns:svg="http://www.w3.org/2000/svg"
   xmlns="http://www.w3.org/2000/svg"
   xmlns:sodipodi="http://sodipodi.sourceforge.net/DTD/sodipodi-0.dtd"
   xmlns:inkscape="http://www.inkscape.org/namespaces/inkscape"
   id="svg4395"
   height="700.00000"
   width="1000.0000"
   y="0.00000000"
   x="0.00000000"
   version="1.0"
   inkscape:version="0.48.0 r9654"
   sodipodi:docname="test.png">
  <metadata
     id="metadata3022">
    <rdf:RDF>
      <cc:Work
         rdf:about="">
        <dc:format>image/svg+xml</dc:format>
        <dc:type
           rdf:resource="http://purl.org/dc/dcmitype/StillImage" />
        <dc:title></dc:title>
      </cc:Work>
    </rdf:RDF>
  </metadata>
  <sodipodi:namedview
     pagecolor="#ffffff"
     bordercolor="#666666"
     borderopacity="1"
     objecttolerance="10"
     gridtolerance="10"
     guidetolerance="10"
     inkscape:pageopacity="0"
     inkscape:pageshadow="2"
     inkscape:window-width="1366"
     inkscape:window-height="706"
     id="namedview3020"
     showgrid="false"
     inkscape:zoom="1.1758175"
     inkscape:cx="599.75581"
     inkscape:cy="390.6697"
     inkscape:window-x="-8"
     inkscape:window-y="-8"
     inkscape:window-maximized="1"
     inkscape:current-layer="svg4395" />
  <defs
     id="defs3" />
  <g
     id="g3114">
    <path
       sodipodi:nodetypes="cccccccccccccccc"
       inkscape:connector-curvature="0"
       id="rect8253"
       d="M 0,0 0,175 0,350 0,525 0,664.15625 1.6875,662.59375 767.67215,2.4054983 z M 1000,48.6875 267.82034,695.593 261.16409,702.4055 1000,700 l 0,-175 0,-175 0,-175 z"
       style="fill:#00923f;fill-opacity:1;stroke:none" />
    <path
       inkscape:connector-curvature="0"
       id="path3780"
       d="M 618.53125,0 1.6875,662.59375 0,664.15625 0,700 l 386.25,0 6.65625,-6.8125 L 1000,48.6875 1000,0 618.53125,0 z"
       style="fill:#ffffff;fill-opacity:1;stroke:none" />
  </g>
  <path
     sodipodi:type="arc"
     style="fill:#03cef9;fill-opacity:1;fill-rule:nonzero;stroke:#000000;stroke-width:5;stroke-miterlimit:4;stroke-dasharray:none"
     id="path3215"
     sodipodi:cx="649.76068"
     sodipodi:cy="351.73169"
     sodipodi:rx="163.29063"
     sodipodi:ry="99.930473"
     d="m 813.05132,351.73169 a 163.29063,99.930473 0 1 1 -326.58127,0 163.29063,99.930473 0 1 1 326.58127,0 z"
     transform="translate(-148.83261,4.6753698e-6)" />
  <g
     id="g176"
     style="fill:#ffff00;stroke:none"
     transform="matrix(0.00564805,-0.00677031,0.00677031,0.00564805,-727.24215,256.99232)">
    <path
       class="fil1 str3"
       d="m 72677,107465 840,-1259 839,419 0,420 1259,0 840,420 1259,0 420,-840 2518,0 0,420 1679,840 420,839 839,0 840,840 420,1259 0,1259 0,1259 0,420 419,420 420,0 0,419 0,420 -420,-420 -419,420 1679,3778 2518,-420 -4617,4617 -420,0 420,-839 -420,0 -420,-840 -419,-839 -420,839 -839,-419 419,-1260 -839,-419 0,-420 -420,0 0,0 -840,-420 -419,0 -1260,-420 420,-839 -420,0 840,-420 0,-839 -420,419 0,-839 0,420 -839,-420 419,-420 -839,-420 0,420 -839,-420 -420,0 -840,-419 -419,-840 419,-839 -2098,-2938 0,-840 -420,-839 -420,-420 z"
       id="path178"
       style="fill:#ffff00;stroke:none"
       inkscape:connector-curvature="0" />
  </g>
  <path
     style="fill:#00923f;fill-opacity:1;stroke:none"
     d="m 447.76375,342.34243 c 7.42126,-1.99071 14.65765,-7.57728 22.75145,-3.5304 0.7567,0.37847 1.98918,0.0153 2.74588,0.3923 3.51189,1.75596 5.35416,3.39283 7.84531,5.88398 1.30755,1.30755 4.57643,0.65377 5.88398,1.96132 0.61045,0.61045 5.38159,0 6.27627,0 3.02686,0 12.95619,1.56336 15.2984,0.39226 1.68732,-0.84362 8.18861,-1.78964 10.19889,-0.78451 4.24121,2.1206 6.21533,5.06897 10.19893,7.06075 0.77264,0.38636 1.12874,1.52107 1.56903,1.96136 1.62515,1.62512 2.32532,3.89431 3.5304,5.09947 0.694,0.69396 0.0801,7.53307 0.78455,8.2376 0.3877,0.38766 0.78456,1.04228 0.78456,1.96129 0,1.02891 2.28716,3.95591 0.78451,4.70721 -1.13333,0.56667 -5.79829,1.02351 -7.06079,0.3923 -2.01434,-1.0072 -3.75809,-2.46747 -5.88398,-3.5304 -5.04626,-2.52313 -12.57906,-2.38017 -16.47521,-6.27628 -0.67687,-0.67687 -2.18419,-0.6152 -2.74584,-1.17677 -1.30495,-1.30502 -9.2243,-1.27794 -11.3757,-2.35362 -1.2994,-0.64968 -4.84753,-1.31713 -5.88402,-2.35359 -0.59747,-0.5975 -2.33746,0.008 -3.13814,-0.39226 -3.41575,-1.70789 -7.41317,-3.31438 -10.98341,-5.0995 -1.66644,-0.8332 -4.18957,-0.0889 -6.27631,-0.78451 -4.4527,-1.48423 -9.37734,-1.56907 -14.12155,-1.56907 -0.30683,0 -1.76562,0.19574 -1.96133,0 -2.61855,-2.61852 -5.35263,-5.85434 -2.74588,-10.19893 z"
     id="path3014"
     inkscape:connector-curvature="0" />
  <path
     sodipodi:type="star"
     style="fill:#000000;stroke:none"
     id="path3016"
     sodipodi:sides="5"
     sodipodi:cx="-337.21219"
     sodipodi:cy="310.05856"
     sodipodi:r1="7.3160377"
     sodipodi:r2="3.6580184"
     sodipodi:arg1="0.95054684"
     sodipodi:arg2="1.5788654"
     inkscape:flatsided="false"
     inkscape:rounded="0"
     inkscape:randomized="0"
     d="m -332.95983,316.01187 -4.28188,-2.29541 -4.31836,2.22601 0.85989,-4.78163 -3.45151,-3.41913 4.81332,-0.6598 2.18521,-4.33915 2.11491,4.37385 4.80204,0.73739 -3.50623,3.36299 z"
     inkscape:transform-center-x="-0.0080114985"
     inkscape:transform-center-y="-0.29919179"
     transform="matrix(1.6823263,0,0,1.6823263,980.47961,-185.36762)" />
  <path
     transform="matrix(1.6823263,0,0,1.6823263,1125.4541,-196.54367)"
     inkscape:transform-center-y="-0.29919179"
     inkscape:transform-center-x="-0.0080114985"
     d="m -332.95983,316.01187 -4.28188,-2.29541 -4.31836,2.22601 0.85989,-4.78163 -3.45151,-3.41913 4.81332,-0.6598 2.18521,-4.33915 2.11491,4.37385 4.80204,0.73739 -3.50623,3.36299 z"
     inkscape:randomized="0"
     inkscape:rounded="0"
     inkscape:flatsided="false"
     sodipodi:arg2="1.5788654"
     sodipodi:arg1="0.95054684"
     sodipodi:r2="3.6580184"
     sodipodi:r1="7.3160377"
     sodipodi:cy="310.05856"
     sodipodi:cx="-337.21219"
     sodipodi:sides="5"
     id="path3786"
     style="fill:#000000;stroke:none"
     sodipodi:type="star" />
  <path
     sodipodi:type="star"
     style="fill:#000000;stroke:none"
     id="path3788"
     sodipodi:sides="5"
     sodipodi:cx="-337.21219"
     sodipodi:cy="310.05856"
     sodipodi:r1="7.3160377"
     sodipodi:r2="3.6580184"
     sodipodi:arg1="0.95054684"
     sodipodi:arg2="1.5788654"
     inkscape:flatsided="false"
     inkscape:rounded="0"
     inkscape:randomized="0"
     d="m -332.95983,316.01187 -4.28188,-2.29541 -4.31836,2.22601 0.85989,-4.78163 -3.45151,-3.41913 4.81332,-0.6598 2.18521,-4.33915 2.11491,4.37385 4.80204,0.73739 -3.50623,3.36299 z"
     inkscape:transform-center-x="-0.0080114985"
     inkscape:transform-center-y="-0.29919179"
     transform="matrix(1.6823263,0,0,1.6823263,1021.2028,-129.98408)" />
  <path
     transform="matrix(1.6823263,0,0,1.6823263,1141.7434,-128.35518)"
     inkscape:transform-center-y="-0.29919179"
     inkscape:transform-center-x="-0.0080114985"
     d="m -332.95983,316.01187 -4.28188,-2.29541 -4.31836,2.22601 0.85989,-4.78163 -3.45151,-3.41913 4.81332,-0.6598 2.18521,-4.33915 2.11491,4.37385 4.80204,0.73739 -3.50623,3.36299 z"
     inkscape:randomized="0"
     inkscape:rounded="0"
     inkscape:flatsided="false"
     sodipodi:arg2="1.5788654"
     sodipodi:arg1="0.95054684"
     sodipodi:r2="3.6580184"
     sodipodi:r1="7.3160377"
     sodipodi:cy="310.05856"
     sodipodi:cx="-337.21219"
     sodipodi:sides="5"
     id="path3790"
     style="fill:#000000;stroke:none"
     sodipodi:type="star" />
  <g
     transform="matrix(3.8306417,0,0,3.8306417,881.56827,-1165.7058)"
     style="font-size:7.97577095px;font-style:normal;font-variant:normal;font-weight:bold;font-stretch:normal;text-align:start;line-height:125%;letter-spacing:0px;word-spacing:0px;writing-mode:lr-tb;text-anchor:start;fill:#000000;fill-opacity:1;stroke:none;font-family:Arial;-inkscape-font-specification:Arial Bold"
     id="text3803">
    <path
       inkscape:connector-curvature="0"
       d="m -129.28788,410.12688 0.74119,0.90856 c -0.48458,0.42756 -0.97642,0.65877 -1.47551,0.69364 -0.4991,0.0349 -1.005,-0.11545 -1.51769,-0.45096 -0.63436,-0.41512 -1.01394,-0.97302 -1.13874,-1.6737 -0.12481,-0.70067 0.0587,-1.42684 0.55063,-2.17852 0.52032,-0.79511 1.12972,-1.27829 1.82821,-1.44952 0.69847,-0.17123 1.38227,-0.0379 2.05139,0.39996 0.58438,0.38242 0.94605,0.86576 1.08498,1.45002 0.0836,0.34638 0.0546,0.74628 -0.087,1.19972 l -1.10407,-0.39671 c 0.10558,-0.28462 0.11567,-0.55727 0.0303,-0.81794 -0.0854,-0.26066 -0.25628,-0.47488 -0.51263,-0.64263 -0.35411,-0.23173 -0.72459,-0.29265 -1.11142,-0.18278 -0.38684,0.10989 -0.7665,0.44942 -1.13897,1.0186 -0.39522,0.60394 -0.56808,1.10517 -0.51859,1.50369 0.0495,0.39851 0.24803,0.7115 0.59563,0.93897 0.25634,0.16775 0.53016,0.23058 0.82145,0.18849 0.29128,-0.0421 0.59155,-0.21173 0.90082,-0.50889 z"
       style="fill:#000000"
       id="path3853" />
    <path
       inkscape:connector-curvature="0"
       d="m -123.97657,415.19128 -1.13016,-0.54339 0.11269,-1.38477 -2.05674,-0.98889 -0.98664,0.96458 -1.10208,-0.52989 4.47802,-4.1818 1.09857,0.5282 z m -0.93408,-2.95539 0.20904,-2.25022 -1.61296,1.57521 z"
       style="fill:#000000"
       id="path3855" />
    <path
       inkscape:connector-curvature="0"
       d="m -123.40854,415.40288 1.85483,-5.39952 1.63164,0.5605 -0.28551,4.01972 2.23391,-3.35041 1.63532,0.56176 -1.85483,5.39952 -1.01287,-0.34794 1.46008,-4.25037 -2.53188,3.88219 -1.0497,-0.36059 0.39196,-4.61729 -1.46008,4.25037 z"
       style="fill:#000000"
       id="path3857" />
    <path
       inkscape:connector-curvature="0"
       d="m -117.07044,417.47564 1.31329,-5.55611 1.80025,0.42552 c 0.68219,0.16125 1.12031,0.29416 1.31436,0.39871 0.29865,0.15863 0.52236,0.40293 0.67114,0.73288 0.14876,0.32997 0.17089,0.71603 0.0664,1.15819 -0.0806,0.3411 -0.21032,0.61324 -0.38907,0.81643 -0.17875,0.20319 -0.37919,0.34856 -0.6013,0.43612 -0.22212,0.0876 -0.43679,0.12953 -0.64402,0.1259 -0.28037,-0.0102 -0.67449,-0.0754 -1.18234,-0.19544 l -0.73147,-0.17289 -0.49539,2.09586 z m 2.21296,-4.35103 -0.37266,1.57663 0.61397,0.14513 c 0.44216,0.10451 0.74465,0.14533 0.90746,0.12245 0.16281,-0.0229 0.30117,-0.0862 0.41508,-0.19001 0.1139,-0.1038 0.19026,-0.23781 0.22909,-0.40205 0.0478,-0.20213 0.0278,-0.38292 -0.0599,-0.54238 -0.0877,-0.15945 -0.21863,-0.2771 -0.39278,-0.35295 -0.12795,-0.0569 -0.39405,-0.13316 -0.79831,-0.22872 z"
       style="fill:#000000"
       id="path3859" />
    <path
       inkscape:connector-curvature="0"
       d="m -111.69678,415.84286 c 0.0846,-0.57537 0.24171,-1.04562 0.47124,-1.41074 0.17074,-0.2688 0.38402,-0.50116 0.63984,-0.69709 0.25581,-0.19592 0.52412,-0.32966 0.80494,-0.4012 0.37381,-0.0972 0.79061,-0.11201 1.25041,-0.0444 0.83223,0.12242 1.46018,0.47851 1.88385,1.06829 0.42365,0.58979 0.56785,1.34446 0.4326,2.26403 -0.13413,0.91187 -0.48694,1.58885 -1.05843,2.03095 -0.57151,0.44209 -1.27209,0.60212 -2.10176,0.48009 -0.83995,-0.12354 -1.47011,-0.478 -1.89048,-1.06336 -0.42037,-0.58536 -0.56444,-1.32755 -0.43221,-2.22658 z m 1.18082,0.13432 c -0.0941,0.6396 -0.0177,1.14615 0.22916,1.51967 0.24684,0.37352 0.59759,0.59371 1.05224,0.66059 0.45465,0.0669 0.85183,-0.042 1.19154,-0.32663 0.33971,-0.28461 0.55774,-0.75443 0.65408,-1.40943 0.0952,-0.6473 0.0243,-1.15108 -0.21266,-1.51134 -0.23699,-0.36025 -0.59052,-0.57495 -1.06058,-0.6441 -0.47006,-0.0691 -0.87264,0.0363 -1.20774,0.31637 -0.33511,0.28005 -0.55045,0.74501 -0.64604,1.39487 z"
       style="fill:#000000"
       id="path3861" />
    <path
       inkscape:connector-curvature="0"
       d="m -103.34432,413.97502 2.10577,0.0682 c 0.47487,0.0154 0.83569,0.0634 1.08245,0.14415 0.331546,0.10946 0.612613,0.2939 0.843199,0.55333 0.230577,0.25944 0.402243,0.57347 0.514999,0.94209 0.112745,0.36862 0.160465,0.82021 0.143161,1.35476 -0.01521,0.46968 -0.08671,0.87259 -0.214482,1.20875 -0.15617,0.41056 -0.370753,0.74001 -0.643749,0.98833 -0.206115,0.18815 -0.480902,0.33122 -0.824358,0.4292 -0.25691,0.0722 -0.59815,0.10142 -1.02371,0.0876 l -2.16806,-0.0702 z m 1.12088,1.00262 -0.12238,3.7795 0.86021,0.0279 c 0.32177,0.0104 0.5546,-2.3e-4 0.6985,-0.0319 0.18835,-0.0407 0.34596,-0.11479 0.47283,-0.22238 0.12687,-0.10759 0.23337,-0.28792 0.319496,-0.541 0.08612,-0.25308 0.136324,-0.60019 0.150613,-1.04132 0.01428,-0.44114 -0.01368,-0.78103 -0.08387,-1.0197 -0.07021,-0.23865 -0.173229,-0.42642 -0.309069,-0.5633 -0.13584,-0.13688 -0.31069,-0.23216 -0.52456,-0.28584 -0.15971,-0.0415 -0.4744,-0.0699 -0.94408,-0.0851 z"
       style="fill:#000000"
       id="path3863" />
    <path
       inkscape:connector-curvature="0"
       d="m -98.128959,417.02547 c -0.02779,-0.5809 0.03575,-1.0726 0.190647,-1.4751 0.115768,-0.29665 0.280291,-0.56575 0.493571,-0.80729 0.213277,-0.24153 0.450804,-0.42445 0.712581,-0.54875 0.348085,-0.1674 0.75423,-0.26221 1.218435,-0.28443 0.84023,-0.0402 1.525016,0.18826 2.05436,0.68538 0.529334,0.49713 0.816213,1.20989 0.860639,2.13829 0.04404,0.92063 -0.171748,1.6529 -0.647374,2.1968 -0.475636,0.54391 -1.132271,0.8359 -1.969907,0.87598 -0.848016,0.0406 -1.534654,-0.18585 -2.059915,-0.67927 -0.525264,-0.49341 -0.80961,-1.19395 -0.853037,-2.10161 z m 1.184579,-0.0957 c 0.0309,0.64574 0.20343,1.12809 0.517607,1.44706 0.314173,0.31897 0.700768,0.46748 1.159787,0.44551 0.459013,-0.022 0.827781,-0.2053 1.106306,-0.55004 0.278517,-0.34472 0.401957,-0.84774 0.370321,-1.50903 -0.03127,-0.65351 -0.19788,-1.1342 -0.499823,-1.44207 -0.30195,-0.30785 -0.690212,-0.45043 -1.164784,-0.42773 -0.474579,0.0227 -0.849306,0.20375 -1.124183,0.5431 -0.274881,0.33936 -0.396624,0.83709 -0.365231,1.4932 z"
       style="fill:#000000"
       id="path3865" />
    <path
       inkscape:connector-curvature="0"
       d="m -90.289892,413.59567 2.252038,-0.36938 c 0.445793,-0.0731 0.781265,-0.10906 1.006416,-0.10785 0.225145,10e-4 0.433853,0.0466 0.626125,0.13607 0.192265,0.0895 0.362118,0.22278 0.509562,0.39986 0.147435,0.17709 0.241115,0.38733 0.281041,0.63072 0.04328,0.26389 0.01189,0.51767 -0.09416,0.76132 -0.106059,0.24367 -0.271748,0.44054 -0.497069,0.59062 0.359699,0.0436 0.651535,0.17071 0.875508,0.38128 0.223963,0.21058 0.362632,0.47856 0.416005,0.80394 0.04202,0.2562 0.02332,0.51513 -0.0561,0.77678 -0.07943,0.26166 -0.210392,0.48178 -0.392889,0.66036 -0.182506,0.17859 -0.422186,0.30932 -0.71904,0.39222 -0.186234,0.0516 -0.641457,0.13941 -1.365673,0.26346 l -1.917691,0.31454 z m 1.291351,0.75113 0.213684,1.3028 0.745556,-0.12229 c 0.443231,-0.0727 0.7176,-0.12427 0.823108,-0.15474 0.19093,-0.055 0.332981,-0.14735 0.426154,-0.27708 0.09317,-0.12973 0.124832,-0.28554 0.095,-0.46745 -0.02858,-0.17422 -0.09983,-0.30789 -0.213767,-0.40103 -0.113939,-0.0931 -0.267594,-0.13566 -0.460965,-0.12763 -0.114833,0.006 -0.439982,0.0524 -0.975448,0.14026 z m 0.367487,2.24051 0.247093,1.50648 1.053001,-0.17271 c 0.409924,-0.0672 0.66808,-0.12142 0.77447,-0.16255 0.164048,-0.0585 0.289466,-0.15601 0.376255,-0.29258 0.08678,-0.13657 0.113783,-0.30478 0.08101,-0.50462 -0.02774,-0.16909 -0.09226,-0.30585 -0.193576,-0.41026 -0.10132,-0.1044 -0.233892,-0.17079 -0.397717,-0.19917 -0.163832,-0.0284 -0.504512,-1.3e-4 -1.022043,0.0847 z"
       style="fill:#000000"
       id="path3867" />
    <path
       inkscape:connector-curvature="0"
       d="m -83.684633,418.25125 -1.413172,-5.53156 2.350723,-0.60055 c 0.591137,-0.15101 1.033349,-0.21106 1.326635,-0.18015 0.293281,0.0309 0.552871,0.15285 0.778773,0.36578 0.225894,0.21294 0.380615,0.48292 0.464163,0.80993 0.106032,0.41506 0.07159,0.78896 -0.103324,1.12171 -0.174921,0.33275 -0.496128,0.59636 -0.963619,0.79082 0.277471,0.0792 0.516346,0.18295 0.716624,0.31132 0.200272,0.12837 0.488676,0.37357 0.865213,0.7356 l 0.951103,0.90659 -1.335724,0.34125 -1.114976,-0.99738 c -0.396661,-0.35688 -0.662113,-0.5778 -0.796359,-0.66275 -0.13425,-0.0849 -0.26579,-0.13307 -0.394619,-0.14437 -0.128834,-0.0113 -0.321539,0.0158 -0.578117,0.0814 l -0.226394,0.0578 0.589946,2.30922 z m 0.301362,-3.47749 0.826338,-0.21111 c 0.535797,-0.13688 0.864572,-0.24499 0.986328,-0.32433 0.121751,-0.0793 0.206221,-0.18398 0.253413,-0.31395 0.04718,-0.12995 0.04957,-0.27795 0.0072,-0.44397 -0.04756,-0.18614 -0.135637,-0.32375 -0.264236,-0.41283 -0.128605,-0.0891 -0.287319,-0.12556 -0.476143,-0.10948 -0.09377,0.0106 -0.367052,0.0737 -0.819838,0.18935 l -0.871617,0.22268 z"
       style="fill:#000000"
       id="path3869" />
    <path
       inkscape:connector-curvature="0"
       d="m -78.161661,416.74637 -1.77098,-5.4276 1.095885,-0.35757 1.770981,5.42759 z"
       style="fill:#000000"
       id="path3871" />
    <path
       inkscape:connector-curvature="0"
       d="m -74.826888,415.5807 -1.754818,-4.40687 -1.573881,0.62672 -0.357303,-0.89729 4.215108,-1.67846 0.357303,0.89729 -1.570264,0.62528 1.754818,4.40687 z"
       style="fill:#000000"
       id="path3873" />
    <path
       inkscape:connector-curvature="0"
       d="m -73.028027,411.86038 c -0.274341,-0.51279 -0.427903,-0.9842 -0.460686,-1.41422 -0.02271,-0.31763 0.01045,-0.63129 0.09946,-0.94098 0.08902,-0.30968 0.225093,-0.57681 0.408221,-0.80141 0.242593,-0.30056 0.568777,-0.56045 0.978552,-0.77969 0.741717,-0.39681 1.458291,-0.48425 2.149726,-0.26233 0.69143,0.22193 1.256374,0.74267 1.694836,1.56221 0.43478,0.81269 0.554039,1.56672 0.357779,2.26209 -0.196268,0.69537 -0.664114,1.24085 -1.403538,1.63644 -0.748588,0.40049 -1.46596,0.49057 -2.152121,0.27024 -0.686162,-0.22033 -1.243572,-0.73111 -1.672233,-1.53235 z m 1.028961,-0.59466 c 0.304961,0.57003 0.667763,0.9317 1.088407,1.08502 0.420642,0.15333 0.833562,0.1216 1.238761,-0.0952 0.405195,-0.21678 0.659631,-0.54061 0.76331,-0.9715 0.103672,-0.43089 -6.46e-4,-0.93821 -0.312952,-1.52198 -0.308638,-0.57688 -0.66537,-0.93959 -1.070199,-1.08813 -0.404832,-0.14853 -0.816713,-0.11073 -1.235645,0.11339 -0.418933,0.22413 -0.679745,0.54843 -0.782436,0.9729 -0.10269,0.42448 8.95e-4,0.9263 0.310754,1.50548 z"
       style="fill:#000000"
       id="path3875" />
  </g>
  <g
     transform="matrix(3.5546991,0,0,3.8306417,839.51103,-1197.9569)"
     style="font-size:7.97577095px;font-style:normal;font-variant:normal;font-weight:bold;font-stretch:normal;text-align:start;line-height:125%;letter-spacing:0px;word-spacing:0px;writing-mode:lr-tb;text-anchor:start;fill:#000000;fill-opacity:1;stroke:none;font-family:Arial;-inkscape-font-specification:Arial Bold"
     id="text3807">
    <path
       inkscape:connector-curvature="0"
       d="m -131.14345,397.31275 0.65516,0.77712 -2.93283,2.47254 c -0.21591,-0.32055 -0.35533,-0.67927 -0.41827,-1.07616 -0.0629,-0.39689 -0.0434,-1.01016 0.0586,-1.83981 0.0809,-0.6693 0.11138,-1.10246 0.0913,-1.29947 -0.0305,-0.26975 -0.11682,-0.48899 -0.25906,-0.65772 -0.15731,-0.18659 -0.32834,-0.28775 -0.51309,-0.30349 -0.18475,-0.0157 -0.36546,0.0509 -0.54212,0.19981 -0.17468,0.14727 -0.26928,0.31702 -0.28381,0.50924 -0.0145,0.19223 0.0732,0.41711 0.26314,0.67465 l -0.90398,0.61948 c -0.33861,-0.50235 -0.46142,-0.96422 -0.36843,-1.3856 0.093,-0.42138 0.33602,-0.79774 0.72904,-1.12909 0.43075,-0.36314 0.86709,-0.53234 1.30902,-0.50761 0.44193,0.0247 0.80849,0.2098 1.09967,0.55518 0.16568,0.19652 0.28817,0.41331 0.36747,0.65037 0.0793,0.23707 0.12454,0.5173 0.1357,0.84068 0.008,0.21437 -0.0186,0.55393 -0.0785,1.01866 -0.0599,0.46474 -0.0915,0.76652 -0.0951,0.90532 -0.004,0.13881 0.005,0.26434 0.0246,0.37658 z"
       id="path3815" />
    <path
       inkscape:connector-curvature="0"
       d="m -130.58427,396.5326 0.82375,-0.67614 c 0.13938,0.16638 0.2831,0.26331 0.43116,0.29079 0.14805,0.0275 0.29713,-0.008 0.44723,-0.10545 0.18925,-0.12331 0.29353,-0.3152 0.31284,-0.57568 0.0193,-0.26048 -0.13112,-0.67685 -0.4513,-1.24913 -0.0563,0.4178 -0.25732,0.73937 -0.60319,0.96472 -0.37633,0.24519 -0.7956,0.31152 -1.25781,0.19898 -0.46221,-0.11253 -0.84496,-0.40155 -1.14826,-0.86707 -0.31605,-0.48509 -0.4267,-0.97 -0.33193,-1.45472 0.0948,-0.48472 0.36512,-0.87235 0.81106,-1.1629 0.48509,-0.31605 1.00542,-0.38779 1.56097,-0.21523 0.55555,0.17258 1.11324,0.68849 1.67307,1.54773 0.56974,0.87448 0.81869,1.6109 0.74685,2.20928 -0.0718,0.59838 -0.36771,1.06694 -0.88761,1.40567 -0.37416,0.24377 -0.74136,0.34125 -1.10163,0.29244 -0.36026,-0.0488 -0.702,-0.2499 -1.0252,-0.60329 z m 0.76992,-3.35555 c -0.19275,-0.29584 -0.41025,-0.48104 -0.6525,-0.55561 -0.24226,-0.0746 -0.45257,-0.0537 -0.63095,0.0625 -0.16967,0.11055 -0.26694,0.26921 -0.29181,0.47598 -0.0249,0.20678 0.0619,0.46243 0.26034,0.76697 0.20125,0.3089 0.40991,0.49599 0.62598,0.56128 0.21606,0.0653 0.41546,0.0384 0.59819,-0.0806 0.1762,-0.1148 0.27931,-0.28114 0.30933,-0.49902 0.03,-0.21788 -0.0428,-0.46169 -0.21858,-0.73143 z"
       id="path3817" />
    <path
       inkscape:connector-curvature="0"
       d="m -120.51734,392.55679 -0.92628,0.41853 -0.25016,-0.55363 c -0.0565,0.28479 -0.16566,0.52713 -0.32747,0.72703 -0.16182,0.1999 -0.3492,0.34795 -0.56213,0.44416 -0.43297,0.19564 -0.88268,0.18873 -1.34913,-0.0207 -0.46644,-0.20947 -0.84078,-0.62651 -1.12301,-1.25113 -0.28864,-0.63881 -0.35782,-1.1923 -0.20755,-1.6605 0.15028,-0.46818 0.45491,-0.80597 0.91391,-1.01337 0.42114,-0.19029 0.86461,-0.17984 1.33041,0.0313 l -0.8467,-1.87384 0.99726,-0.45061 z m -3.5501,-0.76343 c 0.18174,0.40221 0.36884,0.6681 0.56129,0.79767 0.27848,0.18756 0.56204,0.21613 0.85069,0.0857 0.2295,-0.10369 0.38059,-0.28949 0.45328,-0.55738 0.0727,-0.26788 0.0214,-0.59584 -0.15395,-0.98386 -0.19564,-0.43296 -0.41457,-0.7094 -0.65678,-0.82931 -0.24221,-0.1199 -0.48517,-0.12479 -0.72886,-0.0147 -0.2366,0.10691 -0.39225,0.29049 -0.46696,0.55074 -0.0747,0.26026 -0.0276,0.5773 0.14129,0.95112 z"
       id="path3819" />
    <path
       inkscape:connector-curvature="0"
       d="m -117.67936,390.1362 1.08957,-0.18812 c 0,0.4237 -0.10812,0.7842 -0.32439,1.08152 -0.21626,0.29731 -0.53877,0.52115 -0.96752,0.6715 -0.67865,0.23798 -1.25866,0.19238 -1.74001,-0.13681 -0.38183,-0.26504 -0.66768,-0.66828 -0.85755,-1.20974 -0.22681,-0.6468 -0.23539,-1.21262 -0.0257,-1.69746 0.20966,-0.48483 0.57296,-0.81789 1.08991,-0.99917 0.58066,-0.20362 1.10603,-0.17256 1.57614,0.0932 0.47011,0.26572 0.83656,0.79684 1.09937,1.59334 l -2.58721,0.90726 c 0.11474,0.30367 0.28159,0.51273 0.50056,0.62716 0.21896,0.11443 0.44726,0.12998 0.68491,0.0466 0.1617,-0.0567 0.28221,-0.14849 0.36154,-0.27535 0.0793,-0.12686 0.11279,-0.29817 0.10041,-0.51393 z m -0.3072,-1.06433 c -0.11217,-0.29632 -0.26903,-0.49649 -0.47058,-0.60052 -0.20156,-0.10403 -0.40769,-0.1191 -0.61839,-0.0452 -0.2254,0.079 -0.38282,0.22641 -0.47225,0.44211 -0.0894,0.2157 -0.0835,0.46399 0.0177,0.74488 z"
       id="path3821" />
    <path
       inkscape:connector-curvature="0"
       d="m -113.88834,388.13126 c -0.0809,-0.35436 -0.0718,-0.71727 0.0271,-1.08872 0.099,-0.37145 0.28862,-0.68104 0.56894,-0.92878 0.28033,-0.24773 0.61793,-0.41667 1.0128,-0.5068 0.61001,-0.13923 1.15512,-0.0553 1.63535,0.25188 0.48021,0.30716 0.78936,0.76322 0.92745,1.36816 0.13923,0.61002 0.0578,1.16054 -0.24418,1.65157 -0.30203,0.49104 -0.75172,0.80473 -1.34908,0.94107 -0.36955,0.0844 -0.74109,0.0813 -1.1146,-0.009 -0.37351,-0.0905 -0.68442,-0.27719 -0.93274,-0.56005 -0.24831,-0.28286 -0.42533,-0.65589 -0.53106,-1.1191 z m 1.10647,-0.19264 c 0.0913,0.39993 0.25611,0.68454 0.49448,0.85383 0.23837,0.16929 0.49676,0.22215 0.7752,0.1586 0.27842,-0.0636 0.48766,-0.22316 0.6277,-0.47882 0.14004,-0.25566 0.16384,-0.58598 0.0714,-0.99098 -0.0901,-0.39486 -0.25375,-0.67708 -0.49085,-0.84666 -0.23711,-0.16957 -0.49487,-0.22258 -0.7733,-0.15903 -0.27843,0.0636 -0.4883,0.2233 -0.62961,0.47925 -0.14131,0.25595 -0.16632,0.58389 -0.075,0.98381 z"
       id="path3823" />
    <path
       inkscape:connector-curvature="0"
       d="m -105.71294,388.69501 -0.0935,-0.61211 c -0.11552,0.2409 -0.28494,0.44276 -0.50826,0.60558 -0.22331,0.16282 -0.46971,0.26482 -0.73919,0.306 -0.27462,0.042 -0.53022,0.0193 -0.7668,-0.068 -0.23658,-0.0873 -0.42031,-0.23256 -0.55117,-0.43581 -0.13086,-0.20325 -0.2257,-0.49736 -0.28453,-0.88233 l -0.39532,-2.58702 1.08178,-0.16531 0.28707,1.87867 c 0.0879,0.5749 0.16157,0.92411 0.22115,1.04763 0.0596,0.12353 0.14778,0.21512 0.26457,0.27475 0.1168,0.0596 0.25604,0.0771 0.41773,0.0524 0.18479,-0.0282 0.34258,-0.10422 0.47338,-0.22795 0.1308,-0.12373 0.21167,-0.26478 0.24263,-0.42316 0.031,-0.15837 0.002,-0.53014 -0.0877,-1.1153 l -0.26354,-1.72468 1.08177,-0.1653 0.62475,4.08841 z"
       id="path3825" />
    <path
       inkscape:connector-curvature="0"
       d="m -102.09338,384.12868 0.0854,0.86815 -0.74414,0.0732 0.16325,1.6588 c 0.0331,0.3359 0.0594,0.53092 0.0791,0.58507 0.0197,0.0542 0.0565,0.0968 0.11043,0.12806 0.0539,0.0312 0.11709,0.0433 0.18943,0.0361 0.10077,-0.01 0.24332,-0.0592 0.42766,-0.14774 l 0.17616,0.83574 c -0.24253,0.13344 -0.52399,0.21593 -0.84438,0.24746 -0.19637,0.0193 -0.37661,0.004 -0.5407,-0.0466 -0.1641,-0.0504 -0.28811,-0.12426 -0.37205,-0.22166 -0.0839,-0.0974 -0.14889,-0.23384 -0.19485,-0.40933 -0.0357,-0.12431 -0.0725,-0.37896 -0.1104,-0.76395 l -0.17659,-1.79445 -0.49997,0.0492 -0.0854,-0.86815 0.49996,-0.0492 -0.0805,-0.81777 1.03039,-0.74317 0.14303,1.45339 z"
       id="path3827" />
    <path
       inkscape:connector-curvature="0"
       d="m -98.203776,388.04463 -0.02877,-0.61854 c -0.14017,0.22744 -0.32984,0.4104 -0.569009,0.54888 -0.239175,0.13849 -0.494918,0.21406 -0.767231,0.22673 -0.277503,0.0129 -0.529314,-0.0365 -0.755424,-0.1481 -0.22612,-0.11164 -0.39358,-0.27539 -0.50239,-0.49125 -0.1088,-0.21586 -0.17225,-0.5183 -0.19035,-0.90732 l -0.1216,-2.61423 1.09315,-0.0508 0.08831,1.89843 c 0.02702,0.58094 0.06368,0.93596 0.109971,1.06506 0.04629,0.1291 0.12438,0.22943 0.234273,0.30099 0.10989,0.0716 0.24653,0.10354 0.409921,0.0959 0.186727,-0.009 0.351624,-0.0677 0.494689,-0.17701 0.14306,-0.10931 0.238295,-0.2411 0.285703,-0.39535 0.0474,-0.15425 0.05735,-0.52703 0.02985,-1.11835 l -0.08107,-1.74281 1.09315,-0.0509 0.192176,4.1314 z"
       id="path3829" />
    <path
       inkscape:connector-curvature="0"
       d="m -96.09621,387.98152 0.107224,-5.70821 1.094139,0.0206 -0.03862,2.05589 c 0.344671,-0.37783 0.748036,-0.56242 1.210094,-0.55374 0.503586,0.009 0.91679,0.19965 1.239612,0.57055 0.322814,0.37091 0.477811,0.89771 0.464992,1.58041 -0.01327,0.70606 -0.191562,1.24673 -0.534885,1.622 -0.34333,0.37527 -0.755107,0.5584 -1.23533,0.54938 -0.236223,-0.004 -0.468088,-0.0679 -0.695597,-0.1903 -0.227514,-0.12242 -0.422166,-0.30071 -0.583957,-0.53486 l -0.01141,0.60742 z m 1.126871,-2.13672 c -0.008,0.42831 0.05349,0.74627 0.184628,0.95388 0.184032,0.29429 0.433095,0.44438 0.747192,0.45028 0.241409,0.005 0.449066,-0.0948 0.622971,-0.29796 0.1739,-0.20317 0.26502,-0.5267 0.273362,-0.97058 0.0089,-0.47244 -0.07039,-0.81475 -0.237787,-1.02694 -0.167402,-0.21218 -0.384786,-0.32078 -0.652153,-0.3258 -0.26218,-0.005 -0.482143,0.0929 -0.659889,0.29337 -0.177749,0.2005 -0.270524,0.50842 -0.278324,0.92375 z"
       id="path3831" />
    <path
       inkscape:connector-curvature="0"
       d="m -90.13106,388.20406 -1.091445,-0.0794 0.300217,-4.12496 1.013762,0.0738 -0.04269,0.5865 c 0.193655,-0.26443 0.362954,-0.43563 0.507898,-0.5136 0.14494,-0.0779 0.305452,-0.11052 0.481536,-0.0977 0.248582,0.0181 0.48311,0.10415 0.703584,0.25816 l -0.40718,0.92702 c -0.175183,-0.13249 -0.341751,-0.20449 -0.499703,-0.21599 -0.152779,-0.0111 -0.285313,0.0215 -0.397602,0.098 -0.112294,0.0764 -0.206875,0.22248 -0.283744,0.43815 -0.07687,0.21568 -0.140844,0.67438 -0.191914,1.37612 z"
       id="path3833" />
    <path
       inkscape:connector-curvature="0"
       d="m -88.062436,386.21802 c 0.04652,-0.36049 0.180381,-0.69793 0.401582,-1.01232 0.221199,-0.31438 0.506127,-0.53939 0.854785,-0.67503 0.348654,-0.13563 0.723826,-0.17753 1.125517,-0.1257 0.620554,0.0801 1.1031,0.3472 1.447639,0.80135 0.344531,0.45415 0.477089,0.98893 0.397676,1.60433 -0.08009,0.62056 -0.346662,1.10907 -0.799727,1.46552 -0.453073,0.35646 -0.983449,0.49547 -1.591128,0.41705 -0.375942,-0.0485 -0.723534,-0.17976 -1.042779,-0.39373 -0.319248,-0.21397 -0.546523,-0.49658 -0.681824,-0.84781 -0.135304,-0.35123 -0.17255,-0.76245 -0.111741,-1.23366 z m 1.104892,0.20148 c -0.0525,0.40684 0.0038,0.73087 0.169058,0.97208 0.165205,0.24122 0.389429,0.3801 0.672673,0.41666 0.28324,0.0365 0.534733,-0.0409 0.75448,-0.23248 0.219741,-0.19154 0.356197,-0.4933 0.409367,-0.90529 0.05183,-0.40169 -0.0042,-0.72306 -0.168123,-0.96411 -0.163923,-0.24105 -0.387504,-0.37985 -0.670742,-0.4164 -0.283245,-0.0366 -0.535382,0.0409 -0.756411,0.23223 -0.221034,0.19137 -0.357801,0.49048 -0.410302,0.89731 z"
       id="path3835" />
    <path
       inkscape:connector-curvature="0"
       d="m -77.388387,390.31181 -0.988854,-0.23521 0.140585,-0.59104 c -0.218853,0.19079 -0.453412,0.31581 -0.703679,0.37504 -0.250272,0.0592 -0.489068,0.0618 -0.716388,0.008 -0.462225,-0.10994 -0.813837,-0.3904 -1.054837,-0.84136 -0.241002,-0.45096 -0.282198,-1.00984 -0.123588,-1.67666 0.162213,-0.68196 0.445915,-1.16224 0.851105,-1.44081 0.405187,-0.27858 0.852785,-0.35959 1.342795,-0.24304 0.44959,0.10695 0.794106,0.38638 1.033548,0.8383 l 0.475828,-2.00044 1.064629,0.25323 z m -2.342277,-2.77484 c -0.102137,0.42939 -0.116678,0.75418 -0.04362,0.97438 0.105666,0.31869 0.312574,0.51469 0.620725,0.58798 0.245001,0.0583 0.478163,0.004 0.699486,-0.16387 0.221317,-0.16753 0.381242,-0.4584 0.479776,-0.87264 0.109941,-0.46222 0.105744,-0.81482 -0.01259,-1.0578 -0.118343,-0.24298 -0.307592,-0.39541 -0.567747,-0.4573 -0.252584,-0.0601 -0.488002,-0.01 -0.706254,0.15026 -0.218258,0.16025 -0.374848,0.43991 -0.469771,0.83899 z"
       id="path3837" />
    <path
       inkscape:connector-curvature="0"
       d="m -73.662803,390.08401 0.983045,0.50614 c -0.255208,0.33821 -0.558669,0.56085 -0.910383,0.66791 -0.35172,0.10706 -0.743982,0.0915 -1.176786,-0.0468 -0.685074,-0.21882 -1.120586,-0.60458 -1.306537,-1.15729 -0.145141,-0.44156 -0.130422,-0.93562 0.04416,-1.4822 0.208547,-0.65291 0.542519,-1.10974 1.001918,-1.37047 0.459395,-0.26072 0.950014,-0.30775 1.471859,-0.14107 0.586141,0.18722 0.986812,0.52847 1.202015,1.02375 0.215194,0.49527 0.187796,1.13996 -0.08219,1.93406 l -2.611683,-0.83419 c -0.09133,0.31152 -0.08406,0.57889 0.0218,0.80213 0.105853,0.22323 0.27873,0.37316 0.518631,0.44978 0.163228,0.0521 0.314709,0.0515 0.454443,-0.002 0.139729,-0.0535 0.269634,-0.17007 0.389717,-0.34976 z m 0.395876,-1.03462 c 0.08895,-0.30409 0.08431,-0.55837 -0.01391,-0.76281 -0.09823,-0.20444 -0.253694,-0.34063 -0.466385,-0.40857 -0.227535,-0.0727 -0.441961,-0.0499 -0.643276,0.0684 -0.20132,0.11831 -0.346165,0.32007 -0.434534,0.60527 z"
       id="path3839" />
    <path
       inkscape:connector-curvature="0"
       d="m -67.73903,393.88839 -0.993956,-0.45783 1.725446,-3.74591 c -0.519571,0.1723 -1.063254,0.2263 -1.631051,0.16199 l 0.415476,-0.90199 c 0.298496,0.0346 0.654427,0.003 1.067794,-0.0934 0.41336,-0.0969 0.749413,-0.27723 1.00816,-0.54109 l 0.806483,0.37148 z"
       id="path3841" />
    <path
       inkscape:connector-curvature="0"
       d="m -65.573635,393.46875 0.974077,0.43232 c -0.08605,0.19926 -0.108111,0.37121 -0.06617,0.51583 0.04193,0.14463 0.140296,0.26204 0.295085,0.35222 0.195163,0.11371 0.413447,0.1207 0.654853,0.021 0.2414,-0.0997 0.545856,-0.42115 0.913368,-0.96423 -0.398557,0.13738 -0.776174,0.10216 -1.132854,-0.10566 -0.38809,-0.22612 -0.635655,-0.57093 -0.742696,-1.03445 -0.107045,-0.46351 -0.02071,-0.93529 0.258994,-1.41536 0.291466,-0.50025 0.675023,-0.81689 1.150671,-0.94992 0.475642,-0.13302 0.943401,-0.0656 1.403279,0.20238 0.500247,0.29147 0.798036,0.72414 0.893367,1.29801 0.09532,0.57387 -0.115155,1.30386 -0.631429,2.18996 -0.525433,0.9018 -1.071597,1.45497 -1.638495,1.65953 -0.566905,0.20456 -1.118428,0.15064 -1.65457,-0.16174 -0.385847,-0.22481 -0.637866,-0.50912 -0.756059,-0.85292 -0.118196,-0.34381 -0.092,-0.73946 0.07858,-1.18694 z m 3.343873,-0.81916 c 0.177753,-0.30508 0.245542,-0.58259 0.203369,-0.83253 -0.04218,-0.24994 -0.155245,-0.42849 -0.33919,-0.53567 -0.174981,-0.10195 -0.360424,-0.1176 -0.556332,-0.0469 -0.195916,0.0707 -0.385364,0.26301 -0.568346,0.57706 -0.185602,0.31855 -0.259048,0.58901 -0.220339,0.81138 0.0387,0.22238 0.152274,0.38846 0.340713,0.49825 0.181703,0.10587 0.376632,0.12329 0.584788,0.0523 0.208148,-0.071 0.393261,-0.24563 0.555337,-0.5238 z"
       id="path3843" />
    <path
       inkscape:connector-curvature="0"
       d="m -60.187867,398.53121 -0.877499,-0.65388 2.464261,-3.30702 c -0.543998,0.0609 -1.087068,10e-4 -1.629212,-0.17954 l 0.593378,-0.7963 c 0.284847,0.0957 0.639505,0.13899 1.063974,0.12988 0.424461,-0.009 0.790595,-0.11591 1.098405,-0.32041 l 0.711992,0.53055 z"
       id="path3845" />
    <path
       inkscape:connector-curvature="0"
       d="m -55.541154,401.40577 -0.712894,0.72452 -2.734325,-2.69042 c 0.299107,-0.24476 0.643323,-0.41691 1.032649,-0.51645 0.389323,-0.0995 1.001752,-0.13707 1.83729,-0.11263 0.673923,0.0184 1.108034,0.008 1.302335,-0.0298 0.265754,-0.0554 0.476022,-0.16174 0.630806,-0.31905 0.171162,-0.17396 0.255996,-0.35364 0.2545,-0.53906 -0.0015,-0.18541 -0.08461,-0.35915 -0.249311,-0.52122 -0.162862,-0.16024 -0.340661,-0.23866 -0.533399,-0.23526 -0.192747,0.003 -0.408508,0.11162 -0.647284,0.32468 l -0.700791,-0.84252 c 0.468719,-0.38382 0.917179,-0.54901 1.345381,-0.49556 0.428194,0.0534 0.825507,0.26044 1.19194,0.62098 0.401583,0.39515 0.610593,0.81388 0.62703,1.2562 0.01642,0.44232 -0.13378,0.82449 -0.450616,1.1465 -0.180278,0.18321 -0.384749,0.32531 -0.613415,0.4263 -0.228676,0.10099 -0.503487,0.17206 -0.824433,0.21321 -0.212747,0.0274 -0.553263,0.0329 -1.021548,0.0165 -0.468292,-0.0164 -0.771704,-0.0199 -0.910236,-0.0105 -0.138538,0.009 -0.26276,0.0292 -0.372667,0.0595 z"
       id="path3847" />
  </g>
</svg>
