<?xml version="1.0" encoding="utf-8"?>
<!-- Generator: Adobe Illustrator 26.0.3, SVG Export Plug-In . SVG Version: 6.00 Build 0)  -->
<svg version="1.1" id="Camada_1" xmlns="http://www.w3.org/2000/svg" xmlns:xlink="http://www.w3.org/1999/xlink" x="0px" y="0px"
	 viewBox="0 0 56 56" style="enable-background:new 0 0 56 56;" xml:space="preserve">
<style type="text/css">
	.st0{display:none;fill:#3661FC;}
	.st1{fill:#3661FC;}
	.st2{fill:#FFFFFF;}
</style>
<path class="st0" d="M48,56H8c-4.4,0-8-3.6-8-8V8c0-4.4,3.6-8,8-8h40c4.4,0,8,3.6,8,8v40C56,52.4,52.4,56,48,56z"/>
<rect y="0" class="st1" width="56" height="56"/>
<path class="st2" d="M41.6,27.5c-0.2-2.4-0.8-4.8-1.5-7.1c-0.6-2.2-1.8-4-3.2-5.7c-0.3-0.3-0.5-0.5-0.9-0.8c0.1,0.4,0.3,0.5,0.4,0.7
	c0.4,0.5,0.8,1.1,1.2,1.6l0,0l-0.1,0.1l0,0c-0.1,0-0.1,0-0.3-0.1c0.2,0.4,0.4,0.8,0.6,1.2c0.7,1.1,1.3,2.3,1.7,3.6
	c0.2,0.5,0,1.3-0.4,1.5c0-0.1-0.1-0.1-0.1-0.2c-0.6-1.9-1.5-3.7-2.6-5.4c-0.2-0.3-0.4-0.4-0.3-0.9c0-0.1-0.1-0.2-0.1-0.2
	c-0.1-0.2-0.3-0.4-0.4-0.5c-0.5-0.7-1-1.4-1.6-2.1c-0.2-0.2-0.4-0.4-0.8-0.4c-0.2,0-0.2,0-0.3-0.2c-0.6-1-1.5-1.7-2.4-2.4
	c-0.4-0.3-0.7-0.4-1.1-0.1c-0.2-0.7-0.2-0.7-0.9-0.8c-0.1,0-0.2,0-0.2,0c-0.9,0-1.9-0.1-2.7,0.4c-0.4,0.2-0.5,0.2-0.8,0.1
	c-0.7-0.3-1.4-0.4-2.2-0.5c-0.3,0-0.4-0.1-0.8,0.1c0.8,0.4,1.7,0.6,2.6,1c-0.4,0.3-0.6,0.4-0.9,0.7c-0.2,0.2-0.4,0.2-0.5,0.1
	c-0.7-0.3-1.5-0.4-2.3-0.2c-0.3,0.1-0.6,0.1-0.9,0.1l0,0c0,0,0,0,0-0.1c-0.1,0-0.2,0-0.2,0.1s0.1,0.1,0.1,0.1l0,0l0,0
	c0.9,0.2,1.8,0.2,2.7,0.5c0.1,0,0.3,0.1,0.3,0.3l0,0c-0.1,0.1-0.2,0.1-0.3,0.1c-0.5,0-1.1-0.2-1.6,0.2c0.8,0.4,1.7,0.4,2.5,0.6l0,0
	c0.2,0.2,0.4,0,0.5,0.3l0,0c0,0,0,0,0,0.1c-0.2,0.1-0.4,0.3-0.6,0.4c0,0,0,0-0.1,0c0,0,0,0,0-0.1c-0.1,0-0.3-0.1-0.4-0.1l0,0
	c-1.3-0.6-2.5-1-3.9-1.3c-0.1,0-0.3-0.1-0.4,0.1c1.3,0.7,2.7,0.9,4,1.7c-0.6,0.3-1.2-0.4-1.8-0.1c0.3,0.2,0.5,0.4,0.9,0.4
	c0,0.1,0.1,0.3-0.1,0.4l0,0l0,0c-0.1,0-0.1,0-0.2-0.1l0,0l0,0c-1.9-0.8-3.8-1.2-5.7-0.7c1.9,0.2,3.6,0.6,5.2,1.3l0,0
	c-0.1,0-0.1,0-0.2,0.1c-0.1,0-0.2,0-0.2-0.1c-0.8-0.3-1.7-0.4-2.6-0.4c-0.2,0-0.4,0-0.4,0.2s0.2,0.2,0.3,0.2
	c0.7,0.3,1.5,0.4,2.2,0.6c0.2,0,0.4,0,0.4,0.2h0.1l-0.1,0.1c-1.1,0.8-2.2,1.5-3.3,2.3c-0.2,0.1-0.2,0.2-0.3,0.4
	c-0.2,1.1,0,2.1,0.8,2.8c0.2,0.2,0.4,0.3,0.6,0.4c0.4,0,0.9,0.1,1.3,0.1c0.1,0,0.3,0,0.4,0c0.7-0.4,1.4-0.7,2-1.3
	c0.2-0.2,0.4-0.2,0.6-0.2c0.7,0.2,1.3,0.3,2.1,0.3c0.5-0.1,0.7,0.1,0.8,0.5c0.2,0.7-0.1,1.3-0.5,1.8c-0.5,0.6-1.3,1.1-1.9,1.7
	c-0.8,0.7-1.7,1.4-1.9,2.7c0,0.1-0.1,0.1-0.1,0.2c-0.4,0.3-0.6,0.7-0.4,1.3c0,0.1,0,0.2,0,0.3c-1.1,1.4-1.2,3-0.7,4.6
	c0.1,0.3,0.2,0.4,0.5,0.4c1.6,0,3.2,0,4.9,0c2.7,0,5.4,0,8.1-0.1c0.3,0,0.4,0.1,0.4,0.4c0,0.4-0.3,0.2-0.4,0.2c-3.9,0-7.6,0-11.5,0
	c-0.5,0-1.1,0-1.7,0c-0.2,0-0.3,0.1-0.3,0.3s-0.2,0.4,0.2,0.4c0.7,0.1,1.3,0.4,2,0.6c0.7,0.3,1.3,0.6,1.9,1.3
	c0.4,0.4,0.5,0.8,0.4,1.3c-0.2,0.5-0.7,0.9-1.2,1.3c-1.4,0.8-3.1,1.1-4.8,1.2c-0.3,0-0.3,0.1-0.3,0.4c0,1.2,0,2.3,0,3.4
	c0,0.3,0.1,0.4,0.4,0.4c5.7,0,11.3,0,17,0c0.3,0,0.4-0.1,0.4-0.4c0-1.2,0-2.2,0-3.4c0-0.3-0.1-0.4-0.4-0.4c-1.2,0-2.2-0.2-3.3-0.6
	c-0.8-0.3-1.6-0.6-2.2-1.3s-0.6-1.5,0.1-2.2c0.1-0.1,0.3-0.2,0.4-0.4c1-0.6,2.2-1,3.3-1.3c0.2,0,0.2,0,0.3,0.2
	c0.1,0.4,0.2,0.9,0.2,1.3c0,0.9,0,1.8,0.3,2.7c0.1,0.4,0.3,0.5,0.5,0.6c0.4,0.2,0.9,0.1,1.3-0.3c0.4-0.4,0.6-0.9,0.8-1.4
	c0.6-2,0.9-4,1.2-6.1l0.1,0.1l0,0c0.1,0.3,0.2,0.6,0.4,0.9c0.3,0.4,0.5,0.6,1.1,0.5c0.4-0.1,0.7-0.3,0.9-0.6
	c0.3-0.4,0.4-0.7,0.4-1.2C41.8,30.7,41.8,29,41.6,27.5z M23.9,19.5c-0.5-0.3-0.9-0.1-1.2,0.4c0.1-0.4,0.1-0.9-0.5-0.9
	c0.6-0.1,0.8-0.4,0.8-1c0.2,0.5,0.5,0.5,1,0.4C23.6,18.8,23.4,19.1,23.9,19.5z M26.5,25.2C26,25,25.6,25,25.4,25.5
	c-0.2,0-0.1-0.1-0.1-0.2c0.2-0.5-0.2-0.6-0.6-0.8c0.6-0.1,0.9-0.4,0.8-1.1c0.2,0.6,0.5,0.7,1.1,0.4C26.2,24.3,26,24.7,26.5,25.2z
	 M28,20.1c0.2,0.3,0.4,0.5,0.5,0.8c-0.4,0-0.6-0.1-0.9-0.3c-0.3-0.1-0.4-0.1-0.6,0.2s-0.4,0.5-0.5,0.7c-0.1,0-0.1-0.1-0.1-0.2
	c0-0.3,0-0.6,0.1-0.9c0-0.2,0-0.3-0.2-0.4c-0.3-0.1-0.6-0.2-1-0.4c0.4-0.2,0.7-0.3,1.1-0.4c0.2-0.1,0.3-0.2,0.3-0.4
	c0-0.4,0.1-0.7,0.1-1.2c0.3,0.4,0.4,0.6,0.5,0.9c0.1,0.2,0.2,0.2,0.4,0.1c0.3-0.1,0.6-0.2,1-0.3c-0.2,0.3-0.4,0.5-0.6,0.8
	C27.9,19.9,27.9,19.9,28,20.1z M29.1,16.6c0.1-0.5-0.1-0.9-0.6-0.9c0.2-0.2,0.5-0.2,0.6-0.4c0.2-0.2,0-0.4,0.1-0.7
	c0.3,0.5,0.5,0.7,1.1,0.4c-0.4,0.4-0.4,0.8,0,1.2C29.9,16,29.4,16.1,29.1,16.6z M31.6,21.3c-0.2,0.1-0.3,0.4-0.4,0.5
	c-0.2,0-0.1-0.2-0.1-0.2c0.2-0.6-0.4-0.6-0.8-0.8c0.7-0.1,1-0.4,0.9-1c0.3,0.5,0.5,0.8,1.2,0.4c-0.4,0.4-0.5,0.8,0.1,1.3
	C32,21.5,31.8,21.2,31.6,21.3z M36.4,28c-0.1-0.4-0.1-0.6-0.2-0.9c0-0.1-0.1-0.2,0-0.2s0.2,0,0.2,0.1C36.9,27.4,36.9,27.5,36.4,28z"
	/>
</svg>
