<?xml version="1.0" encoding="UTF-8" standalone="no"?>
<!-- Created with Inkscape (http://www.inkscape.org/) -->
<svg
   xmlns:svg="http://www.w3.org/2000/svg"
   xmlns="http://www.w3.org/2000/svg"
   version="1.0"
   width="499.99997"
   height="333"
   id="svg2">
  <defs
     id="defs4" />
  <g
     transform="translate(-3.362948e-6,-719.36218)"
     id="layer1">
    <g
       transform="matrix(0.9960159,0,0,1,-461.43994,759.21428)"
       id="g3233">
      <path
         d="M 463.28572,126.6479 L 463.28572,-39.8521 L 714.28572,-39.8521 L 965.28572,-39.8521 L 965.28572,126.6479 L 965.28572,293.1479 L 714.28572,293.1479 L 463.28572,293.1479 L 463.28572,126.6479 z "
         style="fill:#eef6f8"
         id="path2251" />
      <path
         d="M 463.28572,126.6479 L 463.28572,-39.8521 L 714.28572,-39.8521 L 965.28572,-39.8521 L 965.28572,126.6479 L 965.28572,293.1479 L 714.28572,293.1479 L 463.28572,293.1479 L 463.28572,126.6479 z M 717.71429,241.57647 C 718.86081,240.42995 719.28572,237.99638 719.28572,232.57647 C 719.28572,226.91832 719.61541,225.1479 720.66909,225.1479 C 722.41849,225.1479 723.25466,228.24065 723.27207,234.77546 C 723.28086,238.07648 723.81473,240.34205 724.77079,241.13551 C 726.38613,242.47613 740.53595,242.231 741.92868,240.83827 C 742.35634,240.41062 741.93284,237.04283 740.98758,233.35431 C 740.04232,229.66578 739.2727,225.8229 739.27732,224.81457 C 739.29432,221.10369 741.84899,223.97748 744.0864,230.22436 C 747.4411,239.59073 747.94937,239.90632 754.70133,236.81516 C 757.7863,235.40282 760.58762,233.52472 760.92651,232.64161 C 761.26539,231.7585 760.38334,228.90592 758.9664,226.30254 C 754.51716,218.12781 749.17923,205.18604 743.84793,189.6479 C 741.01727,181.3979 738.27028,174.69691 737.7435,174.75681 C 737.21672,174.81672 735.82599,179.00145 734.65299,184.05621 C 732.40272,193.7532 731.80065,195.09003 730.36317,193.58123 C 729.48212,192.65646 734.36279,168.7375 735.70679,167.3935 C 736.07523,167.02506 737.23312,167.25847 738.27989,167.91218 C 739.91662,168.93434 740.71512,168.97391 742.80693,166.63032 C 745.0145,164.15704 745.69096,164.97821 747.36749,165.70146 C 748.62771,166.24512 749.58143,164.88565 752.5399,164.11099 C 758.16988,162.6368 770.28572,155.44807 770.28572,153.5818 C 770.28572,152.76957 769.07682,150.27825 767.59927,148.04552 C 764.83797,143.87292 764.5883,143.80786 758.53572,145.6838 C 754.48458,146.93941 756.10482,144.32533 761.53572,140.84362 C 768.52509,136.36278 777.01106,127.02473 781.14351,119.26697 C 783.55206,114.74546 784.80723,113.26941 785.5835,114.04568 C 786.35976,114.82194 786.17278,116.16152 784.92208,118.78426 C 783.9631,120.79528 783.5401,122.78519 783.9821,123.20629 C 784.72443,123.91353 792.6627,124.99103 799.78572,125.35139 C 803.20679,125.52447 813.38751,121.82352 824.09696,116.51365 C 833.01637,112.0913 841.50772,104.54958 843.67991,99.12074 C 844.95351,95.9377 845.93981,94.96708 848.40086,94.47487 C 853.16524,93.522 858.81181,87.51502 860.59092,81.50676 C 861.42821,78.67913 863.25083,74.62913 864.64119,72.50676 C 867.68399,67.86193 869.68921,60.35041 869.04964,55.99275 C 868.79283,54.24302 869.1909,50.79061 869.93422,48.32073 C 871.57643,42.86408 871.70635,36.1479 870.1697,36.1479 C 869.55588,36.1479 866.96838,37.65084 864.4197,39.48777 C 861.87101,41.32469 856.97322,44.53865 853.53572,46.6299 C 850.09822,48.72115 847.28572,51.01828 847.28572,51.73463 C 847.28572,52.45099 845.76768,56.36821 843.91231,60.43957 C 841.56377,65.59308 838.48887,70.01517 833.79118,74.99497 C 830.07994,78.92908 826.64797,82.1479 826.16459,82.1479 C 823.89148,82.1479 825.85549,78.72722 832.03572,71.92226 C 838.40308,64.91125 844.37235,54.9012 843.00264,53.53149 C 842.66041,53.18926 839.3216,53.60963 835.58306,54.46564 C 831.84453,55.32165 824.91104,56.27314 820.17532,56.58007 C 809.66539,57.26122 804.72952,58.91896 796.28572,64.60356 C 788.72142,69.69605 785.34302,73.14027 778.88815,82.34006 C 772.81077,91.00183 764.87158,98.19747 756.48649,102.64368 C 744.84771,108.81515 736.19451,116.43254 733.97244,122.46273 C 732.07849,127.60249 727.43634,104.35652 727.31957,89.1479 C 727.25615,80.88777 725.67468,73.76691 722.54464,67.6479 C 716.90817,56.62896 707.54448,55.71262 703.23829,65.75856 C 701.49367,69.82858 701.45399,70.47508 702.82077,72.56105 C 703.65145,73.82882 703.15743,75.419279 703.70708,76.49223 C 704.19044,77.435791 704.10103,79.32813 705.6844,81.20986 C 710.436,86.85681 709.63058,90.16182 698.99787,108.6479 C 696.4671,113.0479 693.67217,117.96436 692.78691,119.57336 L 691.17734,122.49882 L 689.10208,119.08633 C 687.96069,117.20946 684.2872,112.29301 680.93877,108.16087 C 673.25078,98.6735 660.38313,82.99337 655.56821,77.24507 C 648.34351,68.61985 631.46676,60.00707 618.128,58.13806 C 596.85027,55.15665 581.61398,47.79584 562.31789,31.1756 C 557.83034,27.31037 553.76762,24.1479 553.28961,24.1479 C 550.87888,24.1479 551.27223,31.21296 554.72523,49.93355 C 556.47692,59.43045 557.41846,61.60028 561.4111,65.34153 C 563.3585,67.16632 564.28572,69.01761 564.28572,71.08101 C 564.28572,75.68026 569.21105,87.15383 571.67628,88.29733 C 572.83647,88.83549 575.71034,92.29007 578.06266,95.97417 C 583.86816,105.06653 593.86883,113.04515 607.78572,119.68749 C 613.83572,122.57508 620.58572,125.3904 622.78572,125.94377 C 629.01303,127.51013 642.47381,127.22877 644.42896,125.49138 C 645.90514,124.17961 646.82015,124.77765 653.42896,131.3736 C 657.47518,135.41195 663.84578,140.69047 667.58585,143.10364 C 674.09596,147.3041 674.37318,147.64384 674.08585,151.06956 C 673.80826,154.37916 673.39227,154.79811 668.54684,156.6479 C 665.66545,157.7479 663.30295,159.14895 663.29684,159.76134 C 663.28178,161.26959 675.09758,166.48123 678.53215,166.48123 C 681.63932,166.48123 681.74724,166.87546 680.12356,172.29481 C 679.06274,175.8355 679.16515,176.39065 681.29787,178.66083 C 682.13562,179.55257 683.19447,180.33863 684.13253,180.7778 C 684.36578,180.887 684.62118,180.97476 684.82936,181.03736 C 685.06821,181.10919 685.28647,181.1479 685.47473,181.1479 C 688.1321,181.1479 691.4457,175.30029 690.71633,171.8979 C 690.27489,169.83866 690.51138,169.1479 691.65783,169.1479 C 694.04154,169.1479 701.16049,184.58268 701.92016,191.3979 C 702.44879,196.14052 702.29674,197.1479 701.05223,197.1479 C 699.99283,197.1479 699.34192,195.62919 698.86704,192.0494 C 698.04229,185.83209 695.40247,178.94232 694.02145,179.40266 C 693.46384,179.58853 691.69353,183.31974 690.08741,187.69425 C 688.48129,192.06876 686.75862,196.06065 686.25924,196.56512 C 684.71886,198.12121 684.00259,194.39885 685.18804,190.99826 C 687.38088,184.70787 685.49532,187.31369 680.56764,197.3836 C 677.80509,203.02896 672.07131,212.82134 667.82589,219.14443 C 662.06823,227.71985 660.34715,231.02173 661.05228,232.13959 C 662.4121,234.29535 670.96064,238.48662 672.66431,237.83286 C 673.45693,237.5287 674.83494,234.66266 675.72654,231.46387 C 678.13541,222.82159 679.19733,220.65951 680.42848,221.89066 C 681.15784,222.62002 680.98678,225.30089 679.86467,230.72685 C 678.83237,235.71851 678.5996,238.86178 679.21655,239.47873 C 679.74604,240.00822 683.53876,240.65704 687.64481,240.92055 L 695.11035,241.39966 L 695.77455,235.52378 C 697.21381,222.79132 699.78572,221.44539 699.78572,233.42466 C 699.78572,239.24491 700.16309,241.44241 701.28572,242.15934 C 703.84589,243.79432 715.925,243.36576 717.71429,241.57647 z M 748.28572,123.93268 C 748.28572,120.46614 757.15566,112.67639 763.40344,110.656 C 773.99444,107.23112 780.68057,101.75156 788.99495,89.6827 C 793.70261,82.84922 801.06427,76.1479 803.86346,76.1479 C 806.49261,76.1479 805.31761,78.02988 800.70865,81.20093 C 798.18995,82.93383 794.50953,86.8857 792.52475,89.98841 C 785.10446,101.58818 775.69039,109.74019 765.77589,113.15128 C 759.50712,115.30806 754.23787,119.00027 752.32333,122.57763 C 750.52691,125.93426 748.28572,126.68642 748.28572,123.93268 z M 658.58063,108.78565 C 654.29343,103.63641 649.11797,97.38683 647.07961,94.8977 C 641.83448,88.49263 632.8514,82.85169 622.21673,79.28501 C 612.41054,75.99618 603.28572,70.81881 603.28572,68.54365 C 603.28572,66.53552 604.23254,66.7887 609.28572,70.1481 C 611.76072,71.7935 617.92273,74.52019 622.97907,76.20741 C 633.76392,79.80614 642.02598,84.89261 648.28572,91.78723 C 655.53268,99.7692 667.75795,115.13547 668.10904,116.7037 C 668.85557,120.03824 665.91468,117.59437 658.58063,108.78565 z M 596.54586,72.88424 C 593.83853,69.43922 589.29745,64.84676 586.45458,62.67875 C 581.25478,58.71333 580.54351,57.72465 582.16818,56.72054 C 584.63901,55.19349 603.28572,73.75156 603.28572,77.7377 C 603.28572,80.43902 601.43634,79.10726 596.54586,72.88424 z M 710.28572,72.1479 C 709.18572,71.0479 708.28572,69.4729 708.28572,68.6479 C 708.28572,67.8229 709.18572,66.2479 710.28572,65.1479 C 711.38572,64.0479 712.96072,63.1479 713.78572,63.1479 C 714.61072,63.1479 716.18572,64.0479 717.28572,65.1479 C 718.38572,66.2479 719.28572,67.8229 719.28572,68.6479 C 719.28572,69.4729 718.38572,71.0479 717.28572,72.1479 C 716.18572,73.2479 714.61072,74.1479 713.78572,74.1479 C 712.96072,74.1479 711.38572,73.2479 710.28572,72.1479 z M 714.53572,68.73123 C 714.67322,68.22707 714.22322,67.62707 713.53572,67.3979 C 712.84822,67.16873 712.28572,67.73123 712.28572,68.6479 C 712.28572,70.34125 714.07851,70.40765 714.53572,68.73123 z M 661.09926,156.93436 C 661.7667,156.26692 664.21523,155.01807 666.54042,154.15915 C 672.43674,151.98107 672.37459,150.05512 666.28183,146.14541 C 661.85969,143.30772 660.85326,143.02391 658.69687,144.00643 C 657.32941,144.62949 653.73627,145.43007 650.71212,145.7855 C 647.38457,146.17658 645.35209,146.86923 645.56427,147.53982 C 645.952,148.76523 657.96252,158.1479 659.1434,158.1479 C 659.55168,158.1479 660.43181,157.60181 661.09926,156.93436 z M 777.95621,148.75491 C 780.48565,146.57918 780.6196,146.14029 779.43169,143.92065 C 778.7131,142.57796 777.10848,140.20434 775.86586,138.64595 L 773.60656,135.81252 L 770.98864,137.73021 C 769.54878,138.78494 768.15646,140.16939 767.89458,140.80676 C 767.33108,142.17823 772.80714,151.1479 774.20793,151.1479 C 774.73938,151.1479 776.4261,150.07106 777.95621,148.75491 z M 656.70868,141.12494 C 657.39386,140.43976 656.22286,138.61135 653.09674,135.48524 C 648.55513,130.94362 648.3327,130.85054 640.87832,130.37215 C 631.83229,129.79161 631.61933,130.21106 636.9963,138.01818 L 640.70688,143.40577 L 648.20083,142.7723 C 652.32251,142.42389 656.15104,141.68258 656.70868,141.12494 z M 785.98334,139.8979 C 790.17894,135.28455 793.63222,129.0944 792.59108,128.05326 C 792.03345,127.49563 788.96995,127.17631 785.78329,127.34365 C 780.87862,127.6012 779.68925,128.05112 778.034,130.27506 C 776.14216,132.81689 776.13682,132.99554 777.86967,135.77506 C 780.20852,139.52662 782.42831,142.1479 783.26639,142.1479 C 783.63528,142.1479 784.85791,141.1354 785.98334,139.8979 z "
         style="fill:#007ec3;fill-opacity:1"
         id="path2249" />
      <path
         d="M 690.83234,89.22334 C 690.50698,88.69688 690.36338,85.76759 690.51324,82.7138 C 690.75673,77.75213 691.15273,70.464301 693.11063,70.458251 C 696.2744,70.448461 696.43481,78.28286 694.74248,83.98154 C 693.20205,89.16872 691.88762,90.93081 690.83234,89.22334 z M 692.24168,72.296959 C 691.36579,71.638979 691.02965,66.8479 690.33174,64.6479 C 688.55866,59.05864 686.58616,56.21263 683.73388,55.12819 C 680.70004,53.97473 677.29445,48.56847 677.28946,44.8979 C 677.28515,41.72838 679.36434,41.32366 685.06382,43.38462 C 688.2111,44.5227 688.63556,44.43409 690.38482,42.27384 C 691.43032,40.98271 692.28572,38.43048 692.28572,36.60222 C 692.28572,34.77395 692.71639,32.14536 693.24276,30.7609 C 694.308,27.95911 699.69166,24.70596 701.87598,25.54416 C 704.07636,26.38853 703.6875,35.02134 701.28572,38.6479 C 698.54093,42.79239 698.76573,43.46803 702.64723,42.73986 C 710.35766,41.29337 710.10301,49.64193 702.1994,57.42186 C 699.49688,60.08209 699.7908,64.536449 698.25077,64.458346 C 697.31959,64.411121 696.65331,68.376479 695.99062,69.859459 C 694.98595,72.107709 693.56956,73.294489 692.24168,72.296959 z "
         style="fill:#008c58"
         id="path2241" />
      <path
         d="M 780.88915,207.75544 C 775.86037,200.06823 773.30692,198.1479 768.11411,198.1479 C 765.72256,198.1479 763.92657,199.29352 760.05655,203.28766 C 756.44052,207.01965 754.8572,208.07257 754.27582,207.13188 C 753.28708,205.53207 755.58477,197.57992 757.71631,195.2246 C 758.57949,194.2708 759.28572,192.72273 759.28572,191.78445 C 759.28572,190.84617 755.46072,186.11066 750.78572,181.26109 C 746.11072,176.41151 743.08899,169.74691 742.61222,169.07841 C 741.3062,167.24716 743.81564,165.66334 743.99331,165.49366 C 746.11194,163.47033 748.95244,166.6229 758.29842,178.16358 C 762.74549,183.65495 766.92439,188.19446 767.58486,188.25137 C 768.24533,188.30827 772.16333,188.27348 776.29153,188.17404 C 787.79309,187.897 801.28572,193.86901 801.28572,199.23679 C 801.28572,201.36057 799.6955,201.63439 795.85082,200.17265 C 793.65047,199.33608 793.28572,199.46988 793.28572,201.11363 C 793.28572,202.16756 793.73572,203.30798 794.28572,203.6479 C 795.54319,204.42506 795.60666,208.1479 794.36245,208.1479 C 793.85464,208.1479 792.03564,206.96691 790.32021,205.52347 C 788.60478,204.08003 786.91959,203.18069 786.57535,203.52494 C 786.2311,203.86919 786.43672,206.28026 787.03228,208.88288 C 788.08482,213.4825 787.92908,215.1479 786.4464,215.1479 C 786.0497,215.1479 783.54894,211.82129 780.88915,207.75544 z M 646.28077,213.3979 C 646.27805,212.9854 647.03827,210.52062 647.97015,207.92061 C 648.90203,205.3206 649.34312,202.87197 648.95036,202.4792 C 648.55759,202.08644 645.87072,204.10122 642.97953,206.95649 C 640.08835,209.81177 637.17448,212.1479 636.50427,212.1479 C 634.64809,212.1479 635.04883,207.53256 637.28572,203.1479 C 639.76451,198.28907 639.76771,198.35546 637.03572,197.96745 C 633.01313,197.39615 634.56545,194.75482 640.28572,192.43747 C 646.19537,190.04339 653.49962,189.51833 657.8556,191.17447 C 661.0089,192.37335 662.01147,191.80769 670.28572,184.16123 C 674.32335,180.42994 679.39679,176.95726 680.78537,178.16589 C 681.71642,178.97629 682.66948,179.99996 683.18867,180.23792 C 684.8834,181.01467 680.30243,184.63701 676.31293,188.31786 L 670.78572,193.148 L 670.78572,202.30108 C 670.78572,208.21126 670.38514,211.59247 669.65509,211.84457 C 669.03325,212.0593 667.23438,210.1958 665.65761,207.70346 C 664.08084,205.21113 662.14365,202.92362 661.35274,202.62013 C 660.4601,202.27758 657.73511,204.35888 654.16746,208.1081 C 648.92844,213.61378 646.29385,215.38086 646.28077,213.3979 z M 691.68532,78.183031 C 691.07936,78.029392 690.84344,78.41255 690.10702,77.23336 C 689.16028,75.71738 688.8106,74.530467 690.21833,73.7291 C 691.11865,73.216583 692.08425,72.154717 692.81887,71.969329 C 690.83202,76.240603 689.76441,72.136062 695.29654,70.8979 C 696.00487,70.4104 699.93024,69.930791 701.24982,70.137747 C 703.52701,70.49489 703.46429,73.610781 703.46429,75.242911 C 703.46429,76.479361 696.92764,77.899167 694.85878,78.284507 C 694.1409,78.737001 692.86499,78.23312 691.68532,78.183031 z M 711.40052,71.51576 C 708.77763,69.67861 708.71925,67.97053 711.20253,65.72318 C 714.38677,62.84148 719.13588,66.46307 717.17837,70.28025 C 715.92895,72.71666 713.77319,73.17764 711.40052,71.51576 z M 716.09814,68.88339 C 716.49613,66.81681 713.60933,65.42429 712.08572,66.9479 C 710.56211,68.47151 711.95463,71.35831 714.02121,70.96032 C 714.97906,70.77586 715.91368,69.84124 716.09814,68.88339 z "
         style="fill:#b93332"
         id="path2243" />
    </g>
  </g>
</svg>
