<?xml version="1.0" encoding="utf-8"?>
<!-- Generator: Adobe Illustrator 26.0.3, SVG Export Plug-In . SVG Version: 6.00 Build 0)  -->
<svg version="1.1"
	 id="svg2" xmlns:cc="http://creativecommons.org/ns#" xmlns:dc="http://purl.org/dc/elements/1.1/" xmlns:rdf="http://www.w3.org/1999/02/22-rdf-syntax-ns#" xmlns:svg="http://www.w3.org/2000/svg"
	 xmlns="http://www.w3.org/2000/svg" xmlns:xlink="http://www.w3.org/1999/xlink" x="0px" y="0px" viewBox="0 0 283.5 196.8"
	 style="enable-background:new 0 0 283.5 196.8;" xml:space="preserve">
<style type="text/css">
	.st0{fill:#FEDF00;}
	.st1{fill:#009B3A;}
	.st2{fill:#038F42;}
	.st3{fill:#002776;}
	.st4{fill:#FFFFFF;}
	.st5{fill:none;stroke:#000000;stroke-width:0.75;}
	.st6{fill:none;stroke:#000000;stroke-width:0.5;}
	.st7{fill:none;stroke:#000000;}
	.st8{fill:none;stroke:#000000;stroke-width:1.1836;}
	.st9{fill:#FFFFFF;stroke:#000000;}
	.st10{stroke:#000000;}
	.st11{fill:none;stroke:#000000;stroke-width:2.2806;}
	.st12{font-family:'ArialMT';}
	.st13{font-size:10.7724px;}
	.st14{fill:#002776;stroke:#000000;stroke-width:0.75;}
	.st15{fill:#CCCCCC;}
	.st16{fill:none;stroke:#000000;stroke-width:0.7602;}
	.st17{fill:#FEDF00;stroke:#000000;}
	.st18{fill:#EDA407;stroke:#000000;stroke-width:0.7602;}
	.st19{fill-rule:evenodd;clipRule:evenodd;fill:#EDA407;stroke:#000000;stroke-width:0.7602;}
	.st20{fill:#EDA407;stroke:#000000;stroke-width:0.5;}
	.st21{fill:#B3B3B3;stroke:#000000;stroke-width:0.7602;}
	.st22{fill:none;}
	.st23{fill:#CCCCCC;stroke:#000000;stroke-width:0.1991;stroke-linecap:round;stroke-linejoin:round;stroke-miterlimit:10;}
	.st24{fill:none;stroke:#000000;stroke-width:5.979455e-02;stroke-miterlimit:10;}
	.st25{fill:none;stroke:#000000;stroke-width:0.1195;stroke-miterlimit:10;}
	.st26{fill:none;stroke:#000000;stroke-width:0.176;stroke-miterlimit:10;}
	.st27{fill:none;stroke:#000000;stroke-width:0.2358;stroke-miterlimit:10;}
	.st28{fill:none;stroke:#000000;stroke-width:0.2955;stroke-miterlimit:10;}
	.st29{fill:none;stroke:#000000;stroke-width:0.3553;stroke-miterlimit:10;}
	.st30{fill:none;stroke:#000000;stroke-width:0.4151;stroke-miterlimit:10;}
	.st31{fill:none;stroke:#000000;stroke-width:0.4716;stroke-miterlimit:10;}
	.st32{fill:none;stroke:#000000;stroke-width:0.5313;stroke-miterlimit:10;}
	.st33{fill:none;stroke:#000000;stroke-width:0.5911;stroke-miterlimit:10;}
	.st34{fill:none;stroke:#000000;stroke-width:0.6509;stroke-miterlimit:10;}
	.st35{fill:none;stroke:#000000;stroke-width:0.7107;stroke-miterlimit:10;}
	.st36{fill:none;stroke:#000000;stroke-width:0.7671;stroke-miterlimit:10;}
	.st37{fill:none;stroke:#000000;stroke-width:0.8103;stroke-miterlimit:10;}
	.st38{fill:none;stroke:#000000;stroke-width:0.8701;stroke-miterlimit:10;}
	.st39{fill:none;stroke:#000000;stroke-width:0.9265;stroke-miterlimit:10;}
	.st40{fill:none;stroke:#000000;stroke-width:0.983;stroke-miterlimit:10;}
	.st41{fill:none;stroke:#000000;stroke-width:1.159;stroke-miterlimit:10;}
	
		.st42{fill-rule:evenodd;clipRule:evenodd;fill:#CCCCCC;stroke:#000000;stroke-width:0.1991;stroke-linejoin:bevel;stroke-miterlimit:10;}
	.st43{fill-rule:evenodd;clipRule:evenodd;fill:#CCCCCC;stroke:#000000;stroke-width:0.1991;stroke-miterlimit:10;}
	.st44{fill:none;stroke:#000000;stroke-width:0.1991;stroke-miterlimit:10;}
	.st45{fill:#CCCCCC;stroke:#000000;stroke-width:0.1991;stroke-miterlimit:10;}
	
		.st46{fill-rule:evenodd;clipRule:evenodd;stroke:#000000;stroke-width:0.1991;stroke-linecap:round;stroke-linejoin:round;stroke-miterlimit:10;}
	
		.st47{fill-rule:evenodd;clipRule:evenodd;fill:#CCCCCC;stroke:#000000;stroke-width:0.1991;stroke-linecap:round;stroke-linejoin:round;stroke-miterlimit:10;}
	.st48{fill:#CCCCCC;stroke:#000000;stroke-width:0.1991;stroke-linejoin:bevel;stroke-miterlimit:10;}
	.st49{fill-rule:evenodd;clipRule:evenodd;fill:#EAC102;stroke:#000000;stroke-width:0.1991;stroke-miterlimit:10;}
</style>
<desc  id="desc4">Flag of Canton of Valais (Wallis)</desc>
<path id="path6839" class="st0" d="M141.7,0L0.2,196.8h282.9l0.3-0.1L141.7,0z"/>
<path id="path6862" class="st1" d="M141.7,0l141.7,196.7V0H141.7z M283.5,196.8l-0.3,0.1L283.5,196.8L283.5,196.8z"/>
<path id="path6028" class="st2" d="M111.6,104.7C92.2,85.6,92.2,85.6,92.2,85.6c-4.5,65,5.4,68.4,5.5,68.4c3.2,3.7,6.3,6,9.3,7.2
	c12.3,5.1,21.5-8.3,21.5-8.3L111.6,104.7z"/>
<polygon id="rect4828" class="st1" points="107.4,126.4 107.4,126.4 107.4,126.3 "/>
<path id="path4830" class="st0" d="M108.9,148.7l13.1-31.5L105.9,104l-13.1,31.5L108.9,148.7z"/>
<ellipse id="circle4832" transform="matrix(0.5993 -0.8005 0.8005 0.5993 -58.1162 136.6327)" class="st3" cx="107.4" cy="126.4" rx="12.8" ry="7.4"/>
<path id="path4834" class="st4" d="M103.6,133.7c0.1,1.3,0.2,2.6,0.5,3.8c0.5-0.1,1-0.2,1.5-0.4c-1.6-5.8-0.1-13.7,4.1-21.4
	c-0.5,0.2-1,0.4-1.6,0.6C105,122.2,103.4,128.4,103.6,133.7L103.6,133.7z"/>
<path id="path6044" class="st5" d="M100.2,142.9c2.6,8.1,11.4,11.8,11.4,11.8"/>
<path id="path6046" class="st5" d="M126.3,152.7c-12,7.3-17.7,3.9-17.8,3.9c-8.3-2.8-10.9-7.7-11-7.7"/>
<path id="path6048" class="st5" d="M114.7,157.2c-8.9-0.8-13.7-6.6-13.8-6.7"/>
<path id="path6050" class="st6" d="M102.9,157.1c0,0,7.2,8.3,20.1,1.3c-9.8,3.9-16.1,0-16.1,0"/>
<path id="path6052" class="st7" d="M92.2,85.6c-4.5,65,5.4,68.4,5.5,68.4c3.2,3.7,6.3,6,9.3,7.2c12.3,5.1,21.5-8.3,21.5-8.3"/>
<path id="path6066" class="st7" d="M111.6,104.7C92.2,85.6,92.2,85.6,92.2,85.6"/>
<path id="path5872" class="st0" d="M171.9,104.7c19.5-19.1,19.5-19.1,19.5-19.1c4.5,65-5.4,68.4-5.5,68.4c-3.2,3.7-6.3,6-9.3,7.2
	c-12.3,5.1-21.5-8.3-21.5-8.3L171.9,104.7z"/>
<path id="path5946" class="st2" d="M171.4,144.9c0,0,7.7-3.1,4.1-43.8c-14.8,15.4-15.6,13.5-15.6,13.5L171.4,144.9z"/>
<path id="path5944" class="st2" d="M166.8,156.3c0,0,15.4,4.6,18.4-16.9c0,0,1.6,0,1-28.6c-5.8,3-6,2.6-6,2.6
	c0.9,7.7,1.1,13.9,0.9,18.9c-1.1,22.4-11.9,19.8-11.9,19.8L166.8,156.3z"/>
<path id="path5884" class="st8" d="M183.3,142.9c-2.6,8.1-11.4,11.8-11.4,11.8"/>
<path id="path5886" class="st8" d="M157.2,152.7c12,7.3,17.7,3.9,17.8,3.9c8.3-2.8,10.9-7.7,11-7.7"/>
<path id="path5888" class="st8" d="M168.8,157.2c8.9-0.8,13.7-6.6,13.8-6.7"/>
<path id="path5890" class="st8" d="M180.6,157.1c0,0-7.2,8.3-20.1,1.3c9.8,3.9,16.1,0,16.1,0"/>
<path id="path5938" class="st3" d="M191.3,85.6l-11.9,11.7l0,0c2.1,12.3,0.7,16.4,0.7,16.4c10.9-4.2,12.2-6.6,12.3-6.6
	C192.2,100.7,191.9,93.6,191.3,85.6L191.3,85.6z"/>
<path id="path6000" class="st7" d="M191.3,85.6c4.5,65-5.4,68.4-5.5,68.4c-3.2,3.7-6.3,6-9.3,7.2c-12.3,5.1-21.5-8.3-21.5-8.3"/>
<path id="path5950" class="st4" d="M182.7,98.7l-0.8,0.1l-0.7,0.8v-0.9l-0.7-0.2l0.8-0.6l0.2-0.9l0.5,0.5l0.9-0.4l-0.5,0.9
	L182.7,98.7z"/>
<path id="path5952" class="st4" d="M183.3,110.5l-0.8,0.1l-0.7,0.8v-0.9l-0.7-0.2l0.8-0.6l0.2-0.9l0.5,0.5l0.9-0.4l-0.5,0.9
	L183.3,110.5z"/>
<path id="path5954" class="st4" d="M191.7,106.7l-0.8,0.1l-0.7,0.8v-0.9l-0.7-0.2l0.8-0.6l0.2-0.9l0.5,0.5l0.9-0.4l-0.5,0.9
	L191.7,106.7z"/>
<path id="path5956" class="st4" d="M190.6,90.5l-0.8,0.1l-0.7,0.8v-0.9l-0.7-0.2l0.8-0.6l0.2-0.9l0.5,0.5l0.9-0.4l-0.5,0.9
	L190.6,90.5z"/>
<path id="path5958" class="st4" d="M188.5,101l-1.3,0.1l-1,1.2V101l-1.1-0.3l1.3-0.9l0.4-1.4l0.8,0.7l1.3-0.6l-0.8,1.4L188.5,101z"
	/>
<path id="path6002" class="st7" d="M171.9,104.7c19.5-19.1,19.5-19.1,19.5-19.1"/>
<path id="path5121" class="st9" d="M188.2,161.1c0.5-0.3,0.9-0.6,1.4-0.9c5.4-3.6,12.4-9.2,18.1-16.3l-0.3,5.8l6.5,0.5
	c-6.8,7.8-13.5,13.4-21.1,18.1L188.2,161.1z"/>
<path id="path5123" class="st10" d="M188.6,162.4l5.1,3.6c-0.2,0.8-0.5,1.4-0.9,1.8c-0.1,0.1-0.2,0.2-0.3,0.3
	c-0.2,0.1-0.4,0.1-0.6,0.1c-0.4,0-0.8-0.2-1-0.4c-0.6-0.5-1.1-1.1-1.3-1.4l-0.3-1.1L188.6,162.4L188.6,162.4z"/>
<path id="path5125" class="st7" d="M193.8,166.1c-0.2,0.8-0.5,1.4-0.9,1.8c-0.1,0.1-0.2,0.2-0.3,0.4"/>
<path id="path5127" class="st9" d="M95.3,161.7c-0.5-0.3-0.9-0.6-1.4-0.9c-5.4-3.6-12.4-9.2-18.1-16.3l0.3,5.8l-6.5,0.5
	c6.8,7.8,13.5,13.4,21.1,18.1L95.3,161.7z"/>
<path id="path5129" class="st10" d="M94.9,163l-5.1,3.6c0.2,0.8,0.5,1.4,0.9,1.8c0.1,0.1,0.2,0.2,0.3,0.3c0.2,0.1,0.4,0.1,0.6,0.1
	c0.4,0,0.8-0.2,1-0.4c0.6-0.5,1.1-1.1,1.3-1.4l0.3-1.1L94.9,163L94.9,163z"/>
<path id="path5131" class="st11" d="M89.7,166.7c0.2,0.8,0.5,1.4,0.9,1.8c0.1,0.1,0.2,0.2,0.3,0.4"/>
<path id="path5133" class="st9" d="M191.2,167c1.1-0.8,2.1-1.3,2.7-0.9c0.1-0.5-0.8-1.6-1-1.8c-4.9-5.4-5-5.6-5-5.6
	c-0.3-0.5-0.7-0.4-0.7-0.4c-0.9,0.3-1.7,1-2.8,1.8c-9.2,6.1-36,20.7-68.3,9.2c-7.9-3-13.6-6.3-16.9-8.6c-1-0.8-1.9-1.4-2.8-1.8
	c0,0-0.5-0.1-0.7,0.4c0,0-0.1,0.2-5,5.6c-0.1,0.2-1.1,1.2-1,1.8c0.7-0.4,1.6,0.1,2.7,0.9c3.7,2.7,10.6,7.2,20.4,11
	C151.1,192.8,181.8,173.9,191.2,167L191.2,167z"/>
<path id="path5137" d="M93.7,165.5l2.2-3.4l1.1,0.7c0.4,0.3,0.7,0.5,0.8,0.6c0.2,0.2,0.2,0.4,0.3,0.7c0,0.3-0.1,0.5-0.2,0.8
	c-0.1,0.2-0.3,0.4-0.5,0.4c-0.2,0.1-0.3,0.1-0.5,0.1s-0.3,0-0.5-0.1s-0.4-0.2-0.7-0.4l-0.4-0.3l-0.8,1.3L93.7,165.5z M96.2,163.1
	l-0.6,1l0.4,0.2c0.3,0.2,0.5,0.3,0.6,0.3s0.2,0,0.3,0c0.1,0,0.2-0.1,0.3-0.2c0.1-0.1,0.1-0.2,0.1-0.4c0-0.1-0.1-0.2-0.2-0.3
	s-0.2-0.2-0.5-0.3L96.2,163.1z"/>
<path id="path5139" d="M100,169.5l-0.8-0.5l0.2-1l-1.4-0.8l-0.8,0.6l-0.7-0.4l3.4-2.7l0.7,0.4L100,169.5z M99.5,167.3l0.3-1.6
	l-1.2,1L99.5,167.3z"/>
<path id="path5141" d="M100,169.5l0.4-0.6l3.1-1.3l-1.7-0.9l0.3-0.6l2.6,1.4l-0.3,0.6l-3.3,1.3l2,1.1l-0.3,0.6L100,169.5z"/>
<path id="path5143" d="M106.5,168.4l1.4,0.6c0.3,0.1,0.5,0.3,0.7,0.4c0.2,0.2,0.3,0.4,0.4,0.6c0.1,0.2,0.1,0.5,0.1,0.8
	s-0.1,0.6-0.3,0.9c-0.1,0.3-0.3,0.5-0.5,0.7s-0.5,0.4-0.7,0.5s-0.4,0.1-0.7,0c-0.2,0-0.4-0.1-0.7-0.2l-1.4-0.7L106.5,168.4z
	 M107,169.3l-1.1,2.4l0.6,0.3c0.2,0.1,0.4,0.2,0.5,0.2s0.3,0,0.4,0s0.2-0.1,0.4-0.3s0.3-0.4,0.4-0.6c0.1-0.3,0.2-0.5,0.2-0.7
	s0-0.3,0-0.5s-0.1-0.2-0.3-0.3c-0.1-0.1-0.3-0.2-0.6-0.3L107,169.3z"/>
<path id="path5145" d="M108.5,173.8l1.6-3.7l2.8,1.2l-0.3,0.6l-2-0.9l-0.4,0.8l1.9,0.8l-0.3,0.6l-1.9-0.8l-0.4,1l2.1,0.9l-0.3,0.6
	L108.5,173.8z"/>
<path id="path5147" d="M112.2,173.9l0.8,0.2c0,0.3,0,0.5,0.1,0.7s0.3,0.3,0.5,0.4c0.2,0.1,0.5,0.1,0.6,0c0.2-0.1,0.3-0.2,0.3-0.3
	s0-0.2,0-0.3s-0.1-0.2-0.2-0.3s-0.3-0.2-0.6-0.4c-0.4-0.3-0.6-0.5-0.7-0.7c-0.2-0.3-0.2-0.6-0.1-0.9c0.1-0.2,0.2-0.4,0.4-0.5
	c0.2-0.1,0.4-0.2,0.6-0.2s0.5,0,0.8,0.1c0.5,0.2,0.8,0.4,1,0.7s0.2,0.6,0.1,1l-0.8-0.2c0-0.2,0-0.4-0.1-0.5s-0.2-0.2-0.4-0.3
	c-0.2-0.1-0.4-0.1-0.6-0.1c-0.1,0-0.2,0.1-0.2,0.2c0,0.1,0,0.2,0,0.3c0.1,0.1,0.3,0.3,0.6,0.5c0.3,0.2,0.6,0.4,0.7,0.6
	c0.1,0.2,0.2,0.3,0.3,0.5c0,0.2,0,0.4-0.1,0.7c-0.1,0.2-0.2,0.4-0.4,0.5c-0.2,0.1-0.4,0.2-0.7,0.2c-0.3,0-0.5,0-0.9-0.2
	c-0.5-0.2-0.8-0.4-1-0.7C112.2,174.7,112.1,174.4,112.2,173.9L112.2,173.9z"/>
<path id="path5149" d="M115.5,176.5l1.2-3.9l2.9,0.9l-0.2,0.7l-2.1-0.7l-0.3,0.9l1.9,0.6l-0.2,0.7l-1.9-0.6l-0.3,1.1l2.2,0.7
	l-0.2,0.7L115.5,176.5z"/>
<path id="path5151" d="M119.1,177.6l1-3.9l0.8,0.2l0.9,3l0.7-2.6l0.7,0.2l-1,3.9l-0.8-0.2l-0.9-3l-0.7,2.6L119.1,177.6z"/>
<path id="path5153" d="M124.1,178.8l-0.6-4.3l0.9,0.2l0.4,3.1l1.6-2.7l0.8,0.2L125,179L124.1,178.8z"/>
<path id="path5155" d="M126.9,177.4c0.1-0.4,0.2-0.7,0.3-1c0.1-0.2,0.3-0.4,0.5-0.5s0.4-0.2,0.6-0.3c0.3-0.1,0.6-0.1,0.9,0
	c0.6,0.1,1,0.3,1.3,0.8c0.3,0.4,0.4,1,0.3,1.6c-0.1,0.6-0.4,1.1-0.8,1.4c-0.4,0.3-0.9,0.4-1.5,0.3c-0.6-0.1-1-0.3-1.3-0.8
	C126.9,178.5,126.8,178,126.9,177.4L126.9,177.4z M127.8,177.5c-0.1,0.5,0,0.8,0.2,1.1s0.4,0.4,0.7,0.5s0.6,0,0.8-0.2s0.4-0.5,0.5-1
	s0-0.8-0.1-1.1c-0.2-0.3-0.4-0.4-0.7-0.5s-0.6,0-0.9,0.2C128,176.7,127.9,177,127.8,177.5L127.8,177.5z"/>
<path id="path5157" d="M131.2,180l0.4-4l0.8,0.1l-0.4,3.3l2,0.2l-0.1,0.7L131.2,180z"/>
<path id="path5159" d="M135.6,180.4l-1.2-4.1l0.9,0.1l0.8,3.1l1.2-2.9l0.9,0.1l-1.7,4L135.6,180.4z"/>
<path id="path5161" d="M138.3,180.6l0.1-4h0.8l-0.1,4H138.3z"/>
<path id="path5163" d="M139.9,180.6l-0.1-4h1.2l0.8,2.8l0.7-2.8h1.2l0.1,4H143v-3.2l-0.8,3.2h-0.8l-0.8-3.2v3.2H139.9z"/>
<path id="path5165" d="M144.6,180.5l-0.3-4l3-0.2v0.7l-2.2,0.1l0.1,0.9l2-0.1v0.7l-2,0.1l0.1,1.1l2.3-0.2v0.7L144.6,180.5z"/>
<path id="path5167" d="M148.4,180.3l-0.5-4l0.8-0.1l2,2.5l-0.3-2.7l0.8-0.1l0.5,4l-0.8,0.1l-1.9-2.4l0.3,2.6L148.4,180.3z"/>
<path id="path5169" d="M153.4,179.6l-0.6-3.3l-1.2,0.2l-0.1-0.7l3.2-0.5l0.1,0.7l-1.2,0.2l0.6,3.3L153.4,179.6z"/>
<path id="path5171" d="M155.3,177.3c-0.1-0.4-0.1-0.8,0-1.1c0-0.2,0.1-0.4,0.3-0.6c0.1-0.2,0.3-0.3,0.4-0.5c0.2-0.2,0.5-0.3,0.8-0.3
	c0.6-0.1,1.1,0,1.5,0.2c0.4,0.3,0.7,0.8,0.8,1.4c0.1,0.6,0.1,1.2-0.2,1.6c-0.3,0.4-0.7,0.7-1.3,0.8s-1.1,0-1.5-0.2
	C155.7,178.3,155.4,177.9,155.3,177.3z M156.1,177.1c0.1,0.4,0.3,0.8,0.5,1c0.3,0.2,0.5,0.2,0.9,0.2c0.3-0.1,0.6-0.2,0.7-0.5
	c0.2-0.3,0.2-0.6,0.1-1.1c-0.1-0.5-0.3-0.8-0.5-1s-0.5-0.2-0.9-0.2c-0.3,0.1-0.6,0.2-0.7,0.5C156,176.2,156,176.6,156.1,177.1
	L156.1,177.1z"/>
<path id="path5173" d="M161.7,177.8l-1.1-3.9l2.9-0.8l0.2,0.7l-2.1,0.6l0.2,0.9l2-0.6l0.2,0.7l-2,0.6l0.3,1.1l2.2-0.6l0.2,0.7
	L161.7,177.8z"/>
<path id="path5175" d="M168.7,174h0.8c0,0.5,0,0.8-0.2,1.1s-0.5,0.5-0.9,0.7c-0.5,0.2-1,0.2-1.4-0.1s-0.8-0.6-1-1.2
	c-0.2-0.6-0.2-1.2,0-1.7s0.6-0.8,1.1-1s0.9-0.2,1.3,0c0.2,0.1,0.4,0.3,0.6,0.6l-0.7,0.5c-0.1-0.2-0.3-0.3-0.4-0.4
	c-0.2-0.1-0.4-0.1-0.6,0c-0.3,0.1-0.5,0.3-0.6,0.5c-0.1,0.3-0.1,0.6,0.1,1.1c0.2,0.5,0.4,0.8,0.6,0.9c0.2,0.1,0.5,0.2,0.8,0.1
	c0.2-0.1,0.4-0.2,0.5-0.4C168.7,174.6,168.8,174.3,168.7,174L168.7,174z"/>
<path id="path5177" d="M169.1,171.2l0.8-0.3l0.8,2c0.1,0.3,0.2,0.5,0.3,0.6s0.2,0.2,0.4,0.3c0.2,0,0.3,0,0.6-0.1
	c0.2-0.1,0.4-0.2,0.4-0.3c0.1-0.1,0.1-0.3,0.1-0.4c0-0.1-0.1-0.4-0.2-0.7l-0.8-2.1l0.8-0.3l0.8,2c0.2,0.4,0.3,0.8,0.3,1s0,0.4,0,0.6
	c-0.1,0.2-0.2,0.3-0.3,0.5c-0.2,0.2-0.4,0.3-0.7,0.4c-0.4,0.1-0.6,0.2-0.9,0.2s-0.4-0.1-0.6-0.1c-0.2-0.1-0.3-0.2-0.4-0.3
	c-0.1-0.2-0.3-0.5-0.5-0.9L169.1,171.2z"/>
<path id="path5179" d="M174.4,173.3l-1.7-3.7l0.7-0.3l1.4,3l1.8-0.8l0.3,0.6L174.4,173.3z"/>
<path id="path5181" d="M178.4,171.5l-1.5-3l-1.1,0.5l-0.3-0.6l2.9-1.4l0.3,0.6l-1.1,0.5l1.5,3L178.4,171.5z"/>
<path id="path5183" d="M178.7,166.8l0.7-0.4l1.1,1.9c0.2,0.3,0.3,0.5,0.4,0.6c0.1,0.1,0.2,0.2,0.4,0.2s0.3,0,0.5-0.1
	s0.3-0.2,0.4-0.4c0.1-0.1,0.1-0.3,0-0.4c0-0.1-0.1-0.3-0.3-0.6l-1.1-2l0.7-0.4l1,1.9c0.2,0.4,0.4,0.7,0.4,0.9c0.1,0.2,0.1,0.4,0,0.6
	c0,0.2-0.1,0.4-0.3,0.5c-0.1,0.2-0.3,0.3-0.6,0.5s-0.6,0.3-0.8,0.3s-0.4,0-0.6-0.1c-0.2-0.1-0.3-0.2-0.4-0.3
	c-0.2-0.2-0.3-0.5-0.6-0.9L178.7,166.8z"/>
<path id="path5185" d="M184.2,168.3l-2.1-3.4l1.5-0.9c0.4-0.2,0.7-0.4,0.9-0.4s0.4,0,0.6,0.1c0.2,0.1,0.4,0.2,0.5,0.5
	c0.2,0.3,0.2,0.5,0.2,0.8s-0.2,0.5-0.5,0.7c0.2,0,0.4,0,0.6,0.1c0.2,0,0.4,0.1,0.7,0.3l0.8,0.4l-0.8,0.5l-1-0.4
	c-0.3-0.2-0.6-0.3-0.7-0.3c-0.1,0-0.2,0-0.3,0s-0.2,0.1-0.4,0.2l-0.1,0.1l0.9,1.4L184.2,168.3z M183.7,165.9l0.5-0.3
	c0.3-0.2,0.5-0.3,0.6-0.4c0.1-0.1,0.1-0.2,0.1-0.3s0-0.2-0.1-0.3s-0.2-0.2-0.3-0.2s-0.2,0-0.3,0s-0.2,0.1-0.5,0.3l-0.5,0.3
	L183.7,165.9z"/>
<path id="path5187" d="M190.7,164.1l-0.7,0.5l-0.8-0.6l-1.3,0.9l0.2,0.9l-0.7,0.5l-1-4.2l0.7-0.5L190.7,164.1z M188.5,163.6
	l-1.3-0.9l0.4,1.5L188.5,163.6z"/>
<text transform="matrix(1 0 0 1 167.4696 178.2589)" class="st12 st13"> </text>
<path id="path5195" class="st9" d="M111.4,99.4c60.7,0.2,60.7,0.2,60.7,0.2c0,41.3,0,41.3,0,41.3c-2.1,20.5-18,28.3-29.9,28.1
	c-10.6-0.1-29.7-6.4-30.5-28.1L111.4,99.4z"/>
<path id="path5197" class="st14" d="M118.6,106.8c46.3,0.1,46.3,0.1,46.3,0.1c0,32.6,0,32.6,0,32.6c-1.6,16.2-13.8,22.3-22.8,22.2
	c-8.1-0.1-22.7-5.1-23.3-22.2L118.6,106.8z"/>
<path id="path5201" class="st15" d="M145.1,135.2c-0.3,0.1-0.8,0-1.2-0.3c-0.2-0.2-0.5,0.2-0.7,0v-0.2c0.2-0.2,0.1-1.2,0.1-1.5
	c0-0.4,0.2-5.2,0.3-5.2c0.1-0.1,0.3-4.1,0.3-4.1c-0.1-0.1-0.1-0.4-0.3-0.5l-0.4-0.2c-0.5,0.2-1,0-1.6-0.3c-0.3-0.1-0.5,0-0.7-0.3
	l-0.1-0.1c-0.5-0.5-0.3-1.7-0.3-2.7c-1.3-1.3-2.3-4.1-3-4.8c-0.2-0.2-0.6-0.5-0.8-0.8c0,0,0,0-0.1-0.1c0-0.1-0.1-0.1-0.1-0.2
	c-0.3-0.7,0.1-1.8-0.2-2.1c0,0-0.2-0.4-0.1-0.5c0.1-0.1,0.2-0.2,0.2-0.2c0.4-0.4,0.3,0.2,0.2,0.4c-0.1,0.1,0.2,0.5,0.2,0.5
	c0-0.3,0.1-0.8,0.2-1c0,0,0.2-0.2,0.3-0.1c0,0,0,0.1,0,0.2c0,0.3-0.3,0.6-0.2,1.1c0,0.1,0,0.1,0.1,0.2c0,0,0.1,0,0.1,0.1h0.1
	c0.5,0.2,0.5-0.6,0.5-0.9c0-0.1,0.1-0.1,0.1-0.2c0.1,0,0.1,0,0.2,0.1c0.1,0.1,0.1,0.1,0.1,0.3c0,0.2-0.1,0.5-0.1,0.6
	c0,0,0,0.2,0,0.3c0,0.2,0.1,0.6,0.1,0.7c0.1,0.1,0,0.4,0,0.5c0,0,0.1,0.1,0.1,0.2c1,1.2,2,2.6,3.2,3.3c0.5-0.4,1.3,0.4,1.7,0
	l0.4-0.1c0.1,0.1,0.2,0.4,0.4,0.5c0.3,0.2,0.7-0.3,1-0.1c0.3,0,0.5,0,0.7,0.1c0.3-0.1,0.1-0.1,0.3-0.1c0.1-0.2,0.3-0.3,0.4-0.5
	c0.1-0.1-0.1-0.9,0.1-1.1c0.2-0.2-0.1-1,0.2-1.2c0.2-0.2,0.4-1.5,0.7-1.8c0.5-0.5,1.6-1.1,2.4-0.3c0.2,0.2,0.3,0.4,0.5,0.6
	c0.1,0.1,0.1,0.5,0.2,0.6c0.3,0.3,0.5,0.9,0.5,1.5c0,0,0.2,0.1,0.3,0.2c0.2,0.4,0.1,0.4,0.4,0.7c0.2,0.2,0,0.6,0.2,0.7
	c0.1,0.1,0.3,0.2,0.3,0.3c0.3,0.5,0.4,1.1,0.6,1.2 M153.1,118.8c0.1,0,0.2,0.1,0.3,0.1c0.1,0.1,0.3-0.1,0.4,0
	c0.4,0.4,0.9,0.6,1.4,0.5c0.1-0.2,1.1-1.3,1.4-1.7c0.2-0.4,0.3-0.8,0.6-1.1c0,0,0-0.2,0-0.3c0-0.6,0-1.1,0-1.7c0-0.7,0.4-0.3,0.3,0
	c0,0.3,0.2,0.5,0.2,0.6h0.1c0.1-0.4,0.5-0.6,0.7-0.9c0.1-0.1,0.1-0.3,0.2-0.4c0.1-0.1,0.1-0.4,0.3-0.4s0.2,0.3,0.1,0.4
	c0,0,0.3-0.2,0.3-0.1c0,0,0.1,0.3,0,0.4c-0.2,0.2-0.6,1.1-0.6,1.2v0.1c0.1-0.2,0.2-0.3,0.4-0.5s0.3-0.2,0.4,0c0,0.4-0.3,0.2-0.5,0.5
	c0,0.1-0.1,0.2-0.1,0.3v0.2c0-0.2,0.8-0.6,0.8-0.5v0.3c-0.2,0.2-0.5,0.4-0.6,0.5s-0.2,0.3-0.3,0.4c-0.2,0.2-0.5,0.2-0.7,0.5
	c-0.1,0.2-0.2,0.8-0.3,0.9s0,0.5-0.1,0.6c-0.3,0.5-0.6,1.6-1.1,2.1c0,1,0.1,1.7-0.5,2.3c-0.2,0.2,0,0.7-0.1,0.8
	c-0.2,0.2-0.3,0.3-0.5,0.4c-0.5,0.5-1.5-0.1-1.8-0.4c-0.1-0.1-0.3,0-0.3,0c-0.1,0.3-0.1,0.8,0.1,1c0.2,0.2,0.6,0.5,0.7,0.8
	c0,0.1,0.1,0.3,0.1,0.3c0.2,0.2-0.2,0.8-0.1,0.9c0.1,0.1,0.4,0.8,0.3,1c-0.1,0.1-0.4,1-0.2,1.4c0.1,0.1,0.3,2,0.1,2.1
	c-0.2,0.2-0.5,0.5-0.5,0.8l-0.2,0.4c0,0.8-0.1,1.6,0.1,2.4c0.1,0.3,0.3,0.5,0.3,0.8c0.2,0.9-0.2,2.4,0.1,3.2s0.4,3.5,0.4,4.4
	c0.4,0.8,0,2.8,0.4,3.4c0.1,0.2,0.2,0.5,0.2,0.7l-10.7-0.7c-0.3-0.2-0.1-2.2,0.1-2.4c0.1-0.1-0.2-2.6-0.2-2.6
	c-0.2-0.2-0.1-2.1,0-2.3c0.1-0.3-0.2-1.9-0.3-2.2c-0.2-0.6,0.4-1.2,0.2-1.8c-0.1-0.3-0.2-0.7-0.2-1.1"/>
<path id="path5203" class="st16" d="M149.2,114.4c0.2-0.2,0.3-0.2,0.5-0.1"/>
<path id="path5205" class="st16" d="M148.3,114.5c-0.3-0.1-0.3,0-0.4,0.1"/>
<path id="path5207" class="st16" d="M149.1,115.1c0.2,0,0.2,0.2,0.3,0.3"/>
<path id="path5209" class="st16" d="M148.3,115.3c-0.1,0.1-0.1,0.2-0.2,0.4"/>
<path id="path5211" class="st16" d="M148.4,116.1c0.2-0.8,0.8-0.2,0.9,0.1"/>
<path id="path5213" class="st16" d="M148.9,115.1c-1,0.4,0.1-1.3-1-1"/>
<path id="path5215" class="st16" d="M148.9,114.1c0.3-0.2,0.6-0.1,0.6-0.1"/>
<path id="path5217" class="st16" d="M150.4,116.8c-0.4,0.4-1.6,1.5-2.5,0.5"/>
<path id="path5219" class="st16" d="M147.7,117.5c0.3,0.2,0.6,1,0.7,1.9"/>
<path id="path5221" class="st16" d="M148.8,112.8c-1.4,0.4-1.6,2.9-1,4.6"/>
<path id="path5223" class="st16" d="M146.9,118c0.1-1.1,0.2-2,0.3-3"/>
<path id="path5225" class="st16" d="M149.3,113c1.1,0.8,1.5,5.6,0.8,6.2c-0.3,0.3-1.2,0.2-1.4,0.1"/>
<path id="path5227" class="st16" d="M153.1,118.8c-0.2-0.1-0.4-0.7-0.6-1.2c-0.1-0.1-0.3-0.2-0.3-0.3c-0.2-0.2,0-0.6-0.2-0.7
	c-0.3-0.3-0.2-0.4-0.4-0.7c-0.1-0.1-0.3-0.2-0.3-0.2c0-0.6-0.2-1.1-0.5-1.5c-0.1-0.1-0.1-0.5-0.2-0.6c-0.2-0.2-0.3-0.4-0.5-0.6
	c-0.8-0.8-1.9-0.2-2.4,0.3c-0.3,0.3-0.5,1.5-0.7,1.8c-0.2,0.2,0.1,1-0.2,1.2c-0.2,0.2,0,1-0.1,1.1c-0.2,0.2-0.3,0.3-0.4,0.5
	c-0.2,0,0,0.1-0.3,0.1"/>
<path id="path5229" class="st16" d="M151.3,116.9c-0.2,0.1-0.5,0.6-0.7,1"/>
<path id="path5231" class="st16" d="M151.5,117.7c-0.2,0.2-0.8,0.6-0.8,1.2"/>
<path id="path5233" class="st16" d="M151.3,119.3c-0.1-0.7-0.3-0.1-0.7-0.2"/>
<path id="path5235" class="st16" d="M151.9,117.5c-0.2,0.6,0.2,1,0.3,1.2"/>
<path id="path5237" class="st16" d="M151,116.5c0.2,0.1,0.3-0.2,0.4-0.2c0.2,0,0.1,0.3,0,0.5"/>
<path id="path5239" class="st16" d="M150.5,115.7c0-0.7,0.5-1.5,0.5-0.3"/>
<path id="path5241" class="st16" d="M150.4,114.4c0.2-0.6-0.4-0.8-0.5-1.1"/>
<path id="path5243" class="st16" d="M147.3,118.3c0.6,0.2,0.6,0.8,0.9,0.9"/>
<path id="path5245" class="st16" d="M147.4,117.6c0.1,0.1-0.3,0.3-0.3,0.5"/>
<path id="path5247" class="st16" d="M145.2,117.8c0.6-0.1,1.2,0.1,1.2,0.6"/>
<path id="path5249" class="st16" d="M146.8,118.6c0.5,0.4,0.6,0.7,0.9,1c0.1,0.1,0.3,0,0.3,0s1.2,1.6,1.3,1.7
	c0.5,0.3,1.1,0.6,1.6,0.8"/>
<path id="path5251" class="st16" d="M150.9,120.5c-0.4,0.2-0.5,0.3-0.6,0.7"/>
<path id="path5253" class="st16" d="M151,120.9c-0.1,0-0.7,0.5-0.3,0.5"/>
<path id="path5255" class="st16" d="M145.1,117.9c0.3,0.2,0.5,0.4,0.6,0.6c0.3,0.3,0.3,1,0.5,1.4c0.6,1.2,0.9,2.3,1.9,3.3
	c0.1,0.1,0.2,0.3,0.4,0.4c0.3,0.1,0.3,1.7,0.9,2.1c0.3,0.3,0.2,0.9,0.4,1.1c0.5,0.5,0.7,1.3,1,1.6c0.4,0.4,0.7,0.9,1.1,1.3
	c0.3,0.3,0.3,1,0.6,1.2c0.4,0.4,1.2,1.3,1.2,1.9"/>
<path id="path5257" class="st16" d="M149.1,122.5c1.4,1,2.1,2.1,3.2,3.2c0.1,0.1,0.2,0.4,0.3,0.5c0.4,0.4,1.6,1.1,1.6,1.9"/>
<path id="path5259" class="st16" d="M149.9,117.4c0.1,0.4-1.1,0.4-1.4,0.8"/>
<path id="path5261" class="st16" d="M148.5,116.5c0.4,0,0.5,0.4,0.4,0.7"/>
<path id="path5263" class="st16" d="M149.4,116.4c-0.2,0.3,0.1,0.8,0.1,0.5"/>
<path id="path5265" class="st16" d="M149.9,115.4c0.2,0.4,0.1,0.9-0.3,1"/>
<path id="path5268" class="st16" d="M147.7,114.7c-0.1,0.6,0.1,0.8,0.3,1.1c0,0,0,0.3,0,0.4"/>
<path id="path5270" class="st16" d="M145.2,117.7c-0.4-0.1-0.7,0.3-1,0.1c-0.2-0.1-0.3-0.4-0.4-0.5c-0.1-0.1-0.4,0-0.4,0.1
	c-0.4,0.4-1.2-0.4-1.7,0c-0.2,0.2,0.3,0.5,0.3,0.6c0,1.2,0.2,2.9-0.4,3.5c-0.5,0.5-0.5-1.2-0.3-1.4"/>
<path id="path5273" class="st16" d="M140.5,119.6c0.1,0.9-0.3,2.3,0.3,2.9c0.7,0.7,1.4-1.1,1.6-1.2c0.1-0.1,0-0.6,0-0.8"/>
<path id="path5275" class="st16" d="M140.9,122.6c0.2,0.3,0.4,0.2,0.7,0.3c0.8,0.4,1.3,0.6,2,0c0.1-0.1,0.2-1.7,0.2-1.7"/>
<path id="path5277" class="st16" d="M142.8,120.6c0.4,0,0.4,0.4,0.4,0.8"/>
<path id="path5279" class="st16" d="M145.5,118.7c0.1,0.8,0.1,4.8-1,4.8c-0.5,0-1.2-0.1-1.3-0.3"/>
<path id="path5281" class="st16" d="M144.3,118.8c0,0.2-0.1,0.6,0,0.7c0.6,0.6,0.1,1.5,0.1,2.2"/>
<path id="path5283" class="st16" d="M153.1,118.8c-1.1,0-1.6,0.2-2,0.9c-0.1,0.1,0,0.3-0.1,0.4c-0.1,0.2,0,0.6,0.1,0.8
	c0.1,0.2,0,0.6,0.2,0.7c0.1,0.1,0.2,1.1,0.4,1.4c0.4,0.4,0.8,0.7,1.1,1c0.2,0.2,0.7-0.1,0.8,0.1c0.3,0.3,1.3,0.8,1.8,0.4
	c0.1-0.1,0.3-0.3,0.5-0.4c0.1-0.1,0-0.7,0.1-0.8c0.6-0.6,0.5-1.3,0.5-2.3"/>
<path id="path5285" class="st16" d="M154.9,119.6c-0.4,0.3-0.4,1.5,0.1,2.1c0.5,0.5,1.4-1.1,1.6-0.6"/>
<path id="path5287" class="st16" d="M155.1,119.4c-0.5,0.1-1-0.1-1.4-0.5c-0.1-0.1-0.3,0.1-0.4,0c-0.1-0.1-0.1-0.1-0.3-0.1"/>
<path id="path5289" class="st16" d="M152.3,118.9c-0.2,0.4-0.9,1.1-0.6,1.7"/>
<path id="path5291" class="st16" d="M152.8,118.9c-0.6,1.1-1.2,2.8-0.5,3.9"/>
<path id="path5293" class="st16" d="M154.6,119.7c-0.8,0.3-0.8,2.3-0.4,3.1c0.1,0.3,0.4,0.2,0.5,0.4c0.4,0.4,0.1,0.9,0.8,0.9"/>
<path id="path5295" class="st16" d="M154.6,121.6c-0.1,0.6,0.1,1.6,0.9,1.6"/>
<path id="path5297" class="st16" d="M156.1,121.6c0,0.4-0.2,1.1-0.5,1.2"/>
<path id="path5299" class="st16" d="M153.9,119.4c-1.1,0.3-0.9,1.9-0.7,2.7"/>
<path id="path5301" class="st16" d="M152.7,122.7c0.3,0.4,0.8,1.1,0.9,1.3"/>
<path id="path5323" class="st16" d="M145.5,121.4c0.1,1.3-0.1,3.1-0.5,4.4c-0.1,0.2,0.2,1,0,1.1c-0.1,0.1-0.3,1.3-0.2,1.6
	c0.4,0.8,3.4,0.3,2.6,2.6"/>
<path id="path5325" class="st16" d="M147.4,131.6c-0.2,0.3-0.1,0.6-0.3,0.8s-0.4,0.2-0.5,0.3c-0.6,0.6-1,1.1-1.4,1.9
	c-0.5,1.1,2,1.5,2.2,1.4"/>
<path id="path5327" class="st16" d="M145.6,128.9c0.1,1.3,0.3,4.2-0.1,5.2"/>
<path id="path5329" class="st16" d="M147.6,131.7c-0.1,1.4,0.2,3.3-0.2,4.4"/>
<path id="path5331" class="st16" d="M146.9,122.7c0.1,0.7-0.3,1.8,0,2.4c0.2,0.4,0.3,0.8,0.3,1.2c0,0.3,0,1.8,0.1,1.8
	c0.2,0.2,0.3,0.9,0.3,1.2"/>
<path id="path5333" class="st16" d="M149.2,127.4c0.2,1.9,0.6,3.7,1.2,5.3c0.1,0.2-0.1,0.5,0,0.8c0.3,0.8,0.2,1.6,0.5,2.3
	c0.3,0.6-0.1,1.6,0.1,2.2"/>
<path id="path5335" class="st16" d="M147.4,136.1c0.4-0.2,1,0.5,1.2,0.8c0.3,0.3,1.2,0.2,1.6,0.6c0.3,0.3,0.6,0.7,1,0.9"/>
<path id="path5337" class="st16" d="M151.2,137.9c0.6,0.6,1.2,1,1.7,1.5c0.1,0.1,0.7,1.3,0.8,1.6c0.6,0.9,0.5,1.9,0.8,2.8"/>
<path id="path5339" class="st16" d="M153.6,132.9c0,0.8-0.1,1.6,0.1,2.4c0.1,0.3,0.3,0.5,0.3,0.8c0.2,0.9-0.2,2.4,0.1,3.2
	s0.4,3.5,0.4,4.3"/>
<path id="path5341" class="st16" d="M153.3,124.2c-0.1,0.3-0.1,0.8,0.1,1c0.2,0.2,0.6,0.5,0.7,0.8c0,0.1,0.1,0.3,0.1,0.3
	c0.2,0.2-0.2,0.8-0.1,0.9c0.1,0.1,0.4,0.8,0.3,1c-0.1,0.1-0.4,1-0.2,1.4c0.1,0.1,0.3,2,0.1,2.1c-0.2,0.2-0.5,0.5-0.5,0.8"/>
<path id="path5343" class="st16" d="M143.6,123.4c0.2,0.1,0.2,0.4,0.3,0.5c0,0-0.2,3.9-0.3,4.1c0,0-0.3,4.8-0.3,5.2
	c0,0.3,0.1,1.3-0.1,1.5c0,0-0.1,0.2,0,0.2c0.2,0.2,0.6-0.2,0.7,0c0.4,0.4,0.9,0.4,1.2,0.3"/>
<path id="path5345" class="st16" d="M144,134.8c0,0.4,0.1,0.8,0.2,1.1c0.2,0.5-0.4,1.1-0.2,1.8c0.1,0.3,0.4,1.9,0.3,2.2
	c-0.1,0.2-0.1,2.1,0,2.3c0.1,0.1,0.3,2.6,0.2,2.6c-0.2,0.2-0.4,2.2-0.1,2.4"/>
<path id="path5347" class="st16" d="M148.3,137.1c0,1.7-0.3,4.7,0.2,6.2c0.2,0.5-0.1,1.2,0,1.7c0.1,0.4,0.2,1,0.2,1.4"/>
<path id="path5349" class="st16" d="M146.1,136.4c-0.2,0.6-0.2,3.5,0,4c0.1,0.2-0.1,0.5,0,0.6c0.1,0.4,0.3,1.1,0.2,1.5
	c-0.2,0.5-0.1,1-0.3,1.4c-0.1,0.4,0.1,0.9,0,1.2c-0.1,0.4-0.2,1.2-0.2,1.5"/>
<path id="path5351" class="st16" d="M154.6,143.8c0.4,0.7,0,2.7,0.3,3.3c0.1,0.2,0.2,0.5,0.2,0.7"/>
<path id="path5353" class="st16" d="M143.4,134.9c0.7-0.2,1.1,0.2,1.7,0.3"/>
<path id="path5355" class="st16" d="M138.3,114c0,0.1,0.1,0.1,0.1,0.2c1,1.2,2,2.6,3.1,3.3"/>
<path id="path5357" class="st16" d="M141.9,120.2c-2,0.5-3.5-4.4-4.4-5.3c-0.2-0.2-0.7-0.6-0.9-0.9"/>
<path id="path5359" class="st16" d="M139.7,117.8c0.4,1.1,1.8,1.9,2.2,1.6"/>
<path id="path5361" class="st16" d="M137.1,114c-0.2-0.2-0.3-0.4-0.2-0.5s0.3,0,0.5,0.1c0.1,0,0.2,0.1,0.3,0v-0.1
	c0-0.1-0.1-0.1-0.2-0.1c-0.1,0-0.1-0.1-0.2-0.1c-0.1,0-0.3,0-0.3,0c-0.1,0,0.2-0.2,0.3-0.2s0.2,0.1,0.3,0c0,0,0.2,0,0.3,0
	s0.3,0,0.1-0.2c-0.4-0.4-0.9-0.1-1.2-0.1"/>
<path id="path5363" class="st16" d="M138.4,114c-0.1-0.1,0-0.4,0-0.5c-0.1-0.1-0.1-0.5-0.1-0.7c0-0.1,0-0.3,0-0.3
	c0-0.1,0.1-0.4,0.1-0.6c0-0.1,0-0.2-0.1-0.3c-0.1-0.1-0.1-0.1-0.2-0.1c-0.1,0-0.1,0.1-0.1,0.2c0,0.3,0,1-0.5,0.9h-0.1
	c-0.1-0.1-0.1-0.1-0.1-0.1c0-0.1,0-0.1-0.1-0.2c-0.1-0.5,0.2-0.7,0.2-1.1c0-0.1,0-0.2,0-0.2c-0.1-0.1-0.2,0.1-0.3,0.1
	c-0.2,0.2-0.2,0.6-0.2,0.9"/>
<path id="path5365" class="st16" d="M136.6,114.1l-0.1-0.2c-0.3-0.7,0.1-1.8-0.2-2.1c0,0-0.2-0.4-0.1-0.5c0.1-0.1,0.2-0.2,0.2-0.2
	c0.4-0.4,0.3,0.2,0.2,0.4c-0.1,0.1,0.2,0.5,0.3,0.6"/>
<path id="path5367" class="st16" d="M155.1,119.3c0.1-0.2,1.1-1.3,1.4-1.7c0.2-0.4,0.3-0.8,0.6-1.1c0,0,0-0.2,0-0.3
	c0-0.6,0-1.1,0-1.7c0-0.7,0.4-0.3,0.3,0c0,0.3,0.2,0.5,0.2,0.6"/>
<path id="path5369" class="st16" d="M157.7,115.2c0.1-0.4,0.5-0.6,0.7-0.9c0.1-0.1,0.1-0.3,0.2-0.4c0.1-0.1,0.1-0.4,0.3-0.4
	s0.2,0.3,0.1,0.4c0,0,0.3-0.2,0.3-0.1c0,0,0.1,0.3,0,0.4c-0.2,0.2-0.6,1.1-0.6,1.2"/>
<path id="path5371" class="st16" d="M158.8,115.5c0.1-0.2,0.2-0.3,0.4-0.5s0.3-0.2,0.4,0c0,0.4-0.3,0.2-0.5,0.5
	c0,0.1-0.1,0.2-0.1,0.3"/>
<path id="path5373" class="st16" d="M158.9,116.1c0-0.2,0.8-0.6,0.8-0.5v0.3c-0.2,0.2-0.5,0.4-0.6,0.5s-0.2,0.3-0.3,0.4
	c-0.2,0.2-0.5,0.2-0.7,0.5c-0.1,0.2-0.2,0.8-0.3,0.9s0,0.5-0.1,0.6c-0.3,0.6-0.7,1.9-1.2,2.1"/>
<path id="path5375" class="st16" d="M158.1,117.1c-0.1,0-0.3-0.2-0.3-0.5c-0.3,0.2-0.4-0.1-0.6-0.1"/>
<path id="path5377" class="st16" d="M159,113.9c-0.1,0.3-0.5,0.8-0.6,1"/>
<path id="path5379" class="st16" d="M137.5,114.6c0.3,0,0.3-0.3,0.3-0.5c0.1,0.1,0.4,0.4,0.5,0.2"/>
<path id="path5381" class="st16" d="M142.7,118c0.3,0.7,0.2,1.3,0.2,2"/>
<path id="path5383" class="st17" d="M118.6,106.8l0.3,32.7c0.6,17.1,15.2,22.1,23.3,22.2c5.7,0.1,12.7-2.3,17.4-8.2L119,106.8H118.6
	z"/>
<path id="path5387" class="st18" d="M130.1,128.6C126.9,122.6,121.1,126.6,130.1,128.6z"/>
<path id="path5389" class="st18" d="M129.3,154v1.1c0,0.1,0.1,0.2,0.3,0.2h0.9c0.1,0,0.3-0.1,0.3-0.2V154c0.6-0.3,1-0.9,1-1.6
	c0-0.7-0.4-1.3-1-1.6v-4.6c0-0.1-0.1-0.2-0.3-0.2h-0.9c-0.1,0-0.3,0.1-0.3,0.2v4.6c-0.6,0.3-1,0.9-1,1.6S128.7,153.7,129.3,154
	L129.3,154z"/>
<path id="path5391" class="st18" d="M123.4,152.2c0-0.8,0-1.6,0-2.4c0-1.6,0.1-2.6,1.2-3.8c0.4-0.4,0.8-0.7,1.2-1.1
	c0.2-0.1,0.3-0.4,0.7-0.5c1-0.2,2.7-0.6,3.5-0.6l0,0l0,0c0.8,0,2.5,0.4,3.5,0.6c0.4,0.1,0.5,0.3,0.7,0.5c0.5,0.3,0.9,0.7,1.4,1.2
	c1.1,1.2,1,1.9,1.1,3.5c0,0.9,0,1.7,0,2.6H123.4z"/>
<path id="path5393" class="st18" d="M126.3,144.5h7.6c0.1,0,0.6,0.2,0.6,0.3s0,0.3-0.2,0.3h-8.4c-0.1,0-0.2-0.1-0.2-0.3
	S126.1,144.5,126.3,144.5L126.3,144.5z"/>
<path id="path5395" class="st19" d="M130.1,144.4c0.1,0,0.2-0.1,0.3-0.1s0.2-0.1,0.2-0.1c0.1,0,0.3,0,0.3-0.1c0-0.9,0-14.3,0-15.2
	c0,0,0-0.1-0.1-0.1s-0.1-0.2-0.2-0.1c-0.1,0-0.3,0-0.3-0.1s-0.1-0.2-0.3-0.2c-0.1,0-0.2,0.1-0.3,0.2c0,0.1-0.2,0.1-0.3,0.1
	s-0.1,0.1-0.2,0.1c-0.1,0-0.1,0-0.1,0.1c0,0.9,0,14.3,0,15.2c0,0.1,0.2,0.1,0.3,0.1s0.1,0.1,0.2,0.1
	C129.9,144.3,130,144.4,130.1,144.4L130.1,144.4z"/>
<path id="rect5397" class="st20" d="M130,128.4L130,128.4c0.1,0,0.2,1,0.2,2.1v11.6c0,1.2-0.1,2.1-0.2,2.1l0,0c-0.1,0-0.2-1-0.2-2.1
	v-11.6C129.8,129.4,129.9,128.4,130,128.4z"/>
<path id="path5403" class="st21" d="M125.8,121.7c0,0-1.3-0.4-2.9-5.2c0,0-0.6-2-3.3-2.5c0-0.1,1.1,0,2.4-0.3
	c0.5-0.1,0.7-0.7,1.1-1.4c0,0-0.4,2.5,1,3.7c0,0,0.8,0.5,2.1,1.5c0,0,2.1,1.5,3.1,3.9c0,0,0.1,0.7,0.7,2.3c0.2,0.3,0,0.4,0,0.4
	c-0.2,0-0.3,0-0.4-0.1c-0.6,0.4-2.2-0.8-2.2-0.8c-0.6-0.3-0.9-0.6-0.9-0.6c-1.2-0.3-1.6-0.3-1.6-0.3c0.1-0.4,0.4-0.3,0.4-0.3
	C125.4,121.8,125.6,121.7,125.8,121.7L125.8,121.7z"/>
<path id="path5405" class="st21" d="M129.6,124c-0.8-0.3-1.5-1-1.5-1"/>
<path id="path5407" class="st21" d="M126.6,122.6c0.6,0.1,0.7,0.2,0.7,0.2"/>
<path id="path5409" class="st21" d="M127.5,122.4c-1.3-1-1.7-0.8-1.7-0.8"/>
<path id="path5411" class="st21" d="M126.6,122.1c-0.8-0.5-1-0.4-1-0.4"/>
<path id="path5413" class="st21" d="M126.5,122.3c-0.8-0.3-1.1-0.3-1.1-0.3"/>
<path id="path5415" class="st21" d="M127.4,123.2c0.8-1.7,1.9-1.8,1.9-1.8"/>
<path id="path5417" class="st21" d="M127.5,122.4c1-1,1.3-0.8,1.3-0.8"/>
<path id="path5419" class="st21" d="M123.1,114.7c-0.4-1-0.2-1.8-0.2-1.8"/>
<path id="path5421" class="st21" d="M122.7,114.7c-0.5-1.3-0.3-1.2-0.3-1.2"/>
<path id="path5423" class="st21" d="M122.1,114.7c-0.8-0.8-1.1-0.9-1.2-0.9"/>
<path id="path5425" class="st21" d="M122.4,114.7c-0.7-0.8-0.9-0.9-0.9-0.9"/>
<path id="path5427" class="st21" d="M126.7,117.8c-0.6-1-0.5-1.7-0.5-1.7c-1.1-0.2-1.6-0.5-1.6-0.5c0.1,0.5,0.1,0.7,0.1,0.7
	C125.5,117.7,126.1,117.5,126.7,117.8z"/>
<path id="path5429" class="st21" d="M126.1,117.3c-0.4-0.8-0.4-1.3-0.4-1.3"/>
<path id="path5431" class="st21" d="M125.7,117c-0.3-0.6-0.2-1-0.2-1"/>
<path id="path5433" class="st21" d="M125.2,116.7c-0.3-0.6-0.3-0.9-0.3-0.9"/>
<path id="path5435" class="st21" d="M123.9,119.1c-0.8-0.6-1.1-0.5-1.1-0.5c0.2-2.1,0.1-2.1,0.1-2.1
	C123.6,117.3,124.1,118.1,123.9,119.1z"/>
<path id="path5437" class="st21" d="M123.8,118.8c-0.7-0.7-0.9-0.6-0.9-0.6"/>
<path id="path5439" class="st21" d="M123.6,118.2c-0.5-0.4-0.6-0.4-0.6-0.4"/>
<path id="path5441" class="st21" d="M123.4,117.7c-0.3-0.3-0.4-0.3-0.4-0.3"/>
<path id="path5443" class="st21" d="M129.1,122.1c-0.2,0-0.4,0.1-0.4,0.3c0,0.2,0.1,0.4,0.3,0.4l0,0c0.2,0,0.3-0.1,0.4-0.3
	C129.4,122.3,129.3,122.1,129.1,122.1L129.1,122.1z"/>
<path id="path5445" class="st21" d="M129,122.3c-0.1,0-0.1,0.1-0.1,0.1c0,0.1,0.1,0.1,0.1,0.1l0,0c0.1,0,0.2,0,0.2-0.1
	S129.2,122.2,129,122.3C129.1,122.3,129.1,122.3,129,122.3z"/>
<path id="path5447" class="st21" d="M126.7,117.8c-0.6-1-0.5-1.7-0.5-1.7c-1.1-0.2-1.6-0.5-1.6-0.5c0.1,0.5,0.1,0.7,0.1,0.7
	C125.5,117.7,126.1,117.5,126.7,117.8z"/>
<path id="path5449" class="st21" d="M123.9,119.1c-0.8-0.6-1.1-0.5-1.1-0.5c0.2-2.1,0.1-2.1,0.1-2.1
	C123.6,117.3,124.1,118.1,123.9,119.1z"/>
<path id="path5451" class="st21" d="M125.8,121.7c0,0-1.3-0.4-2.9-5.2c0,0-0.6-2-3.3-2.5c0-0.1,1.1,0,2.4-0.3
	c0.5-0.1,0.7-0.7,1.1-1.4c0,0-0.4,2.5,1,3.7c0,0,0.8,0.5,2.1,1.5c0,0,2.1,1.5,3.1,3.9c0,0,0.1,0.7,0.7,2.3c0.2,0.3,0,0.4,0,0.4
	c-0.2,0-0.3,0-0.4-0.1c-0.6,0.4-2.2-0.8-2.2-0.8c-0.6-0.3-0.9-0.6-0.9-0.6c-1.2-0.3-1.6-0.3-1.6-0.3c0.1-0.4,0.4-0.3,0.4-0.3
	C125.4,121.8,125.6,121.7,125.8,121.7L125.8,121.7z"/>
<path id="path5453" class="st21" d="M129.6,124c-0.8-0.3-1.5-1-1.5-1"/>
<path id="path5455" class="st21" d="M126.6,122.6c0.6,0.1,0.7,0.2,0.7,0.2"/>
<path id="path5457" class="st21" d="M127.5,122.4c-1.3-1-1.7-0.8-1.7-0.8"/>
<path id="path5459" class="st21" d="M126.6,122.1c-0.8-0.5-1-0.4-1-0.4"/>
<path id="path5461" class="st21" d="M126.5,122.3c-0.8-0.3-1.1-0.3-1.1-0.3"/>
<path id="path5463" class="st16" d="M127.4,123.2c0.8-1.7,1.9-1.8,1.9-1.8"/>
<path id="path5465" class="st16" d="M127.5,122.4c1-1,1.3-0.8,1.3-0.8"/>
<path id="path5467" class="st21" d="M123.1,114.7c-0.4-1-0.2-1.8-0.2-1.8"/>
<path id="path5469" class="st21" d="M122.7,114.7c-0.5-1.3-0.3-1.2-0.3-1.2"/>
<path id="path5471" class="st21" d="M122.1,114.7c-0.8-0.8-1.1-0.9-1.2-0.9"/>
<path id="path5473" class="st21" d="M122.4,114.7c-0.7-0.8-0.9-0.9-0.9-0.9"/>
<path id="path5475" class="st21" d="M126.1,117.3c-0.4-0.8-0.4-1.3-0.4-1.3"/>
<path id="path5477" class="st21" d="M125.7,117c-0.3-0.6-0.2-1-0.2-1"/>
<path id="path5479" class="st21" d="M125.2,116.7c-0.3-0.6-0.3-0.9-0.3-0.9"/>
<path id="path5481" class="st21" d="M123.8,118.8c-0.7-0.7-0.9-0.6-0.9-0.6"/>
<path id="path5483" class="st21" d="M123.6,118.2c-0.5-0.4-0.6-0.4-0.6-0.4"/>
<path id="path5485" class="st21" d="M123.4,117.7c-0.3-0.3-0.4-0.3-0.4-0.3"/>
<path id="path5487" class="st21" d="M129.1,122.1c-0.2,0-0.4,0.1-0.4,0.3c0,0.2,0.1,0.4,0.3,0.4l0,0c0.2,0,0.3-0.1,0.4-0.3
	C129.4,122.3,129.3,122.1,129.1,122.1L129.1,122.1z"/>
<path id="path5489" d="M129,122.3c-0.1,0-0.1,0.1-0.1,0.1c0,0.1,0.1,0.1,0.1,0.1l0,0c0.1,0,0.2,0,0.2-0.1S129.2,122.2,129,122.3
	C129.1,122.3,129.1,122.3,129,122.3z"/>
<path id="path5493" class="st21" d="M151.8,151.8c0,0-1.3-0.4-2.9-5.2c0,0-0.6-2-3.3-2.5c0-0.1,1.1,0,2.4-0.3
	c0.5-0.1,0.7-0.7,1.1-1.4c0,0-0.4,2.5,1,3.7c0,0,0.8,0.5,2.1,1.5c0,0,2.1,1.5,3.1,3.9c0,0,0.1,0.7,0.7,2.3c0.2,0.3,0,0.4,0,0.4
	c-0.2,0-0.3,0-0.4-0.1c-0.6,0.4-2.2-0.8-2.2-0.8c-0.6-0.3-0.9-0.6-0.9-0.6c-1.2-0.3-1.6-0.3-1.6-0.3c0.1-0.4,0.4-0.3,0.4-0.3
	C151.4,151.9,151.6,151.9,151.8,151.8L151.8,151.8z"/>
<path id="path5495" class="st21" d="M155.6,154.1c-0.8-0.3-1.5-1-1.5-1"/>
<path id="path5497" class="st21" d="M152.5,152.7c0.6,0.1,0.7,0.2,0.7,0.2"/>
<path id="path5499" class="st21" d="M153.5,152.6c-1.3-1-1.7-0.8-1.7-0.8"/>
<path id="path5501" class="st21" d="M152.6,152.3c-0.8-0.5-1-0.4-1-0.4"/>
<path id="path5503" class="st21" d="M152.4,152.4c-0.8-0.3-1.1-0.3-1.1-0.3"/>
<path id="path5505" class="st21" d="M153.4,153.3c0.8-1.7,1.9-1.8,1.9-1.8"/>
<path id="path5507" class="st21" d="M153.5,152.6c1-1,1.3-0.8,1.3-0.8"/>
<path id="path5509" class="st21" d="M149,144.8c-0.4-1-0.2-1.8-0.2-1.8"/>
<path id="path5511" class="st21" d="M148.6,144.9c-0.5-1.3-0.3-1.2-0.3-1.2"/>
<path id="path5513" class="st21" d="M148,144.9c-0.8-0.8-1.1-0.9-1.2-0.9"/>
<path id="path5515" class="st21" d="M148.3,144.8c-0.7-0.8-0.9-0.9-0.9-0.9"/>
<path id="path5517" class="st21" d="M152.7,147.9c-0.6-1-0.5-1.7-0.5-1.7c-1.1-0.2-1.6-0.5-1.6-0.5c0.1,0.5,0.1,0.7,0.1,0.7
	C151.5,147.8,152,147.6,152.7,147.9z"/>
<path id="path5519" class="st21" d="M152.1,147.5c-0.4-0.8-0.4-1.3-0.4-1.3"/>
<path id="path5521" class="st21" d="M151.6,147.1c-0.3-0.6-0.2-1-0.2-1"/>
<path id="path5523" class="st21" d="M151.2,146.8c-0.3-0.6-0.3-0.9-0.3-0.9"/>
<path id="path5525" class="st21" d="M149.9,149.3c-0.8-0.6-1.1-0.5-1.1-0.5c0.2-2.1,0.1-2.1,0.1-2.1
	C149.6,147.5,150.1,148.3,149.9,149.3z"/>
<path id="path5527" class="st21" d="M149.8,148.9c-0.7-0.7-0.9-0.6-0.9-0.6"/>
<path id="path5529" class="st21" d="M149.5,148.4c-0.5-0.4-0.6-0.4-0.6-0.4"/>
<path id="path5531" class="st21" d="M149.3,147.8c-0.3-0.3-0.4-0.3-0.4-0.3"/>
<path id="path5533" class="st21" d="M155,152.2c-0.2-0.1-0.4,0-0.4,0.2c-0.1,0.2,0,0.3,0.2,0.4c0.1,0,0.1,0,0.2,0
	c0.2,0.1,0.4,0,0.4-0.2c0.1-0.2,0-0.3-0.2-0.4C155.2,152.2,155.1,152.2,155,152.2z"/>
<path id="path5535" class="st21" d="M155,152.4c-0.1,0-0.2,0-0.2,0.1s0.1,0.2,0.2,0.2l0,0c0.1,0,0.1-0.1,0.1-0.1
	C155.1,152.5,155.1,152.4,155,152.4z"/>
<path id="path5537" class="st21" d="M152.7,147.9c-0.6-1-0.5-1.7-0.5-1.7c-1.1-0.2-1.6-0.5-1.6-0.5c0.1,0.5,0.1,0.7,0.1,0.7
	C151.5,147.8,152,147.6,152.7,147.9z"/>
<path id="path5539" class="st21" d="M149.9,149.3c-0.8-0.6-1.1-0.5-1.1-0.5c0.2-2.1,0.1-2.1,0.1-2.1
	C149.6,147.5,150.1,148.3,149.9,149.3z"/>
<path id="path5541" class="st21" d="M151.8,151.8c0,0-1.3-0.4-2.9-5.2c0,0-0.6-2-3.3-2.5c0-0.1,1.1,0,2.4-0.3
	c0.5-0.1,0.7-0.7,1.1-1.4c0,0-0.4,2.5,1,3.7c0,0,0.8,0.5,2.1,1.5c0,0,2.1,1.5,3.1,3.9c0,0,0.1,0.7,0.7,2.3c0.2,0.3,0,0.4,0,0.4
	c-0.2,0-0.3,0-0.4-0.1c-0.6,0.4-2.2-0.8-2.2-0.8c-0.6-0.3-0.9-0.6-0.9-0.6c-1.2-0.3-1.6-0.3-1.6-0.3c0.1-0.4,0.4-0.3,0.4-0.3
	C151.4,151.9,151.6,151.9,151.8,151.8L151.8,151.8z"/>
<path id="path5543" class="st21" d="M155.6,154.1c-0.8-0.3-1.5-1-1.5-1"/>
<path id="path5545" class="st21" d="M152.5,152.7c0.6,0.1,0.7,0.2,0.7,0.2"/>
<path id="path5547" class="st21" d="M153.5,152.6c-1.3-1-1.7-0.8-1.7-0.8"/>
<path id="path5549" class="st21" d="M152.6,152.3c-0.8-0.5-1-0.4-1-0.4"/>
<path id="path5551" class="st21" d="M152.4,152.4c-0.8-0.3-1.1-0.3-1.1-0.3"/>
<path id="path5553" class="st16" d="M153.4,153.3c0.8-1.7,1.9-1.8,1.9-1.8"/>
<path id="path5555" class="st16" d="M153.5,152.6c1-1,1.3-0.8,1.3-0.8"/>
<path id="path5557" class="st21" d="M149,144.8c-0.4-1-0.2-1.8-0.2-1.8"/>
<path id="path5559" class="st21" d="M148.6,144.9c-0.5-1.3-0.3-1.2-0.3-1.2"/>
<path id="path5561" class="st21" d="M148,144.9c-0.8-0.8-1.1-0.9-1.2-0.9"/>
<path id="path5563" class="st21" d="M148.3,144.8c-0.7-0.8-0.9-0.9-0.9-0.9"/>
<path id="path5565" class="st21" d="M152.1,147.5c-0.4-0.8-0.4-1.3-0.4-1.3"/>
<path id="path5567" class="st21" d="M151.6,147.1c-0.3-0.6-0.2-1-0.2-1"/>
<path id="path5569" class="st21" d="M151.2,146.8c-0.3-0.6-0.3-0.9-0.3-0.9"/>
<path id="path5571" class="st21" d="M149.8,148.9c-0.7-0.7-0.9-0.6-0.9-0.6"/>
<path id="path5573" class="st21" d="M149.5,148.4c-0.5-0.4-0.6-0.4-0.6-0.4"/>
<path id="path5575" class="st21" d="M149.3,147.8c-0.3-0.3-0.4-0.3-0.4-0.3"/>
<path id="path5577" class="st21" d="M155,152.2c-0.2-0.1-0.4,0-0.4,0.2c-0.1,0.2,0,0.3,0.2,0.4c0.1,0,0.1,0,0.2,0
	c0.2,0.1,0.4,0,0.4-0.2c0.1-0.2,0-0.3-0.2-0.4C155.2,152.2,155.1,152.2,155,152.2z"/>
<path id="path5579" d="M155,152.4c-0.1,0-0.2,0-0.2,0.1s0.1,0.2,0.2,0.2l0,0c0.1,0,0.1-0.1,0.1-0.1
	C155.1,152.5,155.1,152.4,155,152.4z"/>
<path id="path5583" class="st21" d="M138.6,136.5c0,0-1.3-0.4-2.9-5.2c0,0-0.6-2-3.3-2.5c0-0.1,1.1,0,2.4-0.3
	c0.5-0.1,0.7-0.7,1.1-1.4c0,0-0.4,2.5,1,3.7c0,0,0.8,0.5,2.1,1.5c0,0,2.1,1.5,3.1,3.9c0,0,0.1,0.7,0.7,2.3c0.2,0.3,0,0.4,0,0.4
	c-0.2,0-0.3,0-0.4-0.1c-0.6,0.4-2.2-0.8-2.2-0.8c-0.6-0.3-0.9-0.6-0.9-0.6c-1.2-0.3-1.6-0.3-1.6-0.3c0.1-0.4,0.4-0.3,0.4-0.3
	C138.2,136.6,138.4,136.6,138.6,136.5L138.6,136.5z"/>
<path id="path5585" class="st21" d="M142.4,138.8c-0.8-0.3-1.5-1-1.5-1"/>
<path id="path5587" class="st21" d="M139.4,137.4c0.6,0.1,0.7,0.2,0.7,0.2"/>
<path id="path5589" class="st21" d="M140.3,137.3c-1.3-1-1.7-0.8-1.7-0.8"/>
<path id="path5591" class="st21" d="M139.4,137c-0.8-0.5-1-0.4-1-0.4"/>
<path id="path5593" class="st21" d="M139.3,137.1c-0.8-0.3-1.1-0.3-1.1-0.3"/>
<path id="path5595" class="st21" d="M140.2,138c0.8-1.7,1.9-1.8,1.9-1.8"/>
<path id="path5597" class="st21" d="M140.3,137.3c1-1,1.3-0.8,1.3-0.8"/>
<path id="path5599" class="st21" d="M135.8,129.5c-0.4-1-0.2-1.8-0.2-1.8"/>
<path id="path5601" class="st21" d="M135.5,129.6c-0.5-1.3-0.3-1.2-0.3-1.2"/>
<path id="path5603" class="st21" d="M134.8,129.6c-0.8-0.8-1.1-0.9-1.2-0.9"/>
<path id="path5605" class="st21" d="M135.1,129.5c-0.7-0.8-0.9-0.9-0.9-0.9"/>
<path id="path5607" class="st21" d="M139.5,132.6c-0.6-1-0.5-1.7-0.5-1.7c-1.1-0.2-1.6-0.5-1.6-0.5c0.1,0.5,0.1,0.7,0.1,0.7
	C138.3,132.5,138.9,132.3,139.5,132.6z"/>
<path id="path5609" class="st21" d="M138.9,132.2c-0.4-0.8-0.4-1.3-0.4-1.3"/>
<path id="path5611" class="st21" d="M138.5,131.8c-0.3-0.6-0.2-1-0.2-1"/>
<path id="path5613" class="st21" d="M138,131.5c-0.3-0.6-0.3-0.9-0.3-0.9"/>
<path id="path5615" class="st21" d="M136.7,134c-0.8-0.6-1.1-0.5-1.1-0.5c0.2-2.1,0.1-2.1,0.1-2.1C136.4,132.2,136.9,133,136.7,134z
	"/>
<path id="path5617" class="st21" d="M136.6,133.6c-0.7-0.7-0.9-0.6-0.9-0.6"/>
<path id="path5619" class="st21" d="M136.4,133.1c-0.5-0.4-0.6-0.4-0.6-0.4"/>
<path id="path5621" class="st21" d="M136.1,132.5c-0.3-0.3-0.4-0.3-0.4-0.3"/>
<path id="path5623" class="st21" d="M141.8,136.9c-0.2-0.1-0.4,0-0.4,0.2c-0.1,0.2,0,0.3,0.2,0.4c0.1,0,0.1,0,0.2,0
	c0.2,0,0.4-0.1,0.4-0.3C142.2,137.1,142.1,136.9,141.8,136.9z"/>
<path id="path5625" class="st21" d="M141.8,137.1c-0.1,0-0.1,0.1-0.1,0.1c0,0.1,0.1,0.1,0.1,0.1l0,0c0.1,0,0.1-0.1,0.1-0.1
	C142,137.2,141.9,137.1,141.8,137.1z"/>
<path id="path5627" class="st21" d="M139.5,132.6c-0.6-1-0.5-1.7-0.5-1.7c-1.1-0.2-1.6-0.5-1.6-0.5c0.1,0.5,0.1,0.7,0.1,0.7
	C138.3,132.5,138.9,132.3,139.5,132.6z"/>
<path id="path5629" class="st21" d="M136.7,134c-0.8-0.6-1.1-0.5-1.1-0.5c0.2-2.1,0.1-2.1,0.1-2.1C136.4,132.2,136.9,133,136.7,134z
	"/>
<path id="path5631" class="st21" d="M138.6,136.5c0,0-1.3-0.4-2.9-5.2c0,0-0.6-2-3.3-2.5c0-0.1,1.1,0,2.4-0.3
	c0.5-0.1,0.7-0.7,1.1-1.4c0,0-0.4,2.5,1,3.7c0,0,0.8,0.5,2.1,1.5c0,0,2.1,1.5,3.1,3.9c0,0,0.1,0.7,0.7,2.3c0.2,0.3,0,0.4,0,0.4
	c-0.2,0-0.3,0-0.4-0.1c-0.6,0.4-2.2-0.8-2.2-0.8c-0.6-0.3-0.9-0.6-0.9-0.6c-1.2-0.3-1.6-0.3-1.6-0.3c0.1-0.4,0.4-0.3,0.4-0.3
	C138.2,136.6,138.4,136.6,138.6,136.5L138.6,136.5z"/>
<path id="path5633" class="st21" d="M142.4,138.8c-0.8-0.3-1.5-1-1.5-1"/>
<path id="path5635" class="st21" d="M139.4,137.4c0.6,0.1,0.7,0.2,0.7,0.2"/>
<path id="path5637" class="st21" d="M140.3,137.3c-1.3-1-1.7-0.8-1.7-0.8"/>
<path id="path5639" class="st21" d="M139.4,137c-0.8-0.5-1-0.4-1-0.4"/>
<path id="path5641" class="st21" d="M139.3,137.1c-0.8-0.3-1.1-0.3-1.1-0.3"/>
<path id="path5643" class="st16" d="M140.2,138c0.8-1.7,1.9-1.8,1.9-1.8"/>
<path id="path5645" class="st16" d="M140.3,137.3c1-1,1.3-0.8,1.3-0.8"/>
<path id="path5647" class="st21" d="M135.8,129.5c-0.4-1-0.2-1.8-0.2-1.8"/>
<path id="path5649" class="st21" d="M135.5,129.6c-0.5-1.3-0.3-1.2-0.3-1.2"/>
<path id="path5651" class="st21" d="M134.8,129.6c-0.8-0.8-1.1-0.9-1.2-0.9"/>
<path id="path5653" class="st21" d="M135.1,129.5c-0.7-0.8-0.9-0.9-0.9-0.9"/>
<path id="path5655" class="st21" d="M138.9,132.2c-0.4-0.8-0.4-1.3-0.4-1.3"/>
<path id="path5657" class="st21" d="M138.5,131.8c-0.3-0.6-0.2-1-0.2-1"/>
<path id="path5659" class="st21" d="M138,131.5c-0.3-0.6-0.3-0.9-0.3-0.9"/>
<path id="path5661" class="st21" d="M136.6,133.6c-0.7-0.7-0.9-0.6-0.9-0.6"/>
<path id="path5663" class="st21" d="M136.4,133.1c-0.5-0.4-0.6-0.4-0.6-0.4"/>
<path id="path5665" class="st21" d="M136.1,132.5c-0.3-0.3-0.4-0.3-0.4-0.3"/>
<path id="path5667" class="st21" d="M141.8,136.9c-0.2-0.1-0.4,0-0.4,0.2c-0.1,0.2,0,0.3,0.2,0.4c0.1,0,0.1,0,0.2,0
	c0.2,0,0.4-0.1,0.4-0.3C142.2,137.1,142.1,136.9,141.8,136.9z"/>
<path id="path5669" d="M141.8,137.1c-0.1,0-0.1,0.1-0.1,0.1c0,0.1,0.1,0.1,0.1,0.1l0,0c0.1,0,0.1-0.1,0.1-0.1
	C142,137.2,141.9,137.1,141.8,137.1z"/>
<path id="path5671" d="M116.8,118.7l-1.6-0.9l-1.6,0.8l0.3-1.8l-1.3-1.3l1.8-0.3l0.8-1.6l0.8,1.6l1.8,0.3l-1.3,1.3L116.8,118.7z"/>
<path id="path5673" d="M116.8,142.3l-1.6-0.9l-1.6,0.8l0.3-1.8l-1.3-1.3l1.8-0.3l0.8-1.6l0.8,1.6l1.8,0.3l-1.3,1.3L116.8,142.3z"/>
<path id="path5675" d="M170.1,142.3l-1.6-0.9l-1.6,0.8l0.3-1.8l-1.3-1.3l1.8-0.3l0.8-1.6l0.8,1.6l1.8,0.3l-1.3,1.3L170.1,142.3z"/>
<path id="path5677" d="M170.1,118.7l-1.6-0.9l-1.6,0.8l0.3-1.8l-1.3-1.3l1.8-0.3l0.8-1.6l0.8,1.6l1.8,0.3l-1.3,1.3L170.1,118.7z"/>
<path id="path5679" class="st22" d="M111.7,139.1c2.1,20.4,18,28.1,29.9,27.9c10.6-0.1,29.7-6.4,30.5-27.9"/>
<path id="path5683" d="M121.3,157.8l0.7,0.5c-0.1,0.2-0.2,0.5-0.2,0.7s0.1,0.4,0.3,0.6c0.2,0.2,0.4,0.3,0.6,0.3s0.3-0.1,0.4-0.2
	c0.1-0.1,0.1-0.2,0.1-0.3s0-0.2-0.1-0.3s-0.2-0.3-0.4-0.6c-0.3-0.4-0.4-0.7-0.4-1s0.1-0.6,0.3-0.9c0.1-0.2,0.3-0.3,0.5-0.3
	c0.2-0.1,0.4-0.1,0.7,0c0.2,0.1,0.5,0.2,0.7,0.4c0.4,0.4,0.6,0.7,0.7,1.1c0,0.4-0.1,0.7-0.3,1l-0.7-0.5c0.1-0.2,0.2-0.4,0.1-0.5
	c0-0.2-0.1-0.3-0.3-0.5c-0.2-0.2-0.4-0.3-0.5-0.3s-0.2,0-0.3,0.1c-0.1,0.1-0.1,0.2-0.1,0.3s0.2,0.4,0.4,0.7c0.2,0.3,0.4,0.6,0.5,0.8
	s0.1,0.4,0.1,0.6c0,0.2-0.1,0.4-0.3,0.6c-0.2,0.2-0.4,0.3-0.6,0.4c-0.2,0.1-0.5,0.1-0.7,0c-0.3-0.1-0.5-0.3-0.8-0.5
	c-0.4-0.4-0.6-0.7-0.7-1.1C120.9,158.6,121,158.2,121.3,157.8L121.3,157.8z"/>
<path id="path5685" d="M126.7,163.7l-0.8-0.5l0.2-1l-1.4-0.9l-0.8,0.6l-0.8-0.5l3.7-2.6l0.8,0.5L126.7,163.7z M126.3,161.4l0.4-1.6
	l-1.3,1L126.3,161.4z M126.8,158.4l-0.3-0.2c0,0,0-0.1,0.1-0.1c0.1-0.2,0.2-0.3,0.4-0.3c0.1,0,0.3,0,0.4,0.1c0.1,0,0.1,0.1,0.1,0.1
	s0.1,0.1,0.2,0.3c0.1,0.1,0.2,0.2,0.2,0.3c0.1,0,0.1,0,0.2,0c0.1,0,0.1,0,0.2-0.1l0.3,0.2c-0.1,0.2-0.3,0.3-0.4,0.4
	c-0.1,0-0.3,0-0.4-0.1c-0.1,0-0.1-0.1-0.2-0.1c0,0-0.1-0.1-0.2-0.3s-0.2-0.3-0.3-0.3c-0.1,0-0.1,0-0.2,0
	C126.9,158.3,126.9,158.3,126.8,158.4L126.8,158.4z"/>
<path id="path5687" d="M127.9,161.9c0.2-0.4,0.4-0.7,0.6-0.9s0.4-0.3,0.6-0.4c0.2-0.1,0.4-0.1,0.7-0.1s0.6,0.1,0.9,0.2
	c0.6,0.3,0.9,0.6,1.1,1.2c0.2,0.5,0.1,1.1-0.2,1.7c-0.3,0.6-0.7,1-1.2,1.2s-1,0.2-1.6-0.1s-0.9-0.6-1.1-1.2S127.6,162.5,127.9,161.9
	L127.9,161.9z M128.7,162.3c-0.2,0.4-0.3,0.8-0.2,1.1s0.3,0.5,0.6,0.7c0.3,0.1,0.6,0.1,0.9,0c0.3-0.1,0.6-0.4,0.8-0.9
	c0.2-0.4,0.3-0.8,0.2-1.1s-0.3-0.5-0.6-0.7c-0.3-0.1-0.6-0.2-0.9,0C129.1,161.5,128.9,161.8,128.7,162.3L128.7,162.3z"/>
<path id="path5689" d="M135.9,165.4l0.7,0.4c-0.2,0.4-0.5,0.7-0.9,0.9c-0.3,0.2-0.7,0.2-1.2,0.1c-0.5-0.1-1-0.4-1.2-0.9
	c-0.3-0.5-0.3-1-0.2-1.7c0.2-0.7,0.5-1.2,0.9-1.5s1-0.4,1.5-0.2c0.5,0.1,0.9,0.4,1.1,0.7c0.1,0.2,0.2,0.5,0.2,0.9h-0.9
	c0-0.2-0.1-0.4-0.2-0.6c-0.1-0.2-0.3-0.3-0.5-0.3c-0.3-0.1-0.6,0-0.8,0.2s-0.4,0.5-0.5,1s-0.1,0.9,0,1.2s0.4,0.4,0.7,0.5
	c0.2,0.1,0.4,0,0.6-0.1C135.6,165.8,135.8,165.7,135.9,165.4L135.9,165.4z"/>
<path id="path5691" d="M137.1,167.2l0.4-4.2l1.8,0.2c0.5,0,0.8,0.1,1,0.2c0.2,0.1,0.3,0.2,0.5,0.4s0.1,0.4,0.1,0.7s-0.1,0.6-0.4,0.8
	c-0.2,0.2-0.5,0.3-0.9,0.3c0.2,0.1,0.3,0.3,0.4,0.4c0.1,0.1,0.2,0.4,0.4,0.7l0.4,0.9l-1-0.1l-0.5-1c-0.2-0.3-0.3-0.6-0.4-0.7
	s-0.2-0.2-0.2-0.2c-0.1,0-0.2-0.1-0.4-0.1h-0.2l-0.2,1.8L137.1,167.2z M138.2,164.8l0.6,0.1c0.4,0,0.7,0,0.8,0s0.2-0.1,0.3-0.2
	c0.1-0.1,0.1-0.2,0.1-0.3s0-0.3-0.1-0.4c-0.1-0.1-0.2-0.2-0.3-0.2s-0.3,0-0.6-0.1l-0.7-0.1L138.2,164.8z"/>
<path id="path5693" d="M141.4,167.5l-0.1-4.2h0.9l0.1,4.2H141.4z"/>
<path id="path5695" d="M142.7,166.1l0.8-0.2c0.1,0.3,0.2,0.5,0.4,0.6s0.4,0.2,0.6,0.1c0.3,0,0.5-0.1,0.6-0.2
	c0.1-0.1,0.2-0.3,0.2-0.4c0-0.1,0-0.2-0.1-0.2c-0.1-0.1-0.2-0.1-0.3-0.2c-0.1,0-0.3-0.1-0.7-0.1c-0.5-0.1-0.8-0.2-1-0.3
	c-0.3-0.2-0.4-0.5-0.5-0.8c0-0.2,0-0.4,0.1-0.6c0.1-0.2,0.3-0.4,0.5-0.5s0.5-0.2,0.8-0.2c0.5-0.1,0.9,0,1.2,0.2s0.5,0.5,0.5,0.9
	l-0.8,0.1c-0.1-0.2-0.2-0.4-0.3-0.4c-0.1-0.1-0.3-0.1-0.6-0.1c-0.2,0-0.4,0.1-0.6,0.2c-0.1,0.1-0.1,0.2-0.1,0.3s0.1,0.2,0.2,0.2
	c0.1,0.1,0.4,0.1,0.8,0.2c0.4,0.1,0.7,0.1,1,0.2c0.2,0.1,0.4,0.2,0.5,0.4s0.2,0.4,0.2,0.7c0,0.2,0,0.5-0.1,0.7s-0.3,0.4-0.5,0.5
	s-0.5,0.2-0.9,0.2c-0.5,0.1-1,0-1.3-0.2C143,166.9,142.8,166.6,142.7,166.1L142.7,166.1z"/>
<path id="path5697" d="M147.9,166.8l-0.7-3.4l-1.2,0.3l-0.1-0.7l3.3-0.7l0.1,0.7l-1.2,0.3l0.7,3.4L147.9,166.8z"/>
<path id="path5699" d="M149.7,164.3c-0.1-0.4-0.2-0.8-0.2-1.1c0-0.2,0.1-0.5,0.2-0.7c0.1-0.2,0.2-0.4,0.4-0.5
	c0.2-0.2,0.5-0.3,0.8-0.4c0.6-0.2,1.1-0.2,1.6,0.1c0.5,0.2,0.8,0.7,1,1.4c0.2,0.6,0.2,1.2,0,1.7s-0.6,0.8-1.2,1
	c-0.6,0.2-1.1,0.2-1.6-0.1S149.9,164.9,149.7,164.3L149.7,164.3z M150.5,164c0.2,0.5,0.4,0.8,0.7,0.9c0.3,0.2,0.6,0.2,0.9,0.1
	c0.3-0.1,0.6-0.3,0.7-0.6c0.1-0.3,0.1-0.7,0-1.2c-0.2-0.5-0.4-0.8-0.6-0.9c-0.3-0.2-0.6-0.2-0.9-0.1c-0.3,0.1-0.6,0.3-0.7,0.6
	C150.3,163.1,150.3,163.5,150.5,164L150.5,164z M150.4,161.5l0.1-0.9l0.9-0.3l-0.5,1.1L150.4,161.5z"/>
<path id="path5701" d="M155.8,164.2l-3.2-3.2l0.8-0.4l2.3,2.4l-0.4-3.3l0.8-0.4l0.5,4.5L155.8,164.2z"/>
<path id="path5703" d="M161.6,160.9l-0.8,0.5l-0.8-0.6l-1.4,0.9l0.2,1l-0.8,0.5l-0.9-4.5l0.8-0.5L161.6,160.9z M159.4,160.3l-1.3-1
	l0.4,1.6L159.4,160.3z M156.8,158.6l-0.3,0.2c0,0,0-0.1-0.1-0.1c-0.1-0.2-0.2-0.3-0.1-0.5c0-0.1,0.1-0.3,0.2-0.3
	c0.1,0,0.1-0.1,0.2-0.1c0.1,0,0.2,0,0.3-0.1c0.2,0,0.3-0.1,0.4-0.1c0.1,0,0.1-0.1,0.1-0.1c0-0.1,0-0.1,0-0.2l0.3-0.2
	c0.1,0.2,0.2,0.4,0.2,0.5s-0.1,0.3-0.2,0.3c-0.1,0-0.1,0.1-0.2,0.1c0,0-0.2,0-0.3,0.1c-0.2,0-0.3,0.1-0.4,0.1
	c-0.1,0-0.1,0.1-0.1,0.1C156.7,158.5,156.8,158.6,156.8,158.6L156.8,158.6z"/>
<path id="path5705" d="M160.5,159.1c-0.3-0.3-0.5-0.6-0.6-0.9c-0.1-0.2-0.1-0.5-0.1-0.7s0.1-0.5,0.2-0.7c0.1-0.3,0.3-0.5,0.6-0.7
	c0.5-0.4,1-0.6,1.5-0.6s1,0.3,1.5,0.8s0.7,1,0.7,1.6c0,0.5-0.3,1-0.7,1.4c-0.5,0.4-1,0.6-1.5,0.6
	C161.4,159.9,160.9,159.6,160.5,159.1L160.5,159.1z M161.1,158.5c0.3,0.4,0.6,0.6,1,0.6s0.6-0.1,0.9-0.3c0.3-0.2,0.4-0.5,0.4-0.8
	s-0.2-0.7-0.5-1c-0.3-0.4-0.6-0.6-1-0.6c-0.3,0-0.6,0.1-0.9,0.3c-0.3,0.2-0.4,0.5-0.4,0.8S160.8,158.2,161.1,158.5L161.1,158.5z"/>
<path id="field" class="st3" d="M0,0v196.8h0.2L141.7,0H0z M283.5,196.8l-0.3,0.1L283.5,196.8L283.5,196.8z"/>
<g id="g17642" transform="matrix(0.44622793,0,0,0.44622793,382.4084,-151.36746)">
	<path id="path16341" class="st23" d="M-539.6,535.6c-4.1,0-8,0.1-11.9,0.3c-3.8,0.2-7.5,0.4-11.1,0.7c-3.5,0.3-6.9,0.7-10,1
		c-3.1,0.4-6.1,0.8-8.7,1.3s-5.1,0.9-7.2,1.4c-2.1,0.5-3.9,0.9-5.4,1.4c-1.5,0.4-2.7,0.9-3.4,1.2c-0.4,0.2-0.7,0.4-0.9,0.5
		c-0.2,0.2-0.3,0.3-0.3,0.5c0,0.1,0.1,0.3,0.3,0.5s0.5,0.4,0.9,0.6c0.8,0.4,1.9,0.8,3.4,1.3s3.3,0.9,5.4,1.4c2.1,0.5,4.5,1,7.2,1.4
		c2.7,0.5,5.6,0.9,8.7,1.3c3.1,0.4,6.5,0.8,10,1.1s7.2,0.6,11.1,0.7c3.8,0.2,7.8,0.3,11.9,0.3c4.1,0,8-0.1,11.9-0.3
		c3.8-0.2,7.5-0.4,11.1-0.7c3.5-0.3,6.9-0.7,10-1.1c3.1-0.4,6.1-0.8,8.7-1.3c2.7-0.5,5.1-0.9,7.2-1.4s3.9-1,5.4-1.4s2.7-0.9,3.4-1.3
		c0.4-0.2,0.7-0.4,0.9-0.6c0.2-0.2,0.3-0.3,0.3-0.5c0-0.1-0.1-0.3-0.3-0.5c-0.2-0.2-0.5-0.3-0.9-0.5c-0.8-0.4-1.9-0.8-3.4-1.2
		s-3.3-0.9-5.4-1.4s-4.5-0.9-7.2-1.4s-5.6-0.9-8.7-1.3c-3.1-0.4-6.5-0.7-10-1s-7.2-0.5-11.1-0.7
		C-531.6,535.6-535.5,535.6-539.6,535.6z"/>
	<path id="path6286" class="st24" d="M-544.1,552.8v-18.4 M-548.7,553.4l0.1-19.5 M-552.1,553.6v-19.9"/>
	<path id="path6288" class="st25" d="M-554.9,553.9v-20.1"/>
	<path id="path6290" class="st26" d="M-557.6,553.9v-20.1"/>
	<path id="path6292" class="st27" d="M-560.2,553.9v-20.1"/>
	<path id="path6294" class="st28" d="M-562.7,553.9v-20.1"/>
	<path id="path6296" class="st29" d="M-565,553.9v-20.1"/>
	<path id="path6298" class="st30" d="M-569.3,552.8l-0.1-18.3 M-567.3,553v-19.1"/>
	<path id="path6301" class="st31" d="M-573.3,552v-16.9 M-571.3,552.4l-0.1-17.9"/>
	<path id="path6303" class="st32" d="M-578.6,551v-14.8 M-576.9,551.2v-15.5 M-575.1,551.7v-16.1"/>
	<path id="path6305" class="st33" d="M-580.5,550.9v-14.3"/>
	<path id="path6307" class="st34" d="M-582.2,550.2v-13.4"/>
	<path id="path6309" class="st35" d="M-584.1,549.8v-12.4"/>
	<path id="path6311" class="st36" d="M-587.9,548.7l-0.1-9.9 M-586,549.2v-11.1"/>
	<path id="path6313" class="st37" d="M-589.9,547.9v-8.7"/>
	<path id="path6315" class="st38" d="M-591.7,547.2V540"/>
	<path id="path6317" class="st39" d="M-593.7,546.2v-5.7"/>
	<path id="path6319" class="st40" d="M-595.7,545.7v-4.2"/>
	<path id="path6321" class="st41" d="M-597.8,544.8v-2"/>
	<path id="path6323" class="st25" d="M-524.9,553.9v-20.1"/>
	<path id="path6325" class="st26" d="M-522.2,553.9v-20.1"/>
	<path id="path6327" class="st27" d="M-519.6,553.9v-20.1"/>
	<path id="path6329" class="st28" d="M-517.1,553.9v-20.1"/>
	<path id="path6331" class="st29" d="M-514.8,553.9v-20.1"/>
	<path id="path6333" class="st30" d="M-510.5,552.8l0.1-18.3 M-512.6,553v-19.1"/>
	<path id="path6335" class="st31" d="M-506.6,552v-16.9 M-508.6,552.4l0.1-17.9"/>
	<path id="path6337" class="st32" d="M-501.2,551v-14.8 M-503,551.2v-15.5 M-504.8,551.7v-16.1"/>
	<path id="path6339" class="st33" d="M-499.4,550.9v-14.3"/>
	<path id="path6341" class="st34" d="M-497.6,550.2v-13.4"/>
	<path id="path6343" class="st35" d="M-495.7,549.8v-12.4"/>
	<path id="path6345" class="st36" d="M-491.9,548.7l0.1-9.9 M-493.9,549.2v-11.1"/>
	<path id="path6347" class="st37" d="M-489.9,547.9v-8.7"/>
	<path id="path6349" class="st38" d="M-488.1,547.2V540"/>
	<path id="path6351" class="st39" d="M-486.2,546.2v-5.7"/>
	<path id="path6353" class="st40" d="M-484.2,545.7v-4.2"/>
	<path id="path6355" class="st41" d="M-482,544.8v-2"/>
	<path id="path6357" class="st24" d="M-535.7,552.8v-18.4 M-531.1,553.4l-0.1-19.5 M-527.8,553.6v-19.9"/>
	<path id="path6359" class="st42" d="M-531.2,467.5l0.4-1.6h1.3v3.6l-1.8-0.3L-531.2,467.5L-531.2,467.5z"/>
	<path id="path6361" class="st42" d="M-547.7,467.5l-0.4-1.6h-1.3v3.6l1.8-0.3C-547.7,469.2-547.7,467.5-547.7,467.5z"/>
	<path id="path6365" class="st43" d="M-615.9,512.9l9,17.2l133.1,0.2l10.3-17.4c-4.2-14.4-49-22.9-76.2-22.9
		C-567.3,489.9-612.3,498.6-615.9,512.9z"/>
	<path id="path6367" class="st43" d="M-603.4,544c2.8-15.8,120.2-16.8,127.5,0c0.3-3.2,4.9-15.5,6.3-16.8
		c4.8-12.8-32.8-20.5-70.4-20.4c-37.5,0.1-75,8.1-69.7,20.2C-608.1,528.6-604,540.8-603.4,544L-603.4,544z"/>
	<path id="path6369" class="st44" d="M-604.8,539.3c0,0,5.3-12.7,65.1-12.7c59.6,0,64.9,12.7,64.9,12.7"/>
	<path id="path6371" class="st44" d="M-473.6,535.9c-3.3-8-36.8-13.7-66.1-13.7c-29.3,0-63,5.6-66.2,13.5"/>
	<path id="path6373" class="st44" d="M-471.1,529.6c-0.3-9.5-35-16.3-68.6-16.3c-33.9,0-68.7,7.2-68.5,16.3"/>
	<path id="path6375" class="st44" d="M-472.3,532.6c-3.3-8.8-34.2-15-67.4-14.9s-64.1,5.9-67.3,14.7"/>
	<path id="path6379" class="st44" d="M-539.7,526.6v4.4"/>
	<path id="path6381" class="st44" d="M-553.3,526.8l0.2,4.4"/>
	<path id="path6383" class="st44" d="M-565.8,527.6l0.4,4.4"/>
	<path id="path6385" class="st44" d="M-577.6,528.9l0.8,5"/>
	<path id="path6387" class="st44" d="M-588.9,531.3l0.5,4.7"/>
	<path id="path6389" class="st44" d="M-597.7,534.3l0.9,3.4"/>
	<path id="path6391" class="st44" d="M-603.1,537.6l0.9,3.4"/>
	<path id="path6393" class="st44" d="M-526.1,526.8l-0.2,4.4"/>
	<path id="path6395" class="st44" d="M-513.6,527.6l-0.4,4.4"/>
	<path id="path6397" class="st44" d="M-501.8,528.9l-0.5,4.3"/>
	<path id="path6399" class="st44" d="M-490.4,531.2l-0.5,4.3"/>
	<path id="path6401" class="st44" d="M-482,534l-0.9,3.4"/>
	<path id="path6403" class="st44" d="M-476.1,537.7l-1.1,2.9"/>
	<path id="path6407" class="st44" d="M-539.7,517.8v4.5"/>
	<path id="path6409" class="st44" d="M-553.6,518.1l0.2,4.5"/>
	<path id="path6411" class="st44" d="M-566.5,519l0.4,4.6"/>
	<path id="path6413" class="st44" d="M-578.5,520.7l0.6,4.6"/>
	<path id="path6415" class="st44" d="M-590,523.2l0.6,4.3"/>
	<path id="path6417" class="st44" d="M-599.3,526.3l0.9,3.9"/>
	<path id="path6419" class="st44" d="M-605.4,530l1.1,3.8"/>
	<path id="path6421" class="st44" d="M-525.8,518.1l-0.2,4.5"/>
	<path id="path6423" class="st44" d="M-512.9,519l-0.4,4.6"/>
	<path id="path6425" class="st44" d="M-500.9,520.7l-0.6,4.6"/>
	<path id="path6427" class="st44" d="M-489.4,523.2l-0.6,4.3"/>
	<path id="path6429" class="st44" d="M-480.1,526.3l-1,4.2"/>
	<path id="path6431" class="st44" d="M-474,530.5l-1.2,3.3"/>
	<path id="path6435" class="st44" d="M-539.7,509v4.5"/>
	<path id="path6437" class="st44" d="M-567.2,510.4l0.4,4.5"/>
	<path id="path6439" class="st44" d="M-579.6,512l0.6,4.6"/>
	<path id="path6441" class="st44" d="M-591.8,514.7l1.1,4.4"/>
	<path id="path6443" class="st44" d="M-601.5,518.2l1.1,4.2"/>
	<path id="path6445" class="st44" d="M-608.7,523.3l1.8,3.3"/>
	<path id="path6447" class="st44" d="M-554.1,509.4l0.2,4.5"/>
	<path id="path6449" class="st44" d="M-512.2,510.4l-0.4,4.5"/>
	<path id="path6451" class="st44" d="M-499.8,512l-0.6,4.6"/>
	<path id="path6453" class="st44" d="M-487.6,514.7l-1.1,4.4"/>
	<path id="path6455" class="st44" d="M-477.9,518.2l-1.1,3.9"/>
	<path id="path6457" class="st44" d="M-470.7,523.3l-1.8,3.3"/>
	<path id="path6459" class="st44" d="M-525.3,509.4l-0.2,4.5"/>
	<path id="path6461" class="st44" d="M-613.1,518.3c0,0,11-18.2,73.3-18.2c62.1,0,73.3,18.2,73.3,18.2"/>
	<path id="path6463" class="st44" d="M-465,515.7c-3.6-12.1-42-20.7-74.7-20.7s-71.1,8.6-74.7,20.7"/>
	<path id="path6467" class="st44" d="M-609.1,518.6l-1.5-3"/>
	<path id="path6469" class="st44" d="M-612.3,512.2l-1.5-3.1"/>
	<path id="path6471" class="st44" d="M-602.4,514.6l-1.5-3.5"/>
	<path id="path6473" class="st44" d="M-605.5,507.2l-1.5-3.6"/>
	<path id="path6475" class="st44" d="M-592.8,511.1l-1.4-4.1"/>
	<path id="path6477" class="st44" d="M-595.5,503l-1.3-4"/>
	<path id="path6479" class="st44" d="M-580.4,508.2l-1.1-4.6"/>
	<path id="path6481" class="st44" d="M-582.5,499.5l-1-4.3"/>
	<path id="path6483" class="st44" d="M-569.1,497.1l-0.7-4.6"/>
	<path id="path6485" class="st44" d="M-568.4,501.6l0.8,4.9"/>
	<path id="path6487" class="st44" d="M-554.5,505.5l-0.4-5.1"/>
	<path id="path6489" class="st44" d="M-555.3,495.6l-0.4-4.9"/>
	<path id="path6491" class="st44" d="M-539.7,495v-5.1"/>
	<path id="path6493" class="st44" d="M-539.7,500.1v5.1"/>
	<path id="path6495" class="st44" d="M-470.3,518.6l1.5-3"/>
	<path id="path6497" class="st44" d="M-467.1,512.2l1.5-3.1"/>
	<path id="path6499" class="st44" d="M-477,514.6l1.5-3.5"/>
	<path id="path6501" class="st44" d="M-473.9,507.2l1.5-3.6"/>
	<path id="path6503" class="st44" d="M-486.6,511.1l1.4-4.1"/>
	<path id="path6505" class="st44" d="M-483.9,503l1.3-4"/>
	<path id="path6507" class="st44" d="M-499,508.2l1.1-4.6"/>
	<path id="path6509" class="st44" d="M-496.9,499.5l1-4.3"/>
	<path id="path6511" class="st44" d="M-510.3,497.1l0.7-4.6"/>
	<path id="path6513" class="st44" d="M-510.9,501.6l-0.8,4.9"/>
	<path id="path6515" class="st44" d="M-524.9,505.5l0.4-5.1"/>
	<path id="path6517" class="st44" d="M-524.1,495.6l0.4-4.9"/>
	<path id="path6523" class="st44" d="M-532.8,526.8v-4.5"/>
	<path id="path6525" class="st44" d="M-532.6,517.8l0.2-4.4"/>
	<path id="path6527" class="st44" d="M-532.1,500.1l0.2-5"/>
	<path id="path6529" class="st44" d="M-517.2,496.2l-0.6,4.6"/>
	<path id="path6531" class="st44" d="M-503,498.3l-1.1,4.2"/>
	<path id="path6533" class="st44" d="M-490,501.3l-1.3,3.8"/>
	<path id="path6535" class="st44" d="M-478.4,505.2l-1.7,3.7"/>
	<path id="path6537" class="st44" d="M-470.2,509.5l-1.8,3.7"/>
	<path id="path6539" class="st44" d="M-519.1,514.2l-0.4,4.2"/>
	<path id="path6541" class="st44" d="M-519.8,523.1l-0.4,4"/>
	<path id="path6543" class="st44" d="M-507.5,528.2l0.4-3.9"/>
	<path id="path6545" class="st44" d="M-506.6,519.8l0.5-4.2"/>
	<path id="path6547" class="st44" d="M-494.2,517.7l-0.6,4.2"/>
	<path id="path6549" class="st44" d="M-495.5,526.2l-0.6,3.7"/>
	<path id="path6551" class="st44" d="M-486.1,532.5l0.7-3.6"/>
	<path id="path6553" class="st44" d="M-479,535.7l1.1-3.7"/>
	<path id="path6555" class="st44" d="M-484.6,524.5l0.9-4.1"/>
	<path id="path6557" class="st44" d="M-476.9,527.8l1.4-3.8"/>
	<path id="path6561" class="st44" d="M-546.6,526.8v-4.5"/>
	<path id="path6563" class="st44" d="M-546.8,517.8l-0.2-4.4"/>
	<path id="path6565" class="st44" d="M-547.3,500.1l-0.2-5"/>
	<path id="path6567" class="st44" d="M-562.2,496.2l0.6,4.6"/>
	<path id="path6569" class="st44" d="M-576.4,498.3l1.1,4.2"/>
	<path id="path6571" class="st44" d="M-589.4,501.3l1.3,3.8"/>
	<path id="path6573" class="st44" d="M-601,505.2l1.7,3.7"/>
	<path id="path6575" class="st44" d="M-609.2,509.5l1.8,3.7"/>
	<path id="path6577" class="st44" d="M-560.3,514.2l0.4,4.2"/>
	<path id="path6579" class="st44" d="M-559.6,523.1l0.4,4"/>
	<path id="path6581" class="st44" d="M-571.9,528.2l-0.4-3.9"/>
	<path id="path6583" class="st44" d="M-572.8,519.8l-0.5-4.2"/>
	<path id="path6585" class="st44" d="M-585.2,517.7l0.6,4.2"/>
	<path id="path6587" class="st44" d="M-583.9,526.2l0.6,3.5"/>
	<path id="path6589" class="st44" d="M-593.4,532.5l-0.7-3.9"/>
	<path id="path6591" class="st44" d="M-600.7,535.7l-1.1-3.8"/>
	<path id="path6593" class="st44" d="M-594.8,524.5l-0.9-4.1"/>
	<path id="path6595" class="st44" d="M-602.6,527.9l-1.3-3.7"/>
	<path id="path6597" class="st45" d="M-552,465.9v6.1c1.9,0.9,3,1.8,3.2,2.9c0,12.2-1,23.3-3.9,32h12.7h0.8h12.7
		c-2.9-8.7-3.8-19.8-3.9-32c0.4-1.3,1.7-2.1,3.2-2.9v-6.1h-3.6v2.8h-3.6v-2.8h-3.6v2.8h-3.5v-2.8h-3.6v2.8h-3.6v-2.8H-552
		L-552,465.9z"/>
	<path id="path6599" class="st44" d="M-552,472h24.9C-527,472-552,472-552,472z"/>
	<path id="path6601" class="st44" d="M-548.7,474.9h18.3C-530.3,474.9-548.7,474.9-548.7,474.9z"/>
	<path id="path6603" class="st44" d="M-550.6,499.4h22.2"/>
	<path id="path6605" class="st44" d="M-549.8,494.5h20.6"/>
	<path id="path6607" class="st44" d="M-549.3,489.6h19.6"/>
	<path id="path6609" class="st44" d="M-548.9,484.7h18.8"/>
	<path id="path6611" class="st44" d="M-548.8,479.8h18.6"/>
	<path id="path6613" class="st46" d="M-543.5,481.4c-0.7,0-1.3,0.5-1.4,2c0,1.6,0,4.6,0,4.6h2.9c0,0,0-2.9,0-4.5s-0.7-2-1.5-2
		C-543.4,481.4-543.4,481.4-543.5,481.4L-543.5,481.4z"/>
	<path id="path6615" class="st46" d="M-535.8,481.4c-0.7,0-1.3,0.5-1.4,2c0,1.6,0,4.6,0,4.6h2.9c0,0,0-2.9,0-4.6
		C-534.3,481.8-535,481.4-535.8,481.4C-535.7,481.4-535.7,481.4-535.8,481.4L-535.8,481.4z"/>
	<path id="path6619" class="st44" d="M-543.4,489.5V488"/>
	<path id="path6621" class="st44" d="M-535.6,489.5V488"/>
	<path id="path6623" class="st44" d="M-539.5,489.7v4.9"/>
	<path id="path6627" class="st44" d="M-547.3,505.4v-5.8"/>
	<path id="path6629" class="st44" d="M-531.7,505.4v-5.8"/>
	<path id="path6633" class="st44" d="M-547.3,494.6v-4.9"/>
	<path id="path6635" class="st44" d="M-531.7,494.6v-4.9"/>
	<path id="path6639" class="st44" d="M-539.5,479.7v5.1"/>
	<path id="path6641" class="st44" d="M-547.3,484.7v-4.8"/>
	<path id="path6643" class="st44" d="M-531.7,484.7v-4.8"/>
	<path id="path6645" class="st47" d="M-539.5,491.6c-2.6-0.1-5,1.1-5.1,5c-0.1,3.8,0.1,9.8,0.1,9.8l1.9,0.1c0-0.6-0.1-5.7,0-8.8
		c0-0.8,0-1.5,0.2-2.1c0.1-0.3,0.2-0.5,0.3-0.8c0.1-0.2,0.2-0.4,0.3-0.6s0.3-0.3,0.4-0.4c0.2-0.1,0.3-0.2,0.5-0.3
		c0.4-0.1,1-0.3,1.4-0.3s0.9,0.2,1.3,0.3c0.2,0.1,0.3,0.2,0.4,0.3s0.2,0.2,0.4,0.4c0.1,0.2,0.3,0.4,0.4,0.6c0.1,0.2,0.2,0.5,0.3,0.8
		c0.2,0.6,0.2,1.3,0.2,2.2c0.1,3.3,0,8.1,0,8.7l2-0.1c0,0,0.1-5.6,0-9.7C-534.5,492.6-536.9,491.7-539.5,491.6z"/>
	<path id="path6647" class="st46" d="M-542.6,506.3c0,0-0.1-5.5-0.1-8.8s1.6-4.3,3.1-4.3c1.6,0,3,0.8,3.1,4.4c0.1,3.5,0,8.7,0,8.7
		L-542.6,506.3L-542.6,506.3z"/>
	<path id="path6651" class="st44" d="M-543.4,479.8V475"/>
	<path id="path6653" class="st44" d="M-535.6,479.8V475"/>
	<path id="path6657" class="st43" d="M-571.7,470.5l0.8,1.1l-0.3,3.6l-1.8-1.5l-0.1-2.8L-571.7,470.5z M-569.7,473l0.8,1l-0.3,3.6
		l-1.8-1.5l-0.1-2.7L-569.7,473z M-567.7,475.6l0.7,0.9l-0.3,3.6l-1.8-1.5V476L-567.7,475.6L-567.7,475.6z"/>
	<path id="path6659" class="st43" d="M-584.2,470.8l1.3,1.1v2.1h-2.3v-2.4L-584.2,470.8z"/>
	<path id="path6661" class="st43" d="M-589.5,472.3l1.3,1.1v2.1h-2.3V473L-589.5,472.3z"/>
	<path id="path6663" class="st42" d="M-573.7,467.9l0.9,1.1v2.9l1,1v-2.6l1,1.2v2.4l1,1v-2.1l1,1.2v1.9l1,1.1v-1.6l1,1.3l-0.1,3.1
		c-0.8,0.9-1.7,1.1-1.8,2.5c0.3,2.3,0.9,5.9,2.1,9.6l-2.3,0.4c0.7,4.4,2.6,9.7,4.3,14.1l-8.5,1.4l-4.2-33.2L-573.7,467.9
		L-573.7,467.9z"/>
	<path id="path6665" class="st43" d="M-578.9,469.3l1.1,1.1v2.1h-2.3v-2.4L-578.9,469.3L-578.9,469.3z"/>
	<path id="path6669" class="st45" d="M-573.8,467.8l0.2,6c-1.4,1.2-1.2,2.4-1.2,3.5c1.9,12,4.4,22.6,8.1,30.6l-10,2.6l-0.7,0.2
		l-10,2.6c0.9-9.2-0.1-20.2-2-32.2c-0.5-1.2-1.4-1.7-2.7-2.1l-0.2-6l2.6-0.7v2.4l2.6-0.8v-2.4l2.6-0.7v2.5l2.6-0.7l0.1-2.5l2.6-0.7
		v2.7l2.6-0.7l0.1-2.7L-573.8,467.8L-573.8,467.8z"/>
	<path id="path6671" class="st44" d="M-573.7,473.9L-592,479L-573.7,473.9z"/>
	<path id="path6673" class="st44" d="M-574.9,477.4l-14.4,3.8C-589.3,481.2-574.9,477.4-574.9,477.4z"/>
	<path id="path6675" class="st44" d="M-569.6,501l-17.4,4.6"/>
	<path id="path6677" class="st44" d="M-570.9,496.3l-16.2,4.3"/>
	<path id="path6679" class="st44" d="M-572.1,491.6l-15.4,4.1"/>
	<path id="path6681" class="st44" d="M-573.2,486.9l-14.8,3.9"/>
	<path id="path6683" class="st44" d="M-574,482.1l-14.6,3.9"/>
	<path id="path6685" class="st46" d="M-578,484.8c0.6-0.1,1.1,0.3,1.4,1.7c0.3,1.5,0.7,4.5,0.7,4.5l-2.3,0.6c0,0-0.5-2.8-0.7-4.4
		s0.3-2.1,0.8-2.3C-578,484.8-578,484.8-578,484.8L-578,484.8z"/>
	<path id="path6687" class="st46" d="M-584,486.4c0.6-0.1,1.1,0.3,1.4,1.7c0.3,1.5,0.7,4.5,0.7,4.5l-2.3,0.6c0,0-0.5-2.8-0.7-4.5
		C-585.1,487.1-584.6,486.6-584,486.4C-584.1,486.4-584.1,486.4-584,486.4L-584,486.4z"/>
	<path id="path6691" class="st44" d="M-576.8,492.8l-0.2-1.5"/>
	<path id="path6693" class="st44" d="M-582.9,494.4l-0.2-1.5"/>
	<path id="path6695" class="st44" d="M-579.8,493.7l0.8,4.8"/>
	<path id="path6699" class="st44" d="M-571.2,507.5l-0.9-5.7"/>
	<path id="path6701" class="st44" d="M-583.5,510.7l-0.9-5.7"/>
	<path id="path6705" class="st44" d="M-572.9,496.9l-0.8-4.8"/>
	<path id="path6707" class="st44" d="M-585.1,500.1l-0.8-4.8"/>
	<path id="path6711" class="st44" d="M-581.4,484l0.8,5"/>
	<path id="path6713" class="st44" d="M-574.5,487.2l-0.8-4.7"/>
	<path id="path6715" class="st44" d="M-586.7,490.5l-0.8-4.7"/>
	<path id="path6717" class="st47" d="M-579.5,495.6c2-0.6,4.1,0,4.8,3.8c0.7,3.7,1.5,9.6,1.5,9.6l-1.5,0.5c-0.1-0.6-0.8-5.6-1.4-8.6
		c-0.1-0.8-0.3-1.5-0.5-2c-0.1-0.3-0.2-0.5-0.4-0.7c-0.1-0.2-0.2-0.4-0.3-0.5s-0.2-0.2-0.4-0.3c-0.1-0.1-0.3-0.1-0.4-0.2
		c-0.3-0.1-0.9-0.1-1.2,0s-0.7,0.4-1,0.6c-0.1,0.1-0.2,0.2-0.3,0.4c-0.1,0.1-0.1,0.3-0.2,0.5c-0.1,0.2-0.2,0.4-0.2,0.6
		s-0.1,0.5-0.1,0.8c0,0.6,0.1,1.3,0.2,2.1c0.4,3.2,1.3,7.9,1.4,8.5l-1.6,0.3c0,0-1-5.5-1.5-9.5
		C-583.2,497.6-581.5,496.2-579.5,495.6L-579.5,495.6z"/>
	<path id="path6719" class="st46" d="M-574.8,509.4c0,0-0.8-5.4-1.3-8.6c-0.6-3.2-1.9-3.9-3.1-3.5c-1.2,0.4-2.3,1.5-1.8,4.9
		s1.4,8.6,1.4,8.6L-574.8,509.4L-574.8,509.4z"/>
	<path id="path6723" class="st44" d="M-578.3,483.3l-0.8-4.7"/>
	<path id="path6725" class="st44" d="M-584.4,484.9l-0.8-4.7"/>
	<path id="path6727" class="st44" d="M-573.6,473.9l6.8,6.2"/>
	<path id="path6729" class="st44" d="M-574.8,477.4l6.3,4.9"/>
	<path id="path6731" class="st44" d="M-569.3,501l3.1,0.3"/>
	<path id="path6733" class="st44" d="M-571,496.4c0.4,0,3.7,0.6,3.7,0.6"/>
	<path id="path6735" class="st44" d="M-572.1,491.7l3.5,0.6"/>
	<path id="path6737" class="st44" d="M-573,486.9l5.6,1.5"/>
	<path id="path6739" class="st44" d="M-574,482.2l5.8,2.9"/>
	<path id="path6741" class="st44" d="M-569.1,496.7l1.4,4.4"/>
	<path id="path6743" class="st44" d="M-570.2,491.9c-0.4-1.5-0.8-3-1.1-4.5"/>
	<path id="path6745" class="st44" d="M-572.2,483l-0.6-4"/>
	<path id="path6747" class="st44" d="M-569.5,484.4l-0.5-3.2"/>
	<path id="path6749" class="st44" d="M-567.8,492.2c-0.4-1.3-0.8-2.9-1-4.2"/>
	<path id="path6751" class="st44" d="M-570.6,483.8l0.7,3.9"/>
	<path id="path6755" class="st43" d="M-507.3,470.5l-0.8,1.1l0.3,3.6l1.8-1.5l0.1-2.8C-506,470.9-507.3,470.5-507.3,470.5z
		 M-509.3,473l-0.8,1l0.3,3.6l1.8-1.5l0.1-2.7L-509.3,473z M-511.3,475.6l-0.7,0.9l0.3,3.6l1.8-1.5V476L-511.3,475.6L-511.3,475.6z"
		/>
	<path id="path6757" class="st43" d="M-494.8,470.8l-1.3,1.1v2.1h2.3v-2.4L-494.8,470.8z"/>
	<path id="path6759" class="st43" d="M-489.5,472.3l-1.3,1.1v2.1h2.3V473L-489.5,472.3z"/>
	<path id="path6761" class="st42" d="M-505.3,467.9l-0.9,1.1v2.9l-1,1v-2.6l-1,1.2v2.4l-1,1v-2.1l-1,1.2v1.9l-1,1.1v-1.6l-1,1.3
		l0.1,3.1c0.8,0.9,1.7,1.1,1.8,2.5c-0.3,2.3-0.9,5.9-2.1,9.6l2.3,0.4c-0.7,4.4-2.6,9.7-4.3,14.1l8.5,1.4l4.2-33.2L-505.3,467.9
		L-505.3,467.9z"/>
	<path id="path6763" class="st43" d="M-500.1,469.3l-1.1,1.1v2.1h2.3v-2.4L-500.1,469.3L-500.1,469.3z"/>
	<path id="path6765" class="st45" d="M-505.2,467.8l-0.2,6c1.4,1.2,1.2,2.4,1.2,3.5c-1.9,12-4.4,22.6-8.1,30.6l10,2.6l0.7,0.2
		l10,2.6c-0.9-9.2,0.1-20.2,2-32.2c0.5-1.2,1.4-1.7,2.7-2.1l0.2-6l-2.6-0.7v2.4l-2.6-0.8v-2.4l-2.6-0.7v2.5l-2.6-0.7l-0.1-2.5
		l-2.6-0.7v2.7l-2.6-0.7l-0.1-2.7C-502.6,468.6-505.2,467.8-505.2,467.8z"/>
	<path id="path6767" class="st44" d="M-505.3,473.9l18.4,5.1L-505.3,473.9z"/>
	<path id="path6769" class="st44" d="M-504.1,477.4l14.4,3.8L-504.1,477.4z"/>
	<path id="path6771" class="st44" d="M-509.4,501l17.4,4.6"/>
	<path id="path6773" class="st44" d="M-508.1,496.3l16.2,4.3"/>
	<path id="path6775" class="st44" d="M-506.9,491.6l15.4,4.1"/>
	<path id="path6777" class="st44" d="M-505.8,486.9l14.8,3.9"/>
	<path id="path6779" class="st44" d="M-505,482.1l14.6,3.9"/>
	<path id="path6781" class="st46" d="M-501,484.8c-0.6-0.1-1.1,0.3-1.4,1.7c-0.3,1.5-0.7,4.5-0.7,4.5l2.3,0.6c0,0,0.5-2.8,0.7-4.4
		s-0.3-2.1-0.8-2.3C-501,484.8-501,484.8-501,484.8z"/>
	<path id="path6783" class="st46" d="M-495,486.4c-0.6-0.1-1.1,0.3-1.4,1.7c-0.3,1.5-0.7,4.5-0.7,4.5l2.3,0.6c0,0,0.5-2.8,0.7-4.5
		c0.2-1.6-0.3-2.1-0.8-2.3C-494.9,486.4-494.9,486.4-495,486.4z"/>
	<path id="path6787" class="st44" d="M-502.2,492.8l0.2-1.5"/>
	<path id="path6789" class="st44" d="M-496.1,494.4l0.2-1.5"/>
	<path id="path6791" class="st44" d="M-499.2,493.7l-0.8,4.8"/>
	<path id="path6795" class="st44" d="M-507.8,507.5l0.9-5.7"/>
	<path id="path6797" class="st44" d="M-495.5,510.7l0.9-5.7"/>
	<path id="path6801" class="st44" d="M-506.1,496.9l0.8-4.8"/>
	<path id="path6803" class="st44" d="M-493.9,500.1l0.8-4.8"/>
	<path id="path6807" class="st44" d="M-497.6,484l-0.8,5"/>
	<path id="path6809" class="st44" d="M-504.5,487.2l0.8-4.7"/>
	<path id="path6811" class="st44" d="M-492.3,490.5l0.8-4.7"/>
	<path id="path6815" class="st47" d="M-499.5,495.6c-2-0.6-4.1,0-4.8,3.8c-0.7,3.7-1.5,9.6-1.5,9.6l1.5,0.5c0.1-0.6,0.8-5.6,1.4-8.6
		c0.1-0.8,0.3-1.5,0.5-2c0.1-0.3,0.2-0.5,0.4-0.7c0.1-0.2,0.2-0.4,0.3-0.5c0.1-0.1,0.2-0.2,0.4-0.3c0.1-0.1,0.3-0.1,0.4-0.2
		c0.3-0.1,0.9-0.1,1.2,0c0.3,0.1,0.7,0.4,1,0.6c0.1,0.1,0.2,0.2,0.3,0.4c0.1,0.1,0.1,0.3,0.2,0.5s0.2,0.4,0.2,0.6
		c0.1,0.2,0.1,0.5,0.1,0.8c0,0.6-0.1,1.3-0.2,2.1c-0.4,3.2-1.3,7.9-1.4,8.5l1.6,0.3c0,0,1-5.5,1.5-9.5
		C-495.8,497.6-497.5,496.2-499.5,495.6L-499.5,495.6z"/>
	<path id="path6817" class="st46" d="M-504.2,509.4c0,0,0.8-5.4,1.3-8.6c0.6-3.2,1.9-3.9,3.1-3.5s2.3,1.5,1.8,4.9s-1.4,8.6-1.4,8.6
		L-504.2,509.4L-504.2,509.4z"/>
	<path id="path6821" class="st44" d="M-500.7,483.3l0.8-4.7"/>
	<path id="path6823" class="st44" d="M-494.6,484.9l0.8-4.7"/>
	<path id="path6825" class="st44" d="M-505.4,473.9l-6.8,6.2"/>
	<path id="path6827" class="st44" d="M-504.2,477.4l-6.3,4.9"/>
	<path id="path6829" class="st44" d="M-509.7,501l-3.1,0.3"/>
	<path id="path6831" class="st44" d="M-508,496.4c-0.4,0-3.7,0.6-3.7,0.6"/>
	<path id="path6833" class="st44" d="M-506.9,491.7l-3.5,0.6"/>
	<path id="path6835" class="st44" d="M-506,486.9l-5.6,1.5"/>
	<path id="path6837" class="st44" d="M-505,482.2l-5.8,2.9"/>
	<path id="path6839-5" class="st44" d="M-509.9,496.7l-1.4,4.4"/>
	<path id="path6841" class="st44" d="M-508.8,491.9c0.4-1.5,0.8-3,1.1-4.5"/>
	<path id="path6843" class="st44" d="M-506.8,483l0.6-4"/>
	<path id="path6845" class="st44" d="M-509.5,484.4l0.5-3.2"/>
	<path id="path6847" class="st44" d="M-511.2,492.2c0.4-1.3,0.8-2.9,1-4.2"/>
	<path id="path6849" class="st44" d="M-508.3,483.8l-0.7,3.9"/>
	<path id="path6853" class="st43" d="M-460.6,487.2l-1.5,0.6l0.2,2.4l1.9-0.1l0.1-2.4L-460.6,487.2L-460.6,487.2z"/>
	<path id="path6855" class="st43" d="M-457.5,490l-1.5,0.6l0.2,2.4l1.9-0.1l0.1-2.4L-457.5,490z"/>
	<path id="path6857" class="st43" d="M-463.8,484.4l-1.5,0.6l0.2,2.4l1.9-0.1l0.1-2.4L-463.8,484.4z"/>
	<path id="path6859" class="st43" d="M-471.8,483.5l0.9,0.7l0.3,1.9l-1.1,0.6l-0.4-2.9L-471.8,483.5L-471.8,483.5z"/>
	<path id="path6861" class="st43" d="M-469.6,482.4l0.9,0.7l0.3,1.9l-1.1,0.6l-0.4-2.9L-469.6,482.4L-469.6,482.4z"/>
	<path id="path6863" class="st43" d="M-474.2,484.6l0.9,0.7l0.3,1.9l-1.1,0.6l-0.4-2.9L-474.2,484.6L-474.2,484.6z"/>
	<path id="path6865" class="st42" d="M-469.5,482.4l-1.1,0.5l0.2,2.4l-1.2,0.5l-0.3-2.3l-1.2,0.5l0.2,2.3l-1.2,0.5l-0.3-2.2
		l-1.2,0.5l0.5,4.2c0.3,0.7,0.7,1.4,0.5,2.2c-1.3,3.1-3.1,6.1-5.2,8.9l2.4,1c-1.8,3.7-3.9,7.2-6.5,10.5l8.4,4.8l12.5-23.5l-3-5.8
		l-0.8-5.1l-1-0.8l-1,0.5l0.3,2.4l-1.2,0.5L-469.5,482.4L-469.5,482.4z"/>
	<path id="path6867" class="st48" d="M-467.1,481.5l0.4,4.2c0.3,0.9,0.4,1.8,0,2.7c-3.7,9-9,19.5-12.9,24.6l7.4,3.5l0.4,0.4l5.8,6.2
		c1.3-7.9,4.5-17.1,8.1-26.2c0.4-0.5,1.6-1.2,2.2-1.3l-0.1-4.1l-1.6-1.5v1.9l-1.6-1.4v-1.8l-1.6-1.4v1.9l-1.6-1.4l-0.1-1.8l-1.6-1.5
		l0.1,1.9l-1.6-1.4l-0.1-1.8L-467.1,481.5L-467.1,481.5z"/>
	<path id="path6869" class="st44" d="M-466.7,485.8l11,9.8C-455.8,495.7-466.7,485.8-466.7,485.8z"/>
	<path id="path6873" class="st44" d="M-466.9,488.8l9.1,8C-457.9,496.9-466.9,488.8-466.9,488.8z"/>
	<path id="path6875" class="st44" d="M-475.9,507.5l11.1,9.8"/>
	<path id="path6877" class="st44" d="M-473.8,504l10.2,9"/>
	<path id="path6879" class="st44" d="M-472,500.4l9.7,8.5"/>
	<path id="path6881" class="st44" d="M-470.2,496.6l9.3,8.2"/>
	<path id="path6883" class="st44" d="M-468.6,492.7l9.2,8.1"/>
	<path id="path6885" class="st46" d="M-466.5,496.3c-0.4-0.3-0.8-0.1-1.3,1c-0.5,1.2-1.5,3.7-1.5,3.7l1.5,1.3c0,0,1-2.3,1.5-3.6
		C-465.8,497.3-466,496.7-466.5,496.3C-466.4,496.3-466.4,496.3-466.5,496.3L-466.5,496.3z"/>
	<path id="path6887" class="st46" d="M-462.6,499.6c-0.4-0.3-0.8-0.1-1.3,1c-0.5,1.2-1.5,3.7-1.5,3.7l1.4,1.3c0,0,1-2.3,1.5-3.6
		C-462,500.7-462.2,500.1-462.6,499.6C-462.6,499.7-462.6,499.7-462.6,499.6L-462.6,499.6z"/>
	<path id="path6889" class="st44" d="M-469,502.9l0.5-1.3"/>
	<path id="path6891" class="st44" d="M-465.2,506.2l0.5-1.3"/>
	<path id="path6893" class="st44" d="M-467.2,504.7l-1.6,4"/>
	<path id="path6895" class="st44" d="M-476.4,514.5l2.2-5.4"/>
	<path id="path6897" class="st44" d="M-468.4,520.6l1.9-4.7"/>
	<path id="path6899" class="st44" d="M-472.6,505.2l1.6-4"/>
	<path id="path6901" class="st44" d="M-464.9,512l1.6-4"/>
	<path id="path6903" class="st44" d="M-464,496.7l-1.6,4.1"/>
	<path id="path6905" class="st44" d="M-469.4,497.3l1.6-3.8"/>
	<path id="path6907" class="st44" d="M-461.7,504.1l1.6-3.8"/>
	<path id="path6911" class="st47" d="M-467.8,506.2c-1.2-1.2-2.9-1.3-4.1,1.7c-1.3,3-3.1,7.9-3.1,7.9l0.9,0.9c0.2-0.5,1.8-4.6,2.8-7
		c0.3-0.7,0.5-1.2,0.8-1.6c0.1-0.2,0.3-0.3,0.4-0.5c0.1-0.1,0.2-0.3,0.3-0.3c0.1-0.1,0.2-0.1,0.3-0.1c0.1,0,0.2,0,0.3,0
		c0.2,0,0.6,0.2,0.8,0.4c0.2,0.2,0.4,0.6,0.5,0.8c0.1,0.1,0.1,0.3,0.1,0.4c0,0.2,0,0.3,0.1,0.5c0,0.2,0,0.4,0,0.6s0,0.5-0.1,0.7
		c-0.1,0.5-0.3,1.1-0.6,1.8c-1,2.7-2.6,6.5-2.8,6.9l1,0.8c0,0,1.9-4.4,3.1-7.7C-465.7,509.2-466.5,507.4-467.8,506.2L-467.8,506.2z"
		/>
	<path id="path6913" class="st46" d="M-474.1,516.7c0,0,1.7-4.4,2.8-7.1c1.1-2.6,2.2-2.8,2.9-2s1.2,2,0.1,4.8s-2.8,7-2.8,7
		L-474.1,516.7z"/>
	<path id="path6915" class="st44" d="M-465.9,495.1l1.6-3.9"/>
	<path id="path6917" class="st44" d="M-462.1,498.5l1.6-3.9"/>
	<path id="path6919" class="st44" d="M-466.9,489l-7.5,2.6"/>
	<path id="path6921" class="st44" d="M-466.6,486l-8.1,3.3"/>
	<path id="path6923" class="st44" d="M-468.5,492.8l-7.2,1.7"/>
	<path id="path6925" class="st44" d="M-470.3,496.6c-0.2,0-7.6,1.5-7.6,1.5"/>
	<path id="path6927" class="st44" d="M-472.2,500.5l-4.9,0.8"/>
	<path id="path6929" class="st44" d="M-474,504.1l-4.8,0.6"/>
	<path id="path6931" class="st44" d="M-475.9,507.6l-5.2,0.9"/>
	<path id="path6933" class="st44" d="M-473,491l-1.3,3"/>
	<path id="path6935" class="st44" d="M-469.1,489.7l-1.4,3.5"/>
	<path id="path6937" class="st44" d="M-476.2,497.7l-2,3.2"/>
	<path id="path6939" class="st44" d="M-472.5,497.1l-2,3.8"/>
	<path id="path6941" class="st44" d="M-476.4,504.3l-2.1,3.7"/>
	<path id="path6943" class="st44" d="M-474.5,497.4l2-3.7"/>
	<path id="path6947" class="st43" d="M-618.8,487.2l1.5,0.6l-0.2,2.4l-1.9-0.1l-0.1-2.4L-618.8,487.2L-618.8,487.2z"/>
	<path id="path6949" class="st43" d="M-621.9,490l1.5,0.6l-0.2,2.4l-1.9-0.1l-0.1-2.4L-621.9,490z"/>
	<path id="path6951" class="st43" d="M-615.6,484.4l1.5,0.6l-0.2,2.4l-1.9-0.1l-0.1-2.4L-615.6,484.4z"/>
	<path id="path6953" class="st43" d="M-607.6,483.5l-0.9,0.7l-0.3,1.9l1.1,0.6l0.4-2.9L-607.6,483.5L-607.6,483.5z"/>
	<path id="path6955" class="st43" d="M-609.8,482.4l-0.9,0.7l-0.3,1.9l1.1,0.6l0.4-2.9L-609.8,482.4L-609.8,482.4z"/>
	<path id="path6957" class="st49" d="M-605.2,484.6l-0.9,0.7l-0.3,1.9l1.1,0.6l0.4-2.9L-605.2,484.6L-605.2,484.6z"/>
	<path id="path6959" class="st42" d="M-609.9,482.4l1.1,0.5l-0.2,2.4l1.2,0.5l0.3-2.3l1.2,0.5l-0.2,2.3l1.2,0.5l0.3-2.2l1.2,0.5
		l-0.5,4.2c-0.3,0.7-0.7,1.4-0.5,2.2c1.3,3.1,3.1,6.1,5.2,8.9l-2.4,1c1.8,3.7,3.9,7.2,6.5,10.5l-8.4,4.8l-12.5-23.5l3-5.8l0.8-5.1
		l1-0.8l1,0.5l-0.3,2.4l1.2,0.5L-609.9,482.4L-609.9,482.4z"/>
	<path id="path6961" class="st48" d="M-612.3,481.5l-0.4,4.2c-0.3,0.9-0.4,1.8,0,2.7c3.7,9,9,19.5,12.9,24.6l-7.4,3.5l-0.4,0.4
		l-5.8,6.2c-1.3-7.9-4.5-17.1-8.1-26.2c-0.4-0.5-1.6-1.2-2.2-1.3l0.1-4.1l1.6-1.5v1.9l1.6-1.4v-1.8l1.6-1.4v1.9l1.6-1.4l0.1-1.8
		l1.6-1.5l-0.1,1.9l1.6-1.4l0.1-1.8L-612.3,481.5L-612.3,481.5z"/>
	<path id="path6963" class="st44" d="M-612.7,485.8l-11,9.8L-612.7,485.8z"/>
	<path id="path6967" class="st44" d="M-612.5,488.8l-9.1,8L-612.5,488.8z"/>
	<path id="path6969" class="st44" d="M-603.5,507.5l-11.1,9.8"/>
	<path id="path6971" class="st44" d="M-605.6,504l-10.2,9"/>
	<path id="path6973" class="st44" d="M-607.4,500.4l-9.7,8.5"/>
	<path id="path6975" class="st44" d="M-609.2,496.6l-9.3,8.2"/>
	<path id="path6977" class="st44" d="M-610.8,492.7l-9.2,8.1"/>
	<path id="path6979" class="st46" d="M-612.9,496.3c0.4-0.3,0.8-0.1,1.3,1c0.5,1.2,1.5,3.7,1.5,3.7l-1.5,1.3c0,0-1-2.3-1.5-3.6
		C-613.6,497.3-613.4,496.7-612.9,496.3C-613,496.3-613,496.3-612.9,496.3L-612.9,496.3z"/>
	<path id="path6981" class="st46" d="M-616.8,499.6c0.4-0.3,0.8-0.1,1.3,1c0.5,1.2,1.5,3.7,1.5,3.7l-1.4,1.3c0,0-1-2.3-1.5-3.6
		C-617.4,500.7-617.2,500.1-616.8,499.6C-616.8,499.7-616.8,499.7-616.8,499.6L-616.8,499.6z"/>
	<path id="path6983" class="st44" d="M-610.4,502.9l-0.5-1.3"/>
	<path id="path6985" class="st44" d="M-614.2,506.2l-0.5-1.3"/>
	<path id="path6987" class="st44" d="M-612.2,504.7l1.6,4"/>
	<path id="path6989" class="st44" d="M-603,514.5l-2.2-5.4"/>
	<path id="path6991" class="st44" d="M-611,520.6l-1.9-4.7"/>
	<path id="path6993" class="st44" d="M-606.8,505.2l-1.6-4"/>
	<path id="path6995" class="st44" d="M-614.5,512l-1.6-4"/>
	<path id="path6997" class="st44" d="M-615.4,496.7l1.6,4.1"/>
	<path id="path6999" class="st44" d="M-610,497.3l-1.6-3.8"/>
	<path id="path7001" class="st44" d="M-617.7,504.1l-1.6-3.8"/>
	<path id="path7005" class="st47" d="M-611.6,506.2c1.2-1.2,2.9-1.3,4.1,1.7c1.3,3,3.1,7.9,3.1,7.9l-0.9,0.9c-0.2-0.5-1.8-4.6-2.8-7
		c-0.3-0.7-0.5-1.2-0.8-1.6c-0.1-0.2-0.3-0.3-0.4-0.5c-0.1-0.1-0.2-0.3-0.3-0.3c-0.1-0.1-0.2-0.1-0.3-0.1s-0.2,0-0.3,0
		c-0.2,0-0.6,0.2-0.8,0.4c-0.2,0.2-0.4,0.6-0.5,0.8c-0.1,0.1-0.1,0.3-0.1,0.4c0,0.2,0,0.3-0.1,0.5c0,0.2,0,0.4,0,0.6s0,0.5,0.1,0.7
		c0.1,0.5,0.3,1.1,0.6,1.8c1,2.7,2.6,6.5,2.8,6.9l-1,0.8c0,0-1.9-4.4-3.1-7.7C-613.7,509.2-612.9,507.4-611.6,506.2L-611.6,506.2z"
		/>
	<path id="path7007" class="st46" d="M-605.3,516.7c0,0-1.7-4.4-2.8-7.1c-1.1-2.6-2.2-2.8-2.9-2c-0.8,0.7-1.2,2-0.1,4.8
		c1.1,2.8,2.8,7,2.8,7L-605.3,516.7z"/>
	<path id="path7009" class="st44" d="M-613.5,495.1l-1.6-3.9"/>
	<path id="path7011" class="st44" d="M-617.3,498.5l-1.6-3.9"/>
	<path id="path7013" class="st44" d="M-612.5,489l7.5,2.6"/>
	<path id="path7015" class="st44" d="M-612.8,486l8.1,3.3"/>
	<path id="path7018" class="st44" d="M-610.9,492.8l7.2,1.7"/>
	<path id="path7020" class="st44" d="M-609.1,496.6c0.2,0,7.6,1.5,7.6,1.5"/>
	<path id="path7022" class="st44" d="M-607.2,500.5l4.9,0.8"/>
	<path id="path7024" class="st44" d="M-605.4,504.1l4.8,0.6"/>
	<path id="path7026" class="st44" d="M-603.5,507.6l5.2,0.9"/>
	<path id="path7028" class="st44" d="M-606.4,491l1.3,3"/>
	<path id="path7030" class="st44" d="M-610.3,489.7l1.4,3.5"/>
	<path id="path7032" class="st44" d="M-603.2,497.7l2,3.2"/>
	<path id="path7034" class="st44" d="M-606.9,497.1l2,3.8"/>
	<path id="path7036" class="st44" d="M-603,504.3l2.1,3.7"/>
	<path id="path7038" class="st44" d="M-604.9,497.4l-2-3.7"/>
	<path id="path7042" class="st43" d="M-539.6,509.4c62.1,0,72.7,15.2,70,17.9l0,0c16.2-6-7.8-22.9-70-22.9s-86.6,16.9-70,22.9l0,0
		C-612.3,524.6-601.7,509.4-539.6,509.4z"/>
	<path id="path7046" class="st44" d="M-512,505.6c-6.1-0.6-13.5,0.3-11.2,4.2"/>
	<path id="path7048" class="st44" d="M-499.1,507.2c-8.6-1.2-13,0.7-12.1,3.4"/>
	<path id="path7050" class="st44" d="M-477.5,512.6c-9-2.4-13.1-0.6-12.4,1.4"/>
	<path id="path7052" class="st44" d="M-467.7,517.9c-3.8-2.4-12.4-4.9-12.9-0.8"/>
	<path id="path7054" class="st44" d="M-465.3,524.4c-0.1-5.4-8.2-5.5-7.9-3.4"/>
	<path id="path7056" class="st44" d="M-551.8,504.5c-7.8,0.4-10.8,3.4-9,5.5"/>
	<path id="path7059" class="st44" d="M-563.6,505.3c-8.4,1.1-9.4,4.1-7.8,5.6"/>
	<path id="path7061" class="st44" d="M-602.6,512.9c-6.8,2.8-4.7,7.7-3.3,8.1"/>
	<path id="path7063" class="st44" d="M-539.3,504.3c-5.4-0.3-11.8,2.1-8.7,5.1"/>
	<path id="path7065" class="st44" d="M-526.3,504.6c-8.5-0.2-11,2.3-9.7,4.8"/>
	<path id="path7067" class="st44" d="M-487.3,509.6c-11.9-2.3-13.2,0.4-13,2.4"/>
	<path id="path7069" class="st44" d="M-611.1,517.3c-2,1.4-2,6.1,1.5,7.3"/>
	<path id="path7071" class="st44" d="M-594,510.2c-7.2,1.6-6.1,6.7-4.7,7.2"/>
	<path id="path7073" class="st44" d="M-585.7,508.2c-7.3,1-6.7,5.9-5.4,6.5"/>
	<path id="path7075" class="st44" d="M-575.7,506.5c-7.3,1-7.5,5.2-6.3,6"/>
	<path id="path7083" class="st47" d="M-589.9,522.4c2.1-0.6,4.4,0,5,3.3c0.6,3.4,1.3,8.7,1.3,8.7l-1.6,0.5c-0.1-0.5-0.8-5-1.2-7.8
		c-0.1-0.7-0.2-1.3-0.5-1.8c-0.1-0.2-0.2-0.4-0.4-0.6c-0.1-0.2-0.2-0.3-0.4-0.4s-0.3-0.2-0.4-0.3c-0.2-0.1-0.3-0.1-0.4-0.2
		c-0.3-0.1-0.9-0.1-1.2,0s-0.8,0.4-1,0.6c-0.1,0.1-0.2,0.2-0.3,0.3s-0.2,0.3-0.2,0.4c-0.1,0.2-0.2,0.4-0.3,0.6
		c-0.1,0.2-0.1,0.5-0.1,0.7c-0.1,0.5,0.1,1.2,0.2,1.9c0.4,2.9,1.2,7.2,1.3,7.7l-1.7,0.3c0,0-0.9-5-1.4-8.6
		C-593.9,524.3-592,523-589.9,522.4L-589.9,522.4z"/>
	<path id="path7085" class="st46" d="M-585.2,534.8c0,0-0.7-4.9-1.2-7.8c-0.5-2.9-1.9-3.5-3.2-3.1s-2.4,1.4-2,4.5s1.3,7.7,1.3,7.7
		L-585.2,534.8L-585.2,534.8z"/>
	<path id="path7089" class="st47" d="M-560.1,517.4c2.5-0.1,5,1,5.3,4.7s0.5,9.5,0.5,9.5l-1.9,0.2c0-0.6-0.3-5.5-0.5-8.6
		c-0.1-0.8-0.1-1.5-0.3-2c-0.1-0.3-0.2-0.5-0.4-0.7c-0.1-0.2-0.2-0.4-0.4-0.6s-0.3-0.3-0.4-0.4c-0.2-0.1-0.3-0.2-0.5-0.3
		c-0.4-0.1-1-0.3-1.4-0.3s-0.9,0.2-1.2,0.4c-0.2,0.1-0.3,0.2-0.4,0.3c-0.2,0.1-0.2,0.2-0.3,0.4s-0.3,0.3-0.4,0.6
		c-0.1,0.2-0.2,0.5-0.2,0.7c-0.1,0.6-0.1,1.2,0,2.1c0.1,3.2,0.5,7.9,0.6,8.5l-1.9-0.1c0,0-0.5-5.5-0.7-9.5
		C-564.9,518.5-562.6,517.5-560.1,517.4z"/>
	<path id="path7091" class="st46" d="M-556.2,531.7c0,0-0.3-5.4-0.5-8.6c-0.3-3.2-1.8-4.2-3.3-4.1c-1.5,0.1-2.9,0.9-2.7,4.3
		c0.2,3.4,0.6,8.5,0.6,8.5L-556.2,531.7z"/>
	<path id="path7097" class="st47" d="M-489.5,522.4c-2.1-0.6-4.4,0-5,3.3c-0.6,3.4-1.3,8.7-1.3,8.7l1.6,0.5c0.1-0.5,0.8-5,1.2-7.8
		c0.1-0.7,0.2-1.3,0.5-1.8c0.1-0.2,0.2-0.4,0.4-0.6c0.1-0.2,0.2-0.3,0.4-0.4c0.1-0.1,0.3-0.2,0.4-0.3c0.2-0.1,0.3-0.1,0.4-0.2
		c0.3-0.1,0.9-0.1,1.2,0c0.3,0.1,0.8,0.4,1,0.6c0.1,0.1,0.2,0.2,0.3,0.3c0.1,0.1,0.2,0.3,0.2,0.4s0.2,0.4,0.3,0.6
		c0.1,0.2,0.1,0.5,0.1,0.7c0.1,0.5-0.1,1.2-0.2,1.9c-0.4,2.9-1.2,7.2-1.3,7.7l1.7,0.3c0,0,0.9-5,1.4-8.6
		C-485.5,524.3-487.4,523-489.5,522.4L-489.5,522.4z"/>
	<path id="path7099" class="st46" d="M-494.2,534.8c0,0,0.7-4.9,1.2-7.8c0.5-2.9,1.9-3.5,3.2-3.1c1.3,0.4,2.4,1.4,2,4.5
		s-1.3,7.7-1.3,7.7L-494.2,534.8L-494.2,534.8z"/>
	<path id="path7103" class="st47" d="M-519.2,517.4c-2.5-0.1-5,1-5.3,4.7s-0.5,9.5-0.5,9.5l1.9,0.2c0-0.6,0.3-5.5,0.5-8.6
		c0.1-0.8,0.1-1.5,0.3-2c0.1-0.3,0.2-0.5,0.4-0.7c0.1-0.2,0.2-0.4,0.4-0.6c0.2-0.2,0.3-0.3,0.4-0.4c0.2-0.1,0.3-0.2,0.5-0.3
		c0.4-0.1,1-0.3,1.4-0.3s0.9,0.2,1.2,0.4c0.2,0.1,0.3,0.2,0.4,0.3s0.2,0.2,0.3,0.4s0.3,0.3,0.4,0.6c0.1,0.2,0.2,0.5,0.2,0.7
		c0.1,0.6,0.1,1.2,0,2.1c-0.1,3.2-0.5,7.9-0.6,8.5l1.9-0.1c0,0,0.5-5.5,0.7-9.5C-514.5,518.5-516.8,517.5-519.2,517.4z"/>
	<path id="path7105" class="st46" d="M-523.2,531.7c0,0,0.3-5.4,0.5-8.6c0.3-3.2,1.8-4.2,3.3-4.1c1.5,0.1,2.9,0.9,2.7,4.3
		c-0.2,3.4-0.6,8.5-0.6,8.5L-523.2,531.7z"/>
	<path id="path7109" class="st23" d="M-539.7,531c-35.6,0-64.5,5.5-64.5,12.4c0,6.8,28.9,12.4,64.5,12.4s64.5-5.5,64.5-12.4
		C-475.2,536.6-504.1,531-539.7,531z M-539.7,535.4c32.5,0,59,6,59,8.2c0,2.4-26.4,8.6-59,8.6s-59-6.2-59-8.6
		C-598.7,541.4-572.2,535.4-539.7,535.4z"/>
	<path id="path7111" class="st44" d="M-516.1,532c-5.2-0.6-11.6,0.3-9.6,3.9"/>
	<path id="path7113" class="st44" d="M-505.2,532.9c-7.9-0.9-11.4,1.1-10.2,3.5"/>
	<path id="path7115" class="st44" d="M-486.1,536.6c-7.8-2-11.9-0.3-10.1,2.4"/>
	<path id="path7117" class="st44" d="M-477,540.6c-3.4-2-10.8-3.5-10.7,0.3"/>
	<path id="path7119" class="st44" d="M-476.2,545.6c1.9-4.3-5.3-4.1-5.1-2.4"/>
	<path id="path7121" class="st44" d="M-550.1,531.2c-6.7,0.3-9.2,3.1-7.7,4.9"/>
	<path id="path7123" class="st44" d="M-560.3,531.7c-7.2,1-8,3.7-6.7,5.1"/>
	<path id="path7125" class="st44" d="M-593.6,536.6c-5.8,2-4.1,5.4-2.8,5.7"/>
	<path id="path7127" class="st44" d="M-539.4,531c-4.7-0.2-10.1,1.8-7.4,4.4"/>
	<path id="path7129" class="st44" d="M-528.3,531.2c-7.3-0.2-9.4,2.1-8.3,4.3"/>
	<path id="path7131" class="st44" d="M-495.3,534.5c-10.4-1.8-11.3,1-11,3.1"/>
	<path id="path7133" class="st44" d="M-603.2,541.3c-0.9,1.8,1.1,3.6,4.5,2.4"/>
	<path id="path7135" class="st44" d="M-586.3,534.9c-6.2,1.3-5.2,5.2-4.1,5.6"/>
	<path id="path7137" class="st44" d="M-579.2,533.7c-6.3,0.8-5.8,4.9-4.6,5.4"/>
	<path id="path7139" class="st44" d="M-570.6,532.6c-6.3,0.8-6.4,4.6-5.4,5.3"/>
</g>
</svg>
